SplineFontDB: 1.0
FontName: GaramondNo8-Med
FullName: GaramondNo8 Medium
FamilyName: GaramondNo8
Weight: Medium
Copyright: Copyright (URW)++,Copyright 2000 by (URW)++ Design & Development
Version: 1.05
ItalicAngle: 0
UnderlinePosition: -225
UnderlineWidth: 51
Ascent: 800
Descent: 200
NeedsXUIDChange: 1
UniqueID: 4038271
OS2WinAscent: 0
OS2WinAOffset: 1
OS2WinDescent: 0
OS2WinDOffset: 1
HheadAscent: 0
HheadAOffset: 1
HheadDescent: 0
HheadDOffset: 1
ScriptLang: 2
 1 latn 1 dflt 
 1 DFLT 1 dflt 
Encoding: AdobeStandard
UnicodeInterp: none
DisplaySize: -24
AntiAlias: 1
FitToEm: 1
WinInfo: 32 16 4
BeginPrivate: 7
BlueValues 31 [-20 0 436 456 689 714 664 684]
BlueScale 8 0.039625
StdHW 4 [46]
StdVW 5 [111]
StemSnapH 206 [46 49 56 68 74 81 84 89] 
systemdict /internaldict known
{1183615869 systemdict /internaldict get exec
/StemSnapLength 2 copy known { get 8 lt } { pop pop true } ifelse }
{ true } ifelse { pop [46 49] } if
StemSnapV 204 [111 121 134 141 146] 
systemdict /internaldict known
{1183615869 systemdict /internaldict get exec
/StemSnapLength 2 copy known { get 5 lt } { pop pop true } ifelse }
{ true } ifelse { pop [111 134] } if
ForceBold 5 false
EndPrivate
BeginChars: 353 353
StartChar: exclam
Encoding: 33 33 2
Width: 276
Flags: MW
HStem: -18 165<114.5 160> 674 20<117.5 163>
Fore
121 237 m 1
 72 546 l 1
 69 563 64 614 64 624 c 0
 64 666 95 694 140 694 c 0
 186 694 217 665 217 622 c 0
 217 608 212 565 209 546 c 1
 152 237 l 1
 149 222 149 221 141 221 c 2
 133 221 l 2
 124 221 124 221 121 237 c 1
137 147 m 0
 183 147 220 111 220 65 c 0
 220 18 183 -18 137 -18 c 0
 92 -18 55 19 55 65 c 0
 55 110 92 147 137 147 c 0
EndSplineSet
EndChar
StartChar: quotedbl
Encoding: 34 34 3
Width: 406
Flags: W
Fore
105 462 m 1
 76 642 l 1
 74 653 73 662 73 670 c 0
 73 698 99 721 129 721 c 0
 160 721 186 698 186 670 c 0
 186 665 185 655 183 642 c 2
 153 462 l 2
 151 450 146 444 136 444 c 2
 122 444 l 2
 112 444 108 450 105 462 c 1
271 462 m 2
 241 642 l 1
 240 653 239 660 239 670 c 0
 239 698 265 721 295 721 c 0
 325 721 351 698 351 670 c 0
 351 662 350 653 348 642 c 1
 319 462 l 2
 317 450 311 444 302 444 c 2
 288 444 l 2
 278 444 273 450 271 462 c 2
EndSplineSet
EndChar
StartChar: numbersign
Encoding: 35 35 4
Width: 498
Flags: MW
HStem: -15 20 202 82<56 100 174 274 345 383> 376 82<113 153 226 327 399 435>
Fore
100 202 m 1
 35 202 l 2
 28 202 22 208 22 214 c 0
 22 217 23 222 24 226 c 2
 37 267 l 2
 40 277 48 284 56 284 c 2
 125 284 l 1
 153 376 l 1
 90 376 l 2
 81 376 76 381 76 389 c 0
 76 392 76 395 77 398 c 2
 91 442 l 2
 94 452 103 458 113 458 c 2
 178 458 l 1
 238 659 l 2
 242 672 245 675 251 675 c 2
 281 675 l 2
 286 675 288 673 288 667 c 0
 288 664 288 661 287 657 c 2
 226 458 l 1
 353 458 l 1
 413 655 l 2
 418 671 421 675 428 675 c 2
 452 675 l 2
 458 675 461 672 461 666 c 0
 461 663 460 659 459 654 c 1
 399 458 l 1
 463 458 l 2
 470 458 474 453 474 447 c 0
 474 445 474 443 473 442 c 1
 456 386 l 2
 454 379 448 376 435 376 c 2
 374 376 l 1
 345 284 l 1
 410 284 l 2
 417 284 421 282 421 278 c 0
 421 275 420 272 419 268 c 2
 404 220 l 2
 400 207 394 202 383 202 c 2
 320 202 l 1
 259 0 l 2
 255 -13 253 -15 244 -15 c 2
 221 -15 l 2
 216 -15 211 -11 211 -7 c 0
 211 -6 212 -3 213 1 c 2
 274 202 l 1
 149 202 l 1
 88 0 l 1
 84 -12 81 -15 72 -15 c 2
 48 -15 l 2
 42 -15 39 -12 39 -5 c 0
 39 -2 39 -1 40 1 c 1
 100 202 l 1
174 284 m 1
 299 284 l 1
 327 376 l 1
 201 376 l 1
 174 284 l 1
EndSplineSet
EndChar
StartChar: dollar
Encoding: 36 36 5
Width: 498
Flags: MW
VStem: 59 98<519.5 548.5> 228 43<-50 0 45 270 433 631 676 730> 355 98
Fore
228 45 m 1
 228 295 l 1
 101 367 59 418 59 502 c 0
 59 595 120 658 228 676 c 1
 228 730 l 2
 228 739 232 743 239 743 c 2
 259 743 l 2
 266 743 271 738 271 730 c 2
 271 676 l 1
 359 672 426 632 426 582 c 0
 426 555 404 534 374 534 c 0
 352 534 341 543 326 573 c 0
 310 602 299 614 271 631 c 1
 271 412 l 1
 365 358 368 356 387 341 c 0
 431 306 453 258 453 195 c 0
 453 136 431 87 387 50 c 0
 357 24 329 12 271 0 c 1
 271 -51 l 2
 271 -62 267 -68 259 -68 c 2
 238 -68 l 2
 230 -68 228 -64 228 -50 c 2
 228 0 l 1
 175 3 146 11 115 32 c 0
 77 57 52 95 52 129 c 0
 52 160 78 187 109 187 c 0
 123 187 137 179 146 166 c 0
 153 156 153 156 166 115 c 0
 176 85 198 61 228 45 c 1
271 270 m 1
 271 41 l 1
 302 47 317 54 330 69 c 0
 346 87 355 115 355 147 c 0
 355 175 347 206 335 221 c 0
 326 234 315 242 271 270 c 1
228 433 m 1
 228 632 l 1
 182 623 157 591 157 540 c 0
 157 499 174 474 228 433 c 1
EndSplineSet
EndChar
StartChar: percent
Encoding: 37 37 6
Width: 830
Flags: W
HStem: -15 43<608 652> 298 43<609 653> 320 43<171 215> 632 43<172 216.5>
VStem: 35 89<455 541.5> 264 88<458 540.5> 472 89<120.5 206.5> 701 88<123 206>
Fore
630 341 m 0xdf
 720 341 789 263 789 163 c 0
 789 63 720 -15 631 -15 c 0
 540 -15 472 63 472 165 c 0
 472 263 542 341 630 341 c 0xdf
632 298 m 0
 586 298 561 250 561 163 c 0
 561 78 586 28 630 28 c 0
 674 28 701 81 701 165 c 0
 701 247 674 298 632 298 c 0
237 7 m 2
 532 662 l 2
 537 673 539 675 549 675 c 2
 581 675 l 2
 587 675 593 671 593 666 c 0
 593 663 591 659 589 654 c 2
 297 5 l 1
 289 -14 288 -15 279 -15 c 2
 246 -15 l 2
 239 -15 232 -11 232 -7 c 0
 232 -5 234 0 237 7 c 2
194 675 m 0
 283 675 352 598 352 498 c 0
 352 398 283 320 194 320 c 0x3f
 103 320 35 397 35 500 c 0
 35 597 105 675 194 675 c 0
195 632 m 0
 149 632 124 585 124 498 c 0
 124 412 149 363 193 363 c 0
 237 363 264 416 264 500 c 0
 264 581 238 632 195 632 c 0
EndSplineSet
EndChar
StartChar: ampersand
Encoding: 38 38 7
Width: 848
Flags: W
HStem: -18 85 -18 94 425 20 629 35<253 290.5>
VStem: 42 113<187 204> 121 90<539 559.5> 337 90<528 559.5>
Fore
791 118 m 1xb6
 819 105 l 1
 802 65 789 47 766 27 c 0
 732 -2 689 -18 644 -18 c 0xb6
 603 -18 545 -7 530 4 c 0
 514 16 512 18 472 108 c 2
 464 127 l 1
 452 113 l 2
 397 49 377 28 349 11 c 0
 317 -8 279 -18 233 -18 c 0
 118 -18 42 52 42 158 c 0x48
 42 250 87 311 206 380 c 1
 137 437 121 463 121 516 c 0
 121 603 190 664 286 664 c 0
 370 664 427 620 427 554 c 0
 427 502 403 471 326 424 c 1
 410 372 450 335 511 255 c 1
 553 313 l 2
 585 358 601 396 601 427 c 0
 601 456 588 463 538 464 c 0
 531 465 529 468 529 479 c 2
 529 493 l 2
 529 502 532 505 540 505 c 0
 544 505 551 504 559 503 c 0
 573 502 648 498 672 498 c 0
 690 498 749 501 765 503 c 0
 772 504 780 505 783 505 c 0
 789 505 790 503 790 493 c 2
 790 479 l 2
 790 466 789 465 778 465 c 0
 721 463 704 453 664 395 c 1
 538 222 l 1
 600 103 637 67 702 67 c 0
 739 67 751 74 791 118 c 1xb6
299 445 m 1
 328 469 337 488 337 528 c 0
 337 591 311 629 270 629 c 0
 236 629 211 600 211 560 c 0
 211 518 233 488 299 445 c 1
445 167 m 1x48
 401 237 357 277 235 357 c 1
 179 326 155 287 155 228 c 0
 155 146 225 76 308 76 c 0
 353 76 385 97 445 167 c 1x48
EndSplineSet
EndChar
StartChar: quoteright
Encoding: 39 8217 8
Width: 258
Flags: MW
HStem: 674 20<106 155.5>
VStem: 145 80
Fore
127 694 m 0
 184 694 225 649 225 586 c 0
 225 533 192 484 132 450 c 0
 107 435 79 425 65 425 c 0
 56 425 48 437 48 451 c 0
 48 457 50 459 66 464 c 0
 114 481 145 509 145 534 c 0
 145 556 134 565 99 575 c 0
 71 582 56 603 56 633 c 0
 56 669 85 694 127 694 c 0
EndSplineSet
KernsSLIF: 121 6 1 0 118 2 1 0 116 1 1 0 115 -3 1 0 114 -9 1 0 46 -25 1 0 111 -15 1 0 100 -14 1 0 44 -21 1 0 261 -62 1 0 256 -62 1 0 257 -62 1 0 225 -98 1 0 65 -62 1 0
EndChar
StartChar: parenleft
Encoding: 40 40 9
Width: 313
Flags: MW
VStem: 36 104<183 322.5>
Fore
290 679 m 1
 263 644 l 2
 179 532 140 404 140 241 c 0
 140 63 193 -83 299 -198 c 1
 294 -210 288 -217 273 -229 c 1
 208 -176 176 -140 130 -68 c 0
 63 34 36 124 36 242 c 0
 36 419 111 573 271 722 c 1
 285 714 293 706 300 694 c 1
 290 679 l 1
EndSplineSet
EndChar
StartChar: parenright
Encoding: 41 41 10
Width: 313
Flags: MW
VStem: 178 104<183.5 301>
Fore
28 679 m 1
 18 694 l 1
 26 707 33 714 47 722 c 1
 206 574 282 419 282 242 c 0
 282 125 255 34 188 -68 c 0
 142 -139 110 -175 45 -229 c 1
 31 -218 24 -209 19 -198 c 1
 127 -78 178 63 178 241 c 0
 178 361 159 452 116 542 c 0
 91 595 85 603 28 679 c 1
EndSplineSet
EndChar
StartChar: asterisk
Encoding: 42 42 11
Width: 498
Flags: MW
HStem: 430 20<260 268> 677 20<275 309.5>
Fore
422 547 m 0
 448 547 464 525 464 490 c 0
 464 451 447 426 421 426 c 0
 404 426 401 427 327 462 c 0
 302 474 295 480 295 491 c 0
 295 502 302 507 328 517 c 0
 406 547 408 547 422 547 c 0
290 697 m 0
 329 697 367 670 367 643 c 0
 367 625 361 616 313 566 c 0
 282 533 280 531 269 531 c 0
 261 531 254 537 252 546 c 0
 250 557 246 614 246 640 c 0
 246 679 260 697 290 697 c 0
176 516 m 2
 124 530 l 2
 81 542 66 554 66 578 c 0
 66 610 104 652 132 652 c 0
 149 652 161 642 177 617 c 0
 198 583 221 538 221 529 c 0
 221 518 212 510 201 511 c 0
 194 512 185 513 176 516 c 2
196 481 m 0
 208 480 216 473 216 463 c 0
 216 454 183 399 158 368 c 0
 145 351 135 345 121 345 c 0
 92 345 57 387 57 422 c 0
 57 437 67 451 84 458 c 0
 103 466 182 482 196 481 c 0
264 450 m 0
 272 450 280 444 294 426 c 0
 305 412 316 398 328 384 c 0
 347 360 354 346 354 333 c 0
 354 305 319 282 278 282 c 0
 247 282 233 298 233 333 c 0
 233 352 241 419 246 435 c 0
 248 444 256 450 264 450 c 0
EndSplineSet
EndChar
StartChar: plus
Encoding: 43 43 12
Width: 830
Flags: MW
HStem: -3 20 214 81<170 374 455 659>
VStem: 374 81<10 214 295 498>
Fore
374 295 m 1
 374 498 l 2
 374 507 377 511 384 511 c 2
 445 511 l 2
 452 511 455 507 455 498 c 2
 455 295 l 1
 659 295 l 2
 667 295 671 292 671 285 c 2
 671 224 l 2
 671 217 667 214 659 214 c 2
 455 214 l 1
 455 10 l 2
 455 1 452 -3 445 -3 c 2
 384 -3 l 2
 377 -3 374 1 374 10 c 2
 374 214 l 1
 170 214 l 2
 161 214 157 217 157 224 c 2
 157 285 l 2
 157 292 161 295 170 295 c 2
 374 295 l 1
EndSplineSet
EndChar
StartChar: comma
Encoding: 44 44 13
Width: 276
Flags: MW
VStem: 158 74
Fore
125 148 m 0
 188 148 232 96 232 21 c 0
 232 -26 214 -70 181 -102 c 0
 145 -138 98 -162 66 -162 c 0
 58 -162 51 -151 51 -137 c 0
 51 -130 51 -130 79 -122 c 0
 132 -106 158 -80 158 -43 c 0
 158 -26 152 -12 141 -4 c 0
 131 5 131 5 91 19 c 0
 61 30 49 47 49 77 c 0
 49 119 80 148 125 148 c 0
EndSplineSet
KernsSLIF: 39 -20 1 0 186 -17 1 0
EndChar
StartChar: hyphen
Encoding: 45 45 14
Width: 276
Flags: MW
HStem: 194 106<38 236>
Fore
22 206 m 2
 22 288 l 2
 22 294 29 300 38 300 c 2
 236 300 l 2
 245 300 252 294 252 288 c 2
 252 206 l 2
 252 200 245 194 236 194 c 2
 38 194 l 2
 29 194 22 200 22 206 c 2
EndSplineSet
KernsSLIF: 89 -65 1 0 87 -52 1 0 86 -49 1 0 84 -58 1 0 225 -16 1 0
EndChar
StartChar: period
Encoding: 46 46 15
Width: 276
Flags: MW
HStem: -18 20
Fore
138 147 m 0
 184 147 221 111 221 65 c 0
 221 18 184 -18 138 -18 c 0
 93 -18 56 19 56 65 c 0
 56 110 93 147 138 147 c 0
EndSplineSet
KernsSLIF: 39 -20 1 0 186 -17 1 0
EndChar
StartChar: slash
Encoding: 47 47 16
Width: 498
Flags: W
Fore
466 701 m 1
 144 -51 l 2
 142 -56 138 -58 130 -58 c 2
 68 -58 l 2
 61 -58 57 -56 57 -52 c 0
 57 -50 58 -46 60 -42 c 2
 382 707 l 2
 387 719 391 722 401 722 c 2
 456 722 l 2
 465 722 470 718 470 712 c 0
 470 710 470 708 466 701 c 1
EndSplineSet
EndChar
StartChar: zero
Encoding: 48 48 17
Width: 518
Flags: HMW
Fore
481 214 m 0
 481 150.667 460 98.1667 418 56.5 c 128
 376 14.8333 323 -6 259 -6 c 0
 195 -6 142 14.6667 100 56 c 128
 58 97.3333 37 150 37 214 c 0
 37 278 57.8333 330.5 99.5 371.5 c 128
 141.167 412.5 194.333 433 259 433 c 0
 323.667 433 376.833 412.5 418.5 371.5 c 128
 460.167 330.5 481 278 481 214 c 0
379.1 215.7 m 4
 379.1 260.1 369.233 297.3 349.5 327.3 c 4
 327.634 360.9 297.5 377.7 259.1 377.7 c 4
 220.7 377.7 190.566 360.6 168.7 326.4 c 4
 149.5 296.4 139.9 258.9 139.9 213.9 c 4
 139.9 168.9 149.767 131.1 169.5 100.5 c 4
 191.366 65.7002 221.5 48.2998 259.9 48.2998 c 4
 298.3 48.2998 328.434 66 350.3 101.4 c 4
 369.5 132.6 379.1 170.7 379.1 215.7 c 4
EndSplineSet
EndChar
StartChar: one
Encoding: 49 49 18
Width: 518
Flags: W
HStem: 1 21G<373.12 381.48>
Fore
397.76 416 m 0
 397.76 406 381.479 398.667 348.92 394 c 1
 322.521 387.333 309.32 368.333 309.32 337 c 2
 309.32 90 l 2
 309.32 63.333 317.24 46.667 333.08 40 c 0
 341.88 36.667 357.279 32.333 379.28 27 c 0
 388.96 25 393.8 20.667 393.8 14 c 0
 393.8 5.33301 387.641 1 375.32 1 c 0
 370.92 1 364.979 1.5 357.5 2.5 c 128
 350.021 3.5 344.08 4 339.68 4 c 2
 209 4 l 1
 145.641 1 l 2
 128.04 0.333008 119.24 4.66699 119.24 14 c 0
 119.24 21.333 138.159 27.333 176 32 c 0
 203.279 35.333 216.92 57.333 216.92 98 c 2
 216.92 345 l 2
 216.92 347.667 216.04 352 214.279 358 c 128
 212.521 364 211.641 368.667 211.641 372 c 0
 209.88 378 195.359 386.167 168.08 396.5 c 128
 140.8 406.833 127.159 413.667 127.159 417 c 0
 127.159 425 133.32 429 145.641 429 c 1
 226.159 423 l 1
 278.96 422 l 1
 379.28 428 l 2
 391.6 428.667 397.76 424.667 397.76 416 c 0
EndSplineSet
EndChar
StartChar: two
Encoding: 50 50 19
Width: 518
Flags: W
HStem: 3 72<229 338> 380 55<207 247>
VStem: 272 103<288 313>
Fore
440 89 m 0
 440 79.667 426.5 53.3333 415.5 32 c 128
 404.5 10.6667 395.333 0.333333 388 1 c 2
 338 4 l 1
 159 3 l 1
 92 -1 l 2
 80.667 -1.66699 75 3.33301 75 14 c 0
 75 18 84 27 102 41 c 0
 109.333 47 119 53.667 131 61 c 1
 233.667 151.667 272 228 272 288 c 0
 272 342.688 261.656 380 207 380 c 0
 188.333 380 173.667 368.333 155 351 c 1
 139 317 l 1
 129 317 108 332 108 340 c 0
 108 344.667 113 354.667 123 370 c 0
 151.667 413.333 193 435 247 435 c 0
 283.667 435 315 424.333 339 401 c 128
 363 377.667 375 347.667 375 311 c 0
 375 288.333 372.333 271.667 367 261 c 0
 355 237 324.333 197.333 277 144 c 0
 241 104 228.333 91 223 83 c 1
 223 77.667 225.667 75 231 75 c 2
 371 75 l 2
 378.333 75 389.167 79.333 403.5 88 c 128
 417.833 96.667 425.333 101 426 101 c 0
 435.333 101 440 97 440 89 c 0
EndSplineSet
EndChar
StartChar: three
Encoding: 51 51 20
Width: 518
Flags: W
HStem: 416 20G<239 280>
Fore
398 76 m 0
 398 24.6667 383.333 -22.3333 354 -65 c 0
 324 -109.667 285 -139.5 237 -154.5 c 128
 189 -169.5 160.333 -177 151 -177 c 0
 142.333 -177 138 -172 138 -162 c 0
 138 -154 156.8 -131.85 173.6 -126.45 c 4
 179.6 -124.65 191 -121.05 207.8 -115.65 c 5
 276.2 -90.4502 310.4 -40.6504 310.4 33.75 c 4
 310.4 101.55 283.7 135.45 230.3 135.45 c 4
 224.9 135.45 216.5 133.2 205.1 128.7 c 132
 193.7 124.2 185.9 121.95 181.7 121.95 c 4
 172.1 121.95 159 140.667 159 152 c 0
 159 161.333 170.75 180.15 183.35 185.55 c 0
 252.35 216.15 286.85 257.85 286.85 310.65 c 0
 286.85 353.85 266.15 375.45 224.75 375.45 c 0
 210.95 375.45 192.35 367.2 168.95 350.7 c 128
 145.55 334.2 135.95 325.95 140.15 325.95 c 1
 132.35 325.95 119 335 119 343 c 0
 119 350.333 125 361 137 375 c 0
 171.667 415.667 214 436 264 436 c 0
 296 436 321.667 427.167 341 409.5 c 128
 360.333 391.833 370 367.333 370 336 c 0
 370 326 369.667 318.333 369 313 c 0
 367 297.667 357 279.667 339 259 c 1
 317 236 317 236 295 213 c 1
 295 209.667 297.333 207.333 302 206 c 0
 366 185.333 398 142 398 76 c 0
EndSplineSet
EndChar
StartChar: four
Encoding: 52 52 21
Width: 518
Flags: HMW
Fore
492 65 m 0
 492 49 486.333 33 475 33 c 2
 372 33 l 2
 364.667 33 361 28.6667 361 20 c 2
 361 -164 l 2
 361 -170.667 348.333 -173.667 323 -173 c 0
 297.667 -172.333 276 -169.667 276 -165 c 2
 276 18 l 2
 276 28 264.333 33.333 241 34 c 2
 155 36 l 1
 43 33 l 2
 31.6667 33 26 38.3333 26 49 c 0
 26 51.6667 41 70.6667 71 106 c 0
 108.333 150 176 234 274 358 c 2
 289 377 l 2
 308 401 308 401 337 437 c 1
 338.333 437.667 341 438 345 438 c 0
 355.667 438 361 434.333 361 427 c 2
 361 104 l 2
 361 94.667 364.333 90 371 90 c 2
 473 90 l 2
 485.667 90 492 81.667 492 65 c 0
278.25 105.85 m 2
 279.25 273.25 l 2
 279.25 276.85 277.75 278.65 274.75 278.65 c 0
 271.15 278.65 247.75 250.75 198.55 194.95 c 128
 149.35 139.15 124.75 107.95 124.75 101.35 c 0
 125.35 95.3496 127.75 92.3496 131.95 92.3496 c 2
 268.35 92.3496 l 2
 274.95 92.3496 278.25 96.8496 278.25 105.85 c 2
EndSplineSet
EndChar
StartChar: five
Encoding: 53 53 22
Width: 518
Flags: W
HStem: 422 20G<378.333 380.667>
VStem: 139 61<264 317> 292 89<34 61>
Fore
379 431 m 0
 379 421 385.5 401.333 374.5 386 c 128
 363.5 370.667 353.333 362 344 360 c 0
 340 359.333 315.333 354.667 270 346 c 0
 256 343.333 242 341 228 339 c 1
 209.333 333 200 330.333 200 317 c 0
 200 299.667 207.333 286.333 222 277 c 0
 328 210.333 381 138.333 381 61 c 0
 381 17 365.667 -24.667 335 -64 c 0
 307.667 -99.333 272.333 -127.667 229 -149 c 0
 196.333 -165 173 -173 165 -173 c 0
 155 -173 141 -166.667 141 -154 c 0
 141 -148.667 147.333 -143 160 -137 c 0
 164.667 -135 173.333 -131 186 -125 c 0
 258.667 -89 292 -38 292 34 c 0
 292 86 264.333 133 209 175 c 0
 160.333 211.667 139 243.333 139 264 c 0
 139 285.333 144.667 310.167 156 338.5 c 128
 167.333 366.833 180.833 386.833 196.5 398.5 c 128
 212.167 410.167 258.667 420.667 336 430 c 1
 360 438 379.667 442 377 442 c 1
 384.333 442 379 438.333 379 431 c 0
EndSplineSet
EndChar
StartChar: six
Encoding: 54 54 23
Width: 518
Flags: HMW
Fore
464 634 m 0
 464 630 461.106 619.558 407 583 c 0
 370 558 322.333 524 271 466 c 0
 214.333 402.667 161 352.667 161 316 c 0
 161 310.667 172 308 176 308 c 1
 170 308 167 308.667 167 310 c 0
 167 313.333 197 328.333 225 339 c 4
 265 354.333 261.333 354 274 354 c 0
 318.667 354 358.167 338.167 392.5 306.5 c 128
 426.833 274.833 444 237 444 193 c 0
 444 136.333 423.833 89.1667 383.5 51.5 c 128
 343.167 13.8333 294.333 -5 237 -5 c 0
 179 -5 133.333 15.3333 100 56 c 0
 69.3333 93.3333 54 141.667 54 201 c 0
 54 292.333 83.6667 376.333 143 453 c 0
 199 525.667 271 579.667 359 615 c 0
 407.667 634.333 438.667 644 452 644 c 0
 460 644 464 640.667 464 634 c 0
341.3 160.9 m 0
 341.3 224.289 315.049 294.1 258.9 294.1 c 0
 230.1 294.099 212.533 287.537 180 256 c 1
 175.199 250.6 159.7 220.6 159.7 196 c 0
 159.7 122.159 190.736 43.9004 257.3 43.9004 c 0
 284.5 43.9004 305.833 56.2002 321.3 80.7998 c 0
 334.634 101.8 341.3 128.5 341.3 160.9 c 0
EndSplineSet
EndChar
StartChar: seven
Encoding: 55 55 24
Width: 518
Flags: HMW
Fore
463 419 m 1
 396 299 396 299 311 142 c 0
 247 24.6667 192.667 -81 148 -175 c 0
 146 -179.667 141 -182 133 -182 c 0
 125.667 -182 95 -180 87 -176 c 128
 79 -172 75 -167 75 -161 c 1
 87 -138 87 -138 125 -67 c 0
 270.333 202.333 330 309.333 330 314 c 0
 330 324.667 325.667 330 317 330 c 2
 135 330 l 2
 117 330 94.667 316 68 288 c 1
 58.667 288 54 322.333 54 331 c 0
 54 324.333 62.6667 351.333 80 412 c 0
 82 419.333 86.3333 423.333 93 424 c 2
 404 425 l 1
 449 429 l 2
 458.333 429 463 425.667 463 419 c 1
EndSplineSet
EndChar
StartChar: eight
Encoding: 56 56 25
Width: 518
Flags: W
HStem: 417 20G<247.333 293>
VStem: 203 107<106 134>
Fore
420 293 m 0
 420 261 410.667 233 392 209 c 0
 388.667 204.333 374.167 190.833 348.5 168.5 c 128
 322.833 146.167 310 134.667 310 134 c 0
 310 132.667 322.167 120.333 346.5 97 c 128
 370.833 73.6667 384.667 59.6667 388 55 c 0
 408.667 25.6667 419 -8.66667 419 -48 c 0
 419 -92.6667 403.333 -129 372 -157 c 128
 340.667 -185 302.333 -199 257 -199 c 0
 212.333 -199 175.333 -187.333 146 -164 c 0
 114 -138.667 98 -104.333 98 -61 c 0
 98 -24.3333 110.333 9 135 39 c 0
 143.667 49.6667 158 63.3333 178 80 c 0
 194.667 94 203 102.667 203 106 c 0
 203 111.333 187.333 126 156 150 c 1
 117.333 188.667 98 231.333 98 278 c 0
 98 324.667 115 362.833 149 392.5 c 128
 183 422.167 223.667 437 271 437 c 0
 315 437 350.833 424 378.5 398 c 128
 406.167 372 420 337 420 293 c 0
334.5 292.75 m 0
 334.5 319.15 328.366 341.65 316.1 360.25 c 0
 302.233 381.25 284.1 391.75 261.7 391.75 c 0
 239.3 391.75 221.167 382.3 207.3 363.4 c 129
 185.844 344.361 185.441 322.131 186.5 296.35 c 1
 186.5 278.95 193.7 258.85 208.1 236.05 c 0
 220.9 216.25 234.9 200.5 250.1 188.8 c 128
 265.3 177.1 273.434 171.25 274.5 171.25 c 0
 278.767 171.25 284.634 175.15 292.1 182.95 c 0
 320.366 211.75 334.5 248.35 334.5 292.75 c 0
332.4 -66.3496 m 4
 332.4 -23.75 311.333 15.25 269.2 50.6504 c 4
 254.8 62.6504 246.533 68.6504 244.4 68.6504 c 4
 233.733 68.6504 221.467 56.3496 207.6 31.75 c 4
 191.6 2.9502 183.6 -24.6504 183.6 -51.0498 c 4
 183.6 -79.25 189.733 -102.65 202 -121.25 c 4
 215.866 -142.85 234.8 -153.65 258.8 -153.65 c 4
 281.733 -153.65 299.733 -145.7 312.8 -129.8 c 132
 325.866 -113.9 332.4 -92.75 332.4 -66.3496 c 4
EndSplineSet
EndChar
StartChar: nine
Encoding: 57 57 26
Width: 518
Flags: HMWO
Fore
452 229 m 0
 452 133.667 424.333 49.5 369 -23.5 c 128
 313.667 -96.5 240 -144.667 148 -168 c 0
 111.333 -177.333 89 -182 81 -182 c 0
 70.3333 -182 62 -174 62 -164 c 0
 62 -150.667 106 -122 148.4 -111.2 c 0
 189.312 -100.78 230.8 -73.4004 270.8 -19.4004 c 0
 308.667 31.5996 330.8 81.7002 337.2 130.9 c 0
 341.467 163.3 343.6 189.4 343.6 209.2 c 0
 343.6 247 338.267 280 327.6 308.2 c 0
 311.6 350.2 286.533 371.2 252.4 371.2 c 0
 225.733 371.2 205.2 361 190.8 340.6 c 128
 176.4 320.2 169.2 294.7 169.2 264.1 c 0
 169.2 236.5 173.467 210.1 182 184.9 c 0
 194.267 148.3 213.2 130 238.8 130 c 0
 244.667 130 253.066 131.95 264 135.85 c 128
 274.934 139.75 283.066 141.7 288.4 141.7 c 0
 294.8 141.7 298 138.1 298 130.9 c 0
 298 127.3 293.2 121.9 283.6 114.7 c 0
 264.934 100.9 243 90 213 90 c 0
 172.333 90 139.667 104.667 115 134 c 128
 90.3333 163.333 78 198.667 78 240 c 0
 78 296 96.5 342.333 133.5 379 c 128
 170.5 415.667 217.333 434 274 434 c 0
 333.333 434 378.667 414 410 374 c 0
 438 338 452 289.667 452 229 c 0
EndSplineSet
EndChar
StartChar: colon
Encoding: 58 58 27
Width: 276
Flags: MW
HStem: -18 165<114.5 160> 289 165<115 160>
Fore
137 147 m 0
 183 147 220 111 220 65 c 0
 220 18 183 -18 137 -18 c 0
 92 -18 55 19 55 65 c 0
 55 110 92 147 137 147 c 0
137 454 m 0
 183 454 220 417 220 372 c 0
 220 326 183 289 137 289 c 0
 92 289 55 326 55 372 c 0
 55 417 93 454 137 454 c 0
EndSplineSet
EndChar
StartChar: semicolon
Encoding: 59 59 28
Width: 276
Flags: W
HStem: 289 165<118 163>
VStem: 58 165<349 394.5> 158 74
Fore
125 148 m 0xa0
 188 148 232 96 232 21 c 0
 232 -26 214 -70 181 -102 c 0
 145 -138 98 -162 66 -162 c 0
 58 -162 51 -151 51 -137 c 0
 51 -130 51 -130 79 -122 c 0
 132 -106 158 -80 158 -43 c 0
 158 -26 152 -12 141 -4 c 0
 131 5 131 5 91 19 c 0
 61 30 49 47 49 77 c 0
 49 119 80 148 125 148 c 0xa0
140 454 m 0xc0
 186 454 223 417 223 372 c 0
 223 326 186 289 140 289 c 0
 95 289 58 326 58 372 c 0
 58 417 96 454 140 454 c 0xc0
EndSplineSet
EndChar
StartChar: less
Encoding: 60 60 29
Width: 996
Flags: W
Fore
797 616 m 1
 797 522 l 1
 321 309 l 1
 797 97 l 1
 797 2 l 1
 199 271 l 1
 199 348 l 1
 797 616 l 1
EndSplineSet
EndChar
StartChar: equal
Encoding: 61 61 30
Width: 830
Flags: MW
HStem: 124 81<170 657> 285 81<170 657>
Fore
157 134 m 2
 157 195 l 2
 157 202 161 205 170 205 c 2
 657 205 l 2
 666 205 670 202 670 195 c 2
 670 134 l 2
 670 127 666 124 657 124 c 2
 170 124 l 2
 161 124 157 127 157 134 c 2
157 295 m 2
 157 356 l 2
 157 363 161 366 170 366 c 2
 657 366 l 2
 666 366 670 363 670 356 c 2
 670 295 l 2
 670 288 666 285 657 285 c 2
 170 285 l 2
 161 285 157 288 157 295 c 2
EndSplineSet
EndChar
StartChar: greater
Encoding: 62 62 31
Width: 996
Flags: W
Fore
199 616 m 1
 797 348 l 1
 797 271 l 1
 199 2 l 1
 199 97 l 1
 675 309 l 1
 199 522 l 1
 199 616 l 1
EndSplineSet
EndChar
StartChar: question
Encoding: 63 63 32
Width: 387
Flags: MW
HStem: -18 165<128.5 174> 576 118
VStem: 69 165<42 87.5> 283 54
Fore
119 287 m 1
 115 370 l 1
 115 376 l 2
 115 386 117 389 126 390 c 0
 221 400 283 441 283 494 c 0
 283 539 239 576 185 576 c 0
 177 576 165 575 150 573 c 0
 137 571 124 570 116 570 c 0
 78 570 54 593 54 630 c 0
 54 670 82 694 126 694 c 0
 182 694 208 681 258 625 c 0
 315 561 337 506 337 427 c 0
 337 371 322 340 285 318 c 0
 264 305 253 301 190 282 c 0
 167 276 165 270 162 218 c 0
 161 199 160 198 138 198 c 0
 133 198 131 199 129 200 c 0
 124 205 120 245 119 287 c 1
151 147 m 0
 197 147 234 110 234 65 c 0
 234 19 197 -18 151 -18 c 0
 105 -18 69 19 69 65 c 0
 69 110 106 147 151 147 c 0
EndSplineSet
EndChar
StartChar: at
Encoding: 64 64 33
Width: 830
Flags: W
HStem: -157 76<378 438> -19 85<567 591.5> -9 55<332.5 352.5> 435 55<464 487> 568 76<423 557.5>
VStem: -10 108<151 242.5> 189 106<94 128> 749 80<300 402>
Fore
724 15 m 1xdf
 769 -17 l 1
 714 -61 689 -77 641 -99 c 0
 560 -137 477 -157 399 -157 c 0
 307 -157 215 -130 143 -82 c 0
 43 -16 -10 83 -10 203 c 0
 -10 445 204 644 464 644 c 0
 677 644 829 512 829 326 c 0
 829 155 684 -19 541 -19 c 0xdf
 500 -19 476 -2 461 41 c 1
 404 2 374 -9 331 -9 c 0x37
 249 -9 189 52 189 136 c 0
 189 217 227 316 287 391 c 0
 339 455 402 490 465 490 c 0
 509 490 537 472 573 420 c 1
 592 464 l 1
 692 464 l 1
 573 161 l 1
 549 94 549 94 549 86 c 0
 549 75 560 66 574 66 c 0
 609 66 658 98 692 144 c 0
 727 193 749 266 749 334 c 0
 749 470 636 568 479 568 c 0
 367 568 267 523 194 439 c 0
 130 365 98 286 98 199 c 0
 98 103 137 28 213 -23 c 0
 270 -61 341 -81 415 -81 c 0
 513 -81 604 -53 724 15 c 1xdf
480 435 m 0
 448 435 416 408 384 352 c 0
 335 268 295 155 295 101 c 0
 295 69 317 46 348 46 c 0x37
 379 46 415 76 446 129 c 0
 497 216 534 319 534 376 c 0
 534 410 511 435 480 435 c 0
EndSplineSet
EndChar
StartChar: A
Encoding: 65 65 34
Width: 756
Flags: W
HStem: -6 20 0 20 267 50<242 414>
Fore
437 267 m 1xa0
 226 267 l 1
 183 142 l 1
 172 108 166 84 166 73 c 0
 166 45 183 36 243 32 c 0
 250 32 251 29 251 19 c 2
 251 6 l 2
 251 -5 250 -6 240 -6 c 0xa0
 232 -6 208 -5 186 -3 c 0
 162 -1 135 0 114 0 c 0x40
 92 0 80 -1 66 -2 c 0
 45 -4 27 -6 21 -6 c 0xa0
 12 -6 10 -4 10 4 c 2
 10 20 l 2x40
 10 31 10 31 35 33 c 0
 90 40 91 42 158 232 c 2
 204 363 l 1
 271 560 l 2
 278 580 290 618 295 638 c 0
 303 665 305 668 337 691 c 2
 374 718 l 2
 385 725 385 725 386 725 c 0
 389 725 391 722 396 709 c 2
 634 122 l 1
 666 46 677 34 720 31 c 0
 735 31 738 30 738 19 c 2
 738 6 l 2
 738 -3 734 -6 723 -6 c 0xa0
 716 -6 687 -4 659 -2 c 0
 638 -1 614 0 596 0 c 0x40
 569 0 547 -1 517 -3 c 0
 487 -4 453 -6 446 -6 c 0
 437 -6 436 -4 436 6 c 2
 436 21 l 2
 436 33 437 33 458 34 c 0
 492 35 511 48 511 70 c 0
 511 83 496 127 473 181 c 2
 437 267 l 1xa0
414 317 m 1
 320 544 l 1
 242 317 l 1
 414 317 l 1
EndSplineSet
KernsSLIF: 121 -71 0 0 119 -65 0 0 118 -69 0 0 117 -24 0 0 116 -17 0 0 39 -84 0 0 186 -81 0 0 113 -21 0 0 46 7 0 0 111 -30 0 0 45 -3 0 0 172 -57 0 0 171 -53 0 0 103 3 0 0 101 -15 0 0 100 -17 0 0 44 10 0 0 293 -20 0 0 99 -16 0 0 98 -7 0 0 97 2 0 0 89 -67 0 0 87 -111 0 0 86 -114 0 0 281 -56 0 0 279 -56 0 0 282 -56 0 0 280 -56 0 0 85 -56 0 0 84 -55 0 0 81 -60 0 0 273 -59 0 0 79 -59 0 0 71 -59 0 0 262 -58 0 0 67 -58 0 0
EndChar
StartChar: B
Encoding: 66 66 35
Width: 664
Flags: W
HStem: -6 45<352 392.5> 0 20 651 45<330 357> 669 20<180.5 200> 675 20<35.5 44>
VStem: 114 133<133 160 160 347 392 556 556 561> 439 145<507 564> 486 145<136.5 230>
Fore
31 667 m 2x45
 31 684 l 2
 31 693 33 695 38 695 c 0x0e
 50 695 66 694 85 693 c 0
 112 691 170 689 191 689 c 0x16
 209 689 236 690 272 693 c 0
 300 695 323 696 337 696 c 0
 407 696 468 683 515 656 c 0
 561 631 584 591 584 537 c 0xa6
 584 477 555 433 499 408 c 0
 469 395 449 389 396 377 c 1
 459 363 472 360 499 352 c 0
 587 325 631 271 631 189 c 0
 631 72 523 -6 362 -6 c 0xa5
 342 -6 304 -5 265 -3 c 0
 232 -1 205 0 184 0 c 0
 156 0 103 -2 85 -3 c 0
 64 -5 46 -6 38 -6 c 0
 32 -6 30 -4 30 5 c 2
 30 22 l 2
 30 33 30 33 47 34 c 0
 104 36 114 51 114 133 c 2
 114 556 l 2
 114 638 104 653 48 655 c 0
 31 656 31 656 31 667 c 2x45
247 392 m 1
 279 392 l 2
 388 392 439 436 439 531 c 0
 439 613 400 651 314 651 c 0xa6
 259 651 247 635 247 561 c 2
 247 392 l 1
247 347 m 1
 247 160 l 2
 247 66 268 39 344 39 c 0
 441 39 486 86 486 187 c 0xa5
 486 302 427 347 278 347 c 2
 247 347 l 1
EndSplineSet
KernsSLIF: 89 -26 0 0 87 -24 0 0 86 -22 0 0 233 5 0 0 275 2 0 0 273 2 0 0 276 2 0 0 274 2 0 0 79 2 0 0 260 -20 0 0 261 -20 0 0 256 -20 0 0 259 -20 0 0 257 -20 0 0 225 -12 0 0 65 -20 0 0
EndChar
StartChar: C
Encoding: 67 67 36
Width: 756
Flags: MW
HStem: -18 49<430 494.5> 665 49<394.5 491>
VStem: 36 141<313 406.5>
Fore
682 648 m 1
 700 522 l 1
 700 517 l 2
 700 514 700 514 692 511 c 2
 676 507 l 2
 670 505 668 505 666 505 c 0
 663 505 663 505 653 521 c 0
 584 635 541 665 449 665 c 0
 293 665 177 533 177 356 c 0
 177 270 207 186 261 124 c 1
 312 63 386 31 474 31 c 0
 549 31 595 53 633 106 c 0
 647 125 647 125 674 179 c 0
 679 189 681 191 683 191 c 0
 684 191 690 189 695 188 c 2
 713 182 l 2
 721 179 722 178 722 174 c 0
 722 171 722 171 719 160 c 2
 687 32 l 1
 604 -4 537 -18 452 -18 c 0
 203 -18 36 130 36 351 c 0
 36 462 80 552 167 620 c 0
 245 681 344 714 445 714 c 0
 537 714 624 690 682 648 c 1
EndSplineSet
KernsSLIF: 273 -4 0 0 274 -4 0 0 79 -4 0 0 75 -6 0 0 72 -7 0 0 261 1 0 0 256 1 0 0 257 1 0 0 225 9 0 0 65 1 0 0
EndChar
StartChar: D
Encoding: 68 68 37
Width: 830
Flags: W
HStem: -6 44<352 417.5> 0 20 666 44<335 401>
VStem: 119 133<133 147 147 550 550 574> 647 145<294 393.5>
Fore
119 133 m 2x58
 119 550 l 2
 119 641 116 645 50 645 c 0
 37 645 36 646 35 656 c 1
 34 668 l 1
 33 674 l 1
 33 691 191 710 341 710 c 0
 461 710 567 684 646 636 c 0
 740 578 792 476 792 349 c 0
 792 239 754 154 675 90 c 0
 593 23 492 -6 343 -6 c 0xb8
 304 -6 263 -5 214 -2 c 0
 198 -1 186 0 179 0 c 0
 173 0 159 -1 139 -2 c 2
 98 -3 l 1
 67 -5 l 2
 53 -6 42 -6 36 -6 c 0
 30 -6 29 -4 29 5 c 2
 29 22 l 2
 29 33 29 33 46 34 c 0
 110 36 119 48 119 133 c 2x58
252 574 m 2
 252 147 l 2
 252 102 256 86 270 70 c 0
 289 50 328 38 376 38 c 0
 535 38 647 165 647 347 c 0
 647 440 617 525 564 584 c 0
 514 640 448 666 360 666 c 0
 310 666 277 657 263 638 c 0
 253 626 252 618 252 574 c 2
EndSplineSet
KernsSLIF: 89 -51 0 0 88 -48 0 0 87 -49 0 0 86 -47 0 0 84 -10 0 0 74 -17 0 0 260 -55 0 0 261 -55 0 0 258 -55 0 0 256 -55 0 0 259 -55 0 0 257 -55 0 0 65 -55 0 0
EndChar
StartChar: E
Encoding: 69 69 38
Width: 627
Flags: W
HStem: -6 20 0 20 347 45<245 325> 669 20<216.5 238> 675 20<30 36 512 512> 676 20<526.5 534>
VStem: 112 133<133 134 134 347 392 557 557 558>
Fore
245 392 m 1x26
 325 392 l 2
 403 392 419 402 432 460 c 0
 436 477 436 477 445 477 c 2
 456 477 l 2
 468 477 470 474 470 465 c 2
 470 460 l 2
 470 457 470 452 469 446 c 1
 469 410 l 1
 468 383 468 365 468 357 c 0
 468 347 468 334 469 323 c 1
 470 288 l 1
 470 270 l 1
 470 265 l 2
 470 255 470 254 456 254 c 2
 441 254 l 2
 430 254 429 257 429 273 c 0
 430 297 425 318 416 330 c 0
 405 345 394 347 325 347 c 2
 245 347 l 1
 245 134 l 2
 245 84 248 70 260 57 c 1
 275 43 290 39 339 39 c 2
 442 39 l 2
 497 39 503 42 532 87 c 2
 553 120 l 1
 575 150 575 150 581 150 c 0
 584 150 588 149 592 148 c 2
 608 145 l 2
 618 143 620 141 620 137 c 0
 620 134 620 134 614 118 c 1
 577 3 l 1
 575 -5 574 -6 568 -6 c 0xa2
 565 -6 555 -6 546 -5 c 2
 419 -4 l 1
 293 -1 l 2
 261 0 236 0 219 0 c 0x42
 187 0 85 -3 60 -5 c 2
 29 -6 l 2
 23 -6 22 -4 22 5 c 2
 22 22 l 2
 22 34 22 34 39 34 c 0
 103 36 112 48 112 133 c 2
 112 557 l 2
 112 640 102 654 43 656 c 0
 26 657 26 657 26 667 c 2
 26 684 l 2
 26 693 27 695 33 695 c 0x8a
 39 695 48 695 60 694 c 0
 77 693 203 689 230 689 c 0x12
 246 689 270 689 300 690 c 2
 372 692 l 1
 512 695 l 2x8a
 519 696 525 696 528 696 c 0
 540 696 542 694 542 678 c 1
 541 620 l 1
 542 567 l 1
 543 561 543 554 543 553 c 0
 543 543 541 542 531 542 c 2
 515 542 l 2
 505 542 504 543 503 560 c 0
 501 590 493 618 480 632 c 0
 467 646 447 651 394 651 c 2
 321 651 l 2
 250 651 245 645 245 558 c 2
 245 392 l 1x26
EndSplineSet
EndChar
StartChar: F
Encoding: 70 70 39
Width: 627
Flags: W
HStem: -6 20 0 20 346 45<261 393> 649 40 675 20<41 44> 676 20<570 578>
VStem: 128 133<133 346 391 556 556 570>
Fore
261 346 m 1x32
 261 133 l 2
 261 47 270 36 338 34 c 0
 354 33 355 33 355 22 c 2
 355 5 l 2
 355 -3 353 -6 348 -6 c 0xa2
 341 -6 328 -5 313 -4 c 0
 298 -2 225 0 194 0 c 0x42
 162 0 91 -2 76 -4 c 0
 62 -5 50 -6 43 -6 c 0
 38 -6 36 -3 36 5 c 2
 36 22 l 2
 36 33 37 33 53 34 c 0
 119 36 128 48 128 133 c 2
 128 556 l 2
 128 641 119 653 53 655 c 0
 37 656 36 656 36 667 c 2
 36 684 l 2
 36 693 38 695 44 695 c 2x8a
 76 694 l 1
 182 690 l 1
 243 689 l 2x12
 249 689 293 690 349 691 c 2
 467 692 l 1
 547 694 l 2
 557 695 567 696 573 696 c 0x06
 583 696 587 692 587 684 c 1
 585 620 l 1
 585 613 585 604 586 588 c 1
 587 549 l 1
 587 540 584 537 575 537 c 2
 562 537 l 2
 552 537 552 537 546 556 c 0
 523 621 515 632 481 641 c 0
 464 645 405 649 353 649 c 0
 307 649 282 642 270 625 c 0
 262 615 261 606 261 570 c 2
 261 391 l 1
 393 391 l 2
 472 391 486 399 494 450 c 0
 496 467 497 467 508 467 c 2
 520 467 l 2
 530 467 533 464 533 454 c 0
 533 449 532 431 530 410 c 0
 529 399 528 385 528 369 c 0
 528 341 528 341 533 272 c 1
 533 266 l 2
 533 257 530 254 522 254 c 2
 508 254 l 2
 494 254 493 255 489 272 c 0
 476 326 451 346 393 346 c 2
 261 346 l 1x32
EndSplineSet
KernsSLIF: 117 -22 0 0 114 -32 0 0 46 -55 0 0 249 -28 0 0 250 -29 0 0 303 -29 0 0 304 -29 0 0 111 -29 0 0 106 -17 0 0 105 -19 0 0 45 10 0 0 295 -24 0 0 101 -24 0 0 44 -52 0 0 292 -30 0 0 241 -29 0 0 287 -11 0 0 288 -30 0 0 97 -30 0 0 273 -14 0 0 79 -14 0 0 74 7 0 0 260 -66 0 0 261 -66 0 0 258 -66 0 0 256 -66 0 0 259 -66 0 0 257 -66 0 0 65 -66 0 0
EndChar
StartChar: G
Encoding: 71 71 40
Width: 812
Flags: MW
HStem: -18 49<404.5 470.5> 665 49<407 498.5>
VStem: 39 145<302 384> 597 112<171.5 213>
Fore
698 649 m 1
 703 580 l 1
 706 545 l 1
 707 527 l 1
 708 523 708 519 708 517 c 0
 708 511 705 510 697 510 c 2
 680 510 l 2
 671 510 671 510 656 539 c 0
 613 625 547 665 451 665 c 0
 363 665 289 629 246 566 c 0
 207 509 184 425 184 343 c 0
 184 261 207 191 251 131 c 0
 302 63 364 31 445 31 c 0
 496 31 539 46 565 72 c 0
 587 94 597 129 597 178 c 0
 597 248 574 272 506 272 c 0
 505 272 497 272 488 271 c 2
 479 271 l 2
 468 271 464 274 464 284 c 2
 464 298 l 2
 464 309 467 311 483 311 c 0
 494 311 532 310 551 309 c 0
 590 308 614 307 626 307 c 2
 756 311 l 2
 762 312 767 312 770 312 c 0
 779 312 783 308 783 298 c 2
 783 284 l 2
 783 272 781 271 767 271 c 0
 720 272 709 256 709 188 c 0
 709 155 712 82 714 43 c 1
 633 2 547 -18 449 -18 c 0
 201 -18 39 121 39 335 c 0
 39 553 215 714 454 714 c 0
 543 714 618 694 698 649 c 1
EndSplineSet
KernsSLIF: 89 -19 0 0 87 -21 0 0 86 -18 0 0 84 -17 0 0 260 -18 0 0 261 -18 0 0 258 -18 0 0 256 -18 0 0 259 -18 0 0 257 -18 0 0 225 -10 0 0 65 -18 0 0
EndChar
StartChar: H
Encoding: 72 72 41
Width: 885
Flags: W
HStem: -6 20 0 20 341 51<252 629> 669 20<179.5 189.5 689.5 699.5> 675 20<33 39 331.5 338 543 549 841.5 848>
VStem: 119 133<133 341 392 556> 629 133<133 341 341 341 392 556>
Fore
252 392 m 1x2e
 629 392 l 1
 629 556 l 2
 629 641 620 653 556 655 c 0
 539 656 539 656 539 667 c 2
 539 684 l 2
 539 693 540 695 546 695 c 0x2e
 552 695 579 694 649 690 c 0
 668 689 683 689 696 689 c 0x16
 703 689 743 691 814 694 c 0
 828 695 838 695 845 695 c 0
 851 695 852 693 852 684 c 2
 852 667 l 2
 852 656 852 656 835 655 c 0
 771 654 762 641 762 556 c 2
 762 133 l 2
 762 48 771 36 835 34 c 0
 852 33 852 33 852 22 c 2
 852 5 l 2
 852 -4 851 -6 845 -6 c 0x8e
 839 -6 811 -5 743 -1 c 0
 724 0 708 0 696 0 c 0x46
 688 0 648 -2 577 -5 c 0
 563 -6 553 -6 546 -6 c 0
 540 -6 539 -4 539 5 c 2
 539 22 l 2
 539 33 539 33 556 34 c 0
 620 36 629 48 629 133 c 2
 629 341 l 1
 252 341 l 1
 252 133 l 2
 252 48 261 36 325 34 c 0
 342 33 342 33 342 22 c 2
 342 5 l 2
 342 -4 341 -6 335 -6 c 0xa6
 329 -6 300 -5 233 -1 c 0
 214 0 198 0 186 0 c 0x46
 178 0 138 -2 67 -5 c 0
 53 -6 43 -6 36 -6 c 0
 30 -6 29 -4 29 5 c 2
 29 22 l 2
 29 33 29 33 46 34 c 0
 110 36 119 48 119 133 c 2
 119 556 l 2
 119 641 110 653 46 655 c 0
 29 656 29 656 29 667 c 2
 29 684 l 2
 29 693 30 695 36 695 c 0x8e
 42 695 70 694 138 690 c 0
 157 689 173 689 186 689 c 0x16
 193 689 233 691 304 694 c 0
 318 695 328 695 335 695 c 0
 341 695 342 693 342 684 c 2
 342 667 l 2
 342 656 342 656 325 655 c 0
 261 653 252 641 252 556 c 2
 252 392 l 1x2e
EndSplineSet
EndChar
StartChar: I
Encoding: 73 73 42
Width: 387
Flags: W
HStem: -6 20 0 20 669 20<185 200> 675 20<34.5 40.5 341.5 348>
VStem: 125 133<133 556>
Fore
125 133 m 2x98
 125 556 l 2
 125 640 115 654 52 655 c 0
 31 655 31 655 31 667 c 2
 31 684 l 2
 31 693 32 695 37 695 c 0x18
 44 695 96 693 144 690 c 0
 163 689 179 689 191 689 c 0x28
 209 689 214 689 271 692 c 0
 281 692 296 693 315 694 c 0
 328 695 338 695 345 695 c 0
 351 695 352 693 352 684 c 2
 352 667 l 2
 352 655 352 655 331 655 c 0
 268 654 258 640 258 556 c 2
 258 133 l 2
 258 47 267 36 335 34 c 0
 352 33 352 33 352 22 c 2
 352 5 l 2
 352 -4 351 -6 345 -6 c 0x98
 339 -6 287 -4 239 -1 c 0
 220 0 204 0 192 0 c 0x48
 184 0 144 -2 72 -5 c 0
 58 -6 46 -6 38 -6 c 0
 32 -6 31 -4 31 5 c 2
 31 22 l 2
 31 33 31 33 48 34 c 0
 116 35 125 47 125 133 c 2x98
EndSplineSet
EndChar
StartChar: J
Encoding: 74 74 43
Width: 369
Flags: W
HStem: -235 55<76 87.5> 669 20<173.5 201.5> 675 20<31.5 37.5 335 340.5>
VStem: 121 133<-16.5 85 85 556>
Fore
254 556 m 2xb0
 254 85 l 2
 254 -118 173 -235 34 -235 c 0
 -28 -235 -66 -209 -66 -167 c 0
 -66 -133 -37 -104 -2 -104 c 0
 26 -104 35 -112 54 -157 c 0
 61 -173 70 -180 82 -180 c 0
 93 -180 104 -173 111 -162 c 0
 120 -147 121 -137 121 -92 c 2
 121 556 l 2
 121 642 112 653 44 655 c 0
 28 656 27 656 27 667 c 2
 27 684 l 2
 27 693 29 695 34 695 c 0xb0
 41 695 54 694 68 693 c 0
 84 691 159 689 188 689 c 0x50
 215 689 293 692 307 693 c 0
 320 694 332 695 338 695 c 0
 343 695 344 693 344 684 c 2
 344 667 l 2
 344 656 344 656 327 655 c 0
 263 653 254 641 254 556 c 2xb0
EndSplineSet
KernsSLIF: 261 -23 0 0 256 -23 0 0 225 -15 0 0 65 -23 0 0
EndChar
StartChar: K
Encoding: 75 75 44
Width: 738
Flags: W
HStem: -6 20 0 20 669 20 675 20<32 41.5 323.5 332.5 408.5 414 648.5 654>
VStem: 116 133<133 323 380 556>
Fore
297 365 m 1xa8
 249 323 l 1
 249 133 l 2
 249 50 259 36 318 34 c 0
 335 33 335 33 335 22 c 2
 335 5 l 2
 335 -3 334 -6 328 -6 c 0xa8
 315 -6 299 -5 278 -4 c 0
 258 -2 199 0 182 0 c 0x48
 166 0 109 -2 87 -4 c 0
 65 -5 48 -6 34 -6 c 0
 29 -6 27 -4 27 5 c 2
 27 22 l 2
 27 33 27 33 44 34 c 0
 106 36 116 49 116 133 c 2
 116 556 l 2
 116 640 106 653 45 655 c 0
 28 656 28 656 28 667 c 2
 28 684 l 2
 28 693 29 695 35 695 c 0x98
 48 695 65 694 87 693 c 0
 109 691 166 689 182 689 c 0x28
 199 689 257 691 278 693 c 0
 300 694 317 695 330 695 c 0x98
 335 695 337 693 337 684 c 2
 337 667 l 2
 337 656 337 656 320 655 c 0
 259 653 249 640 249 556 c 2
 249 380 l 1
 257 386 l 1
 275 402 l 2
 333 451 420 540 462 592 c 0
 474 608 482 623 482 632 c 0
 482 648 461 655 417 655 c 0
 404 654 402 656 402 669 c 2x28
 402 684 l 2
 402 692 405 695 412 695 c 0x98
 416 695 416 695 463 691 c 0
 484 690 503 689 514 689 c 0x28
 525 689 533 689 634 694 c 0
 641 695 648 695 649 695 c 0x98
 659 695 662 692 662 684 c 2
 662 669 l 2
 662 654 661 653 620 654 c 1
 584 652 572 645 532 603 c 2
 400 462 l 1
 631 109 l 1
 670 48 688 36 738 33 c 0
 744 33 745 31 745 22 c 2
 745 8 l 2
 745 -4 744 -6 733 -6 c 2xa8
 552 0 l 2x48
 540 0 465 -4 442 -5 c 0
 436 -6 431 -6 427 -6 c 0
 417 -6 415 -4 415 8 c 2
 415 22 l 2
 415 34 418 35 447 35 c 0
 477 35 489 41 489 56 c 0
 489 64 486 71 464 104 c 1
 297 365 l 1xa8
EndSplineSet
KernsSLIF: 121 -69 0 0 309 -9 0 0 117 -9 0 0 303 -15 0 0 304 -15 0 0 111 -15 0 0 45 -10 0 0 292 16 0 0 241 16 0 0 287 16 0 0 97 16 0 0 84 -10 0 0 83 15 0 0 273 -47 0 0 274 -47 0 0 234 -46 0 0 79 -47 0 0 71 -48 0 0 67 -50 0 0
EndChar
StartChar: L
Encoding: 76 76 45
Width: 608
Flags: W
HStem: -6 20 -3 20 0 20 669 20<169.5 205.5> 675 20<30.5 37 334.5 340>
VStem: 121 133<133 140 140 556>
Fore
121 133 m 2x84
 121 556 l 2
 121 643 112 654 42 655 c 0
 26 656 25 656 25 667 c 2
 25 684 l 2
 25 693 27 695 34 695 c 0x0c
 40 695 54 694 68 693 c 0
 99 691 151 689 188 689 c 0x14
 223 689 282 691 304 693 c 0
 318 694 332 695 337 695 c 0
 343 695 345 693 345 684 c 2
 345 667 l 2
 345 656 344 656 328 655 c 0
 263 653 254 641 254 556 c 2
 254 140 l 2
 254 91 258 76 272 62 c 0
 289 47 323 40 387 40 c 0
 477 40 505 55 544 124 c 2
 558 149 l 2
 563 158 565 160 568 160 c 0
 570 160 570 160 579 158 c 2
 593 154 l 2
 606 151 606 151 606 146 c 0
 606 140 606 140 591 82 c 2
 571 6 l 2
 569 -2 568 -3 561 -3 c 0x4c
 559 -3 553 -3 548 -2 c 0
 532 -1 370 0 274 0 c 0x24
 221 0 125 -2 72 -5 c 0
 58 -6 45 -6 37 -6 c 0
 30 -6 29 -4 29 5 c 2
 29 22 l 2
 29 33 29 33 46 34 c 0
 112 35 121 47 121 133 c 2x84
EndSplineSet
KernsSLIF: 121 -38 0 0 309 -6 0 0 117 -6 0 0 39 -87 0 0 186 -84 0 0 45 45 0 0 89 -74 0 0 87 -96 0 0 86 -93 0 0 279 -18 0 0 85 -18 0 0 84 -62 0 0 83 16 0 0 277 -2 0 0 275 -2 0 0 273 -2 0 0 276 -2 0 0 274 -2 0 0 79 -2 0 0 71 -2 0 0 262 -2 0 0 67 -4 0 0 261 20 0 0 256 20 0 0 257 20 0 0 225 28 0 0 65 20 0 0
EndChar
StartChar: M
Encoding: 77 77 46
Width: 940
Flags: W
HStem: -23 20 -6 20 0 20 669 20<138 147 770.5 790> 675 20<882 893> 676 20<20.5 24.5 248 248 666 666>
VStem: 691 129<150 421 421 467>
Fore
465 226 m 1x26
 645 634 l 2
 657 662 662 676 666 696 c 1x26
 685 694 l 1
 729 691 l 2
 743 690 761 689 780 689 c 0
 800 689 818 690 834 691 c 0
 857 694 876 695 888 695 c 0
 898 695 902 691 902 681 c 2
 902 667 l 2
 902 656 899 654 881 654 c 0
 860 654 843 651 834 645 c 0
 822 637 820 628 820 585 c 2
 820 133 l 2
 820 48 829 36 895 34 c 0
 912 33 912 33 912 22 c 2
 912 5 l 2
 912 -4 911 -6 905 -6 c 0x4a
 897 -6 884 -5 868 -4 c 0
 850 -3 763 0 734 0 c 0x22
 704 0 672 -1 631 -4 c 0
 616 -5 605 -6 603 -6 c 0x4a
 595 -6 594 -4 594 4 c 2
 594 16 l 2
 594 31 596 34 607 33 c 0
 642 32 665 36 674 45 c 0
 686 57 691 87 691 150 c 2
 691 421 l 2
 691 513 690 552 688 596 c 1
 658 531 l 1
 592 394 514 196 459 25 c 0
 444 -23 444 -23 427 -23 c 0x82
 411 -23 407 -22 404 -20 c 0
 401 -17 401 -17 388 23 c 0
 378 58 329 186 310 230 c 2
 170 549 l 1
 149 167 l 2
 148 148 147 124 147 117 c 0
 147 67 169 42 218 37 c 0
 246 34 248 33 248 24 c 2
 248 6 l 2
 248 -4 245 -6 231 -6 c 0x4a
 227 -6 212 -5 194 -3 c 0
 168 -1 149 0 142 0 c 2xa2
 55 -4 l 2
 49 -5 44 -5 38 -5 c 0
 29 -6 25 -6 24 -6 c 0x4a
 13 -6 9 -3 9 6 c 2
 9 20 l 2
 9 34 10 34 42 35 c 0
 65 36 84 42 90 51 c 0
 95 60 104 158 108 256 c 0
 113 406 114 424 114 424 c 1
 119 565 l 1
 119 631 96 654 27 654 c 0
 17 654 16 656 16 666 c 2
 16 684 l 2
 16 693 18 696 23 696 c 0x26
 26 696 43 695 138 689 c 0x12
 156 689 164 690 248 696 c 1
 465 226 l 1x26
EndSplineSet
EndChar
StartChar: N
Encoding: 78 78 47
Width: 848
Flags: W
HStem: -6 20 0 20 669 20<118.5 128 736 744.5> 675 20<601.5 609.5 820.5 826.5> 676 20<21 28 236.5 245>
VStem: 126 59<148 499 499 516> 684 59<269 547>
Fore
379 540 m 1x8e
 680 192 l 1
 683 210 684 234 684 269 c 2
 684 556 l 2
 684 609 683 618 675 632 c 0
 666 646 644 654 613 654 c 0
 592 654 591 654 591 667 c 2
 591 679 l 2
 591 691 595 695 608 695 c 0x96
 611 695 666 692 736 689 c 0x26
 753 689 762 690 810 694 c 0
 815 695 819 695 822 695 c 0
 831 695 833 692 833 679 c 2
 833 667 l 2
 833 656 830 654 816 654 c 0
 757 655 743 635 743 547 c 2
 743 88 l 2
 743 65 743 22 744 3 c 1
 744 -12 l 2
 744 -20 741 -23 732 -23 c 2
 721 -23 l 2
 696 -23 692 -21 680 -10 c 0
 666 4 649 23 618 58 c 2
 214 527 l 2
 202 541 194 548 191 548 c 0
 187 548 185 540 185 516 c 2
 185 148 l 2
 185 85 189 64 203 48 c 0
 216 35 224 34 273 33 c 0
 280 33 282 30 282 21 c 2
 282 6 l 2
 282 -4 280 -6 270 -6 c 0x96
 266 -6 261 -6 255 -5 c 0
 238 -4 172 0 166 0 c 0x46
 151 0 130 -1 99 -3 c 0
 72 -5 55 -6 41 -6 c 0
 26 -6 23 -3 23 9 c 2
 23 21 l 2
 23 31 26 34 35 34 c 0
 109 33 126 54 126 148 c 2
 126 499 l 2
 126 578 120 614 104 634 c 0
 93 647 66 655 35 654 c 0
 15 654 13 655 13 667 c 2
 13 679 l 2
 13 692 16 696 26 696 c 0x8e
 30 696 30 696 65 693 c 0
 92 690 113 689 124 689 c 0x26
 132 689 143 690 221 695 c 0x96
 227 696 235 696 238 696 c 0
 252 696 255 694 269 670 c 1
 379 540 l 1x8e
EndSplineSet
KernsSLIF: 309 -17 0 0 117 -17 0 0 46 2 0 0 249 -8 0 0 303 -12 0 0 304 -12 0 0 111 -12 0 0 295 -2 0 0 101 -2 0 0 44 5 0 0 292 -12 0 0 241 -9 0 0 288 -12 0 0 97 -8 0 0 273 -5 0 0 274 -5 0 0 79 -5 0 0 71 -6 0 0 262 -8 0 0 67 -4 0 0 261 -16 0 0 256 -16 0 0 257 -16 0 0 225 -8 0 0 65 -16 0 0
EndChar
StartChar: O
Encoding: 79 79 48
Width: 867
Flags: MW
HStem: -18 48<371.5 481> 666 48<341 452>
VStem: 38 145<289 448> 678 145<269.5 358.5>
Fore
430 714 m 0
 656 714 823 564 823 360 c 0
 823 144 649 -18 415 -18 c 0
 191 -18 38 128 38 342 c 0
 38 554 207 714 430 714 c 0
412 666 m 0
 270 666 183 562 183 393 c 0
 183 185 296 30 447 30 c 0
 515 30 580 62 622 116 c 0
 659 164 678 229 678 310 c 0
 678 407 652 500 608 564 c 0
 564 629 492 666 412 666 c 0
EndSplineSet
KernsSLIF: 89 -54 0 0 88 -51 0 0 87 -52 0 0 86 -50 0 0 84 -14 0 0 261 -58 0 0 256 -58 0 0 257 -58 0 0 225 -59 0 0 65 -58 0 0
EndChar
StartChar: P
Encoding: 80 80 49
Width: 627
Flags: W
HStem: -6 20 0 20 665 44<308 329.5>
VStem: 122 133<133 575 575 584> 446 145<453 530>
Fore
122 133 m 2xb8
 122 575 l 2
 122 642 115 654 77 654 c 2
 54 653 l 2
 51 652 47 652 45 652 c 0
 35 652 31 658 31 675 c 0
 31 681 32 684 35 686 c 0
 48 696 194 709 288 709 c 0
 371 709 449 690 505 656 c 0
 562 622 591 566 591 494 c 0
 591 412 553 356 477 324 c 0
 441 310 395 301 352 301 c 0
 314 301 305 305 305 324 c 0
 305 344 308 346 329 345 c 0
 409 344 446 391 446 494 c 0
 446 605 402 665 321 665 c 0
 295 665 276 658 266 646 c 0
 256 634 255 627 255 584 c 2
 255 133 l 2
 255 46 263 36 335 34 c 0
 352 33 352 33 352 22 c 2
 352 5 l 2
 352 -4 350 -6 344 -6 c 2
 343 -6 l 2xb8
 283 -2 229 0 189 0 c 0x58
 152 0 84 -2 69 -4 c 0
 57 -5 47 -6 41 -6 c 0
 36 -6 34 -4 34 5 c 2
 34 22 l 2
 34 33 34 33 51 34 c 0
 112 36 122 49 122 133 c 2xb8
EndSplineSet
KernsSLIF: 46 -87 0 0 249 -42 0 0 250 -39 0 0 303 -40 0 0 304 -40 0 0 111 -40 0 0 45 -28 0 0 295 -34 0 0 101 -34 0 0 44 -83 0 0 292 -33 0 0 241 -28 0 0 287 -22 0 0 288 -34 0 0 97 -31 0 0 74 -25 0 0 261 -79 0 0 256 -79 0 0 257 -79 0 0 225 -94 0 0 65 -79 0 0
EndChar
StartChar: Q
Encoding: 81 81 50
Width: 867
Flags: MW
HStem: 666 48
VStem: 40 145 680 145<276.5 358>
Fore
409 -18 m 1
 192 -14 40 131 40 336 c 1
 26 578 207 712 432 714 c 1
 658 714 825 564 825 360 c 0
 825 193 721 53 559 3 c 1
 559 -8 607 -26 656 -52 c 0
 870 -168 1189 -303 1459 -303 c 0
 1545 -303 1603 -286 1682 -267 c 1
 1691 -267 1696 -270 1696 -276 c 0
 1696 -282 1684 -291 1660 -302 c 0
 1609 -326 1549 -339 1478 -341 c 2
 1404 -343 l 2
 1253 -347 1034 -294 923 -256 c 0
 765 -200 598 -127 409 -18 c 1
40 336 m 0
 40 336 l 0
414 666 m 0
 272 666 185 562 185 393 c 0
 185 302 206 222 248 153 c 0
 297 73 367 30 450 30 c 0
 518 30 582 62 624 116 c 0
 661 164 680 229 680 309 c 0
 680 407 654 500 610 564 c 0
 566 629 494 665 414 666 c 0
EndSplineSet
EndChar
StartChar: R
Encoding: 82 82 51
Width: 738
Flags: W
HStem: -6 20 0 20 649 40 675 20<32.5 36>
VStem: 119 133<133 145 145 346 392 556 556 557> 442 145<504 560>
Fore
252 346 m 1x9c
 252 145 l 2
 252 67 272 34 318 34 c 0
 335 34 337 33 337 22 c 2
 337 10 l 2
 337 -5 335 -6 320 -6 c 0xac
 312 -6 288 -5 267 -3 c 0
 239 -1 216 0 203 0 c 0x4c
 195 0 173 -1 143 -2 c 2
 96 -4 l 1
 67 -5 l 2
 52 -6 41 -6 32 -6 c 0
 27 -6 25 -4 25 5 c 2
 25 22 l 2
 25 33 26 33 42 34 c 0
 110 36 119 47 119 133 c 2
 119 556 l 2
 119 641 110 653 45 655 c 0
 28 656 28 656 28 667 c 2
 28 684 l 2
 28 692 30 695 35 695 c 0x9c
 37 695 115 692 164 690 c 0
 182 689 197 689 211 689 c 0xac
 231 689 261 690 298 693 c 0
 328 695 355 696 374 696 c 0
 499 696 587 627 587 530 c 0
 587 478 560 434 513 410 c 0
 489 398 471 391 428 381 c 1
 461 356 486 325 526 263 c 1
 617 118 l 1
 652 59 677 39 724 33 c 1
 741 33 741 33 741 22 c 2
 741 3 l 2
 741 -4 740 -6 734 -6 c 0x9c
 731 -6 727 -6 723 -5 c 0
 703 -3 651 0 629 0 c 0x4c
 617 0 604 -1 590 -3 c 0
 574 -5 561 -6 554 -6 c 0
 533 -6 527 0 499 48 c 2
 370 274 l 1
 332 339 323 345 252 346 c 1x9c
252 557 m 2
 252 392 l 1
 267 391 274 391 286 391 c 0
 386 391 442 437 442 520 c 0
 442 600 395 649 319 649 c 0
 292 649 272 641 263 627 c 0
 254 614 252 600 252 557 c 2
EndSplineSet
KernsSLIF: 121 -53 0 0 309 -12 0 0 310 -12 0 0 117 -12 0 0 250 -17 0 0 303 -18 0 0 304 -18 0 0 111 -18 0 0 45 -12 0 0 295 -3 0 0 101 -3 0 0 292 14 0 0 241 14 0 0 287 14 0 0 288 14 0 0 97 14 0 0 89 -57 0 0 87 -63 0 0 86 -61 0 0 279 -44 0 0 85 -44 0 0 84 -40 0 0 273 -38 0 0 274 -38 0 0 234 -43 0 0 79 -38 0 0 71 -44 0 0 262 -42 0 0 67 -42 0 0
EndChar
StartChar: S
Encoding: 83 83 52
Width: 535
Flags: MW
HStem: -18 44<210 290.5> 669 45<238.5 309.5>
VStem: 49 104<532.5 567> 391 104<133 171>
Fore
452 659 m 1
 452 553 l 2
 452 537 451 536 442 536 c 2
 421 536 l 2
 407 536 407 536 405 550 c 0
 390 626 344 669 275 669 c 0
 202 669 153 626 153 562 c 0
 153 503 188 468 294 421 c 0
 376 385 417 361 445 332 c 0
 479 296 495 252 495 198 c 0
 495 68 391 -18 235 -18 c 0
 170 -18 115 -5 59 22 c 1
 46 145 l 2
 45 155 47 157 57 157 c 2
 73 157 l 2
 84 157 85 156 88 148 c 0
 117 68 171 26 249 26 c 0
 332 26 391 73 391 139 c 0
 391 203 359 236 242 289 c 0
 93 357 49 407 49 507 c 0
 49 627 144 714 275 714 c 0
 346 714 413 693 452 659 c 1
EndSplineSet
KernsSLIF: 116 -3 0 0 89 -3 0 0 87 -6 0 0 86 -3 0 0 84 -6 0 0 261 -22 0 0 256 -22 0 0 257 -22 0 0 225 -14 0 0 65 -22 0 0
EndChar
StartChar: T
Encoding: 84 84 53
Width: 664
Flags: W
HStem: -6 20 0 20 645 49<171 269 402 402 402 498>
VStem: 269 133<133 645>
Fore
269 645 m 1xb0
 171 645 l 2
 129 645 119 643 102 628 c 0
 87 615 74 596 60 568 c 0
 49 546 48 545 39 545 c 0
 18 545 10 547 10 553 c 0
 10 554 10 558 11 562 c 1
 35 719 l 1
 37 736 39 738 54 738 c 2
 76 738 l 1
 97 701 112 694 171 694 c 2
 503 694 l 2
 573 694 600 704 613 738 c 1
 636 738 l 2
 652 738 655 736 655 729 c 0
 655 726 654 720 653 715 c 0
 636 637 633 617 629 568 c 0
 629 558 627 556 616 556 c 0
 589 556 583 559 583 572 c 1
 584 595 l 1
 585 634 566 645 498 645 c 2
 402 645 l 1
 402 133 l 2
 402 47 411 36 480 34 c 0
 496 33 497 33 497 22 c 2
 497 5 l 2
 497 -4 495 -6 490 -6 c 0xb0
 481 -6 466 -5 449 -4 c 0
 428 -2 380 0 344 0 c 0x50
 318 0 242 -2 230 -3 c 0
 207 -5 189 -6 182 -6 c 0
 175 -6 174 -4 174 5 c 2
 174 22 l 2
 174 33 174 33 191 34 c 0
 260 36 269 46 269 133 c 2
 269 645 l 1xb0
EndSplineSet
KernsSLIF: 121 -95 0 0 119 -100 0 0 118 -98 0 0 117 -87 0 0 59 -25 0 0 115 -67 0 0 114 -61 0 0 46 -63 0 0 249 -73 0 0 111 -88 0 0 106 -8 0 0 105 -9 0 0 45 -51 0 0 172 -104 0 0 171 -100 0 0 103 -70 0 0 101 -77 0 0 44 -60 0 0 58 -28 0 0 99 -79 0 0 241 -70 0 0 97 -70 0 0 89 29 0 0 87 25 0 0 86 29 0 0 83 -4 0 0 277 -30 0 0 233 -30 0 0 275 -30 0 0 273 -30 0 0 276 -30 0 0 274 -30 0 0 234 -36 0 0 79 -30 0 0 74 18 0 0 71 -33 0 0 67 -29 0 0 260 -48 0 0 261 -48 0 0 258 -48 0 0 256 -48 0 0 259 -48 0 0 257 -48 0 0 225 -40 0 0 65 -48 0 0
EndChar
StartChar: U
Encoding: 85 85 54
Width: 811
Flags: W
HStem: -21 73<362 450.5> 669 20<160 197 670.5 688.5> 675 20<25.5 29.5 329 335.5 562.5 569 791 797.5>
VStem: 112 133<222 230 230 556> 650 59<268 556>
Fore
245 556 m 2xb8
 245 230 l 2
 245 102 296 52 428 52 c 0
 523 52 588 79 623 134 c 0
 644 169 650 196 650 268 c 2
 650 556 l 2
 650 641 641 653 575 655 c 0
 558 656 558 656 558 667 c 2
 558 684 l 2
 558 693 560 695 565 695 c 0xb8
 573 695 584 694 599 693 c 0
 616 691 662 689 679 689 c 0x58
 698 689 743 691 758 693 c 0
 775 694 787 695 795 695 c 0
 800 695 802 692 802 684 c 2
 802 667 l 2
 802 656 802 656 785 655 c 0
 718 653 709 642 709 556 c 2
 709 268 l 2
 709 168 692 115 646 67 c 0
 591 10 504 -21 397 -21 c 0
 288 -21 200 10 156 64 c 0
 125 103 112 149 112 222 c 2
 112 556 l 2
 112 641 103 653 39 655 c 0
 22 656 22 656 22 667 c 2
 22 684 l 2
 22 693 23 695 28 695 c 0xb8
 31 695 34 695 38 694 c 0
 58 692 143 689 177 689 c 0x58
 217 689 251 690 296 693 c 0
 316 694 326 695 332 695 c 0
 339 695 340 693 340 684 c 2
 340 667 l 2
 340 656 340 656 323 655 c 0
 254 654 245 643 245 556 c 2xb8
EndSplineSet
KernsSLIF: 114 -24 0 0 46 -11 0 0 112 -21 0 0 110 -24 0 0 109 -19 0 0 44 -8 0 0 260 -55 0 0 261 -55 0 0 256 -55 0 0 259 -55 0 0 257 -55 0 0 225 -48 0 0 65 -55 0 0
EndChar
StartChar: V
Encoding: 86 86 55
Width: 738
Flags: W
HStem: 656 40 669 20
Fore
345 2 m 1x40
 142 507 l 2
 92 632 78 650 26 655 c 0
 5 657 4 657 4 669 c 2
 4 683 l 2
 4 693 7 696 17 696 c 0
 20 696 28 695 36 694 c 2
 149 689 l 2x40
 165 689 168 689 287 695 c 0
 295 696 302 696 308 696 c 0
 320 696 324 693 324 682 c 2
 324 667 l 2
 324 656 320 653 307 655 c 2
 300 656 l 2
 289 657 266 654 254 649 c 0
 246 645 240 638 240 630 c 0
 240 621 246 603 260 568 c 2
 411 191 l 2
 416 178 420 172 423 172 c 0
 426 172 431 179 436 191 c 2
 573 544 l 1
 589 584 595 607 595 623 c 0
 595 636 589 646 579 649 c 0
 570 652 548 656 542 656 c 2x80
 517 654 l 2
 510 653 507 658 507 669 c 2x40
 507 683 l 2
 507 692 512 696 521 696 c 0x80
 526 696 532 696 539 695 c 0
 563 692 611 689 632 689 c 0
 651 689 690 692 707 694 c 0
 715 695 722 696 726 696 c 0
 733 696 736 692 736 683 c 2
 736 669 l 2
 736 657 735 656 716 655 c 1
 679 647 674 641 628 526 c 1
 414 -3 l 1
 407 -19 405 -22 393 -22 c 2
 367 -22 l 2
 356 -22 354 -19 345 2 c 1x40
EndSplineSet
KernsSLIF: 121 -33 0 0 117 -44 0 0 59 -16 0 0 114 -62 0 0 46 -80 0 0 249 -70 0 0 111 -74 0 0 45 -38 0 0 172 -84 0 0 171 -80 0 0 103 -75 0 0 101 -68 0 0 44 -76 0 0 58 -14 0 0 241 -72 0 0 97 -71 0 0 84 28 0 0 83 -7 0 0 277 -41 0 0 233 -36 0 0 275 -41 0 0 273 -41 0 0 276 -41 0 0 274 -41 0 0 79 -41 0 0 71 -41 0 0 67 -40 0 0 260 -91 0 0 261 -91 0 0 258 -91 0 0 256 -91 0 0 259 -91 0 0 257 -91 0 0 225 -109 0 0 65 -91 0 0
EndChar
StartChar: W
Encoding: 87 87 56
Width: 996
Flags: W
HStem: 421 20<574 574> 669 20 676 20<20.5 30.5 246.5 253 299 305 536 546.5 609 615.5 769 774 829 836 976.5 982>
Fore
526 232 m 1x20
 419 -14 l 2
 416 -21 415 -22 407 -22 c 2
 382 -22 l 2
 371 -22 370 -20 361 5 c 0
 353 27 344 47 335 66 c 1
 282 186 l 1
 125 530 l 1
 84 622 57 655 25 656 c 0
 11 656 10 657 10 670 c 2
 10 682 l 2
 10 692 14 696 27 696 c 0x20
 34 696 60 694 83 692 c 0
 105 690 124 689 140 689 c 0xc0
 162 689 166 689 229 695 c 0
 236 696 244 696 249 696 c 0
 257 696 260 694 260 685 c 2
 260 670 l 2
 260 658 258 656 246 656 c 0
 232 657 220 650 220 641 c 0
 220 633 229 608 241 581 c 2
 436 150 l 1
 502 299 l 1
 373 599 l 2
 356 638 356 638 350 643 c 0
 342 651 323 657 313 656 c 2
 301 655 l 2
 294 654 292 658 292 665 c 2
 292 682 l 2
 292 692 295 696 303 696 c 0x20
 307 696 315 695 323 694 c 0
 338 692 396 689 424 689 c 0xc0
 444 689 465 690 488 692 c 0
 510 695 530 696 542 696 c 0x20
 551 696 555 693 555 686 c 2
 555 668 l 2
 555 657 553 657 523 655 c 0
 507 655 498 649 498 641 c 0
 498 638 505 618 519 581 c 1
 574 441 l 1
 610 516 l 1
 636 572 653 617 653 631 c 0
 653 645 636 658 619 656 c 2
 610 655 l 2
 605 654 603 658 603 669 c 2xc0
 603 682 l 2
 603 694 605 696 613 696 c 0x20
 618 696 624 695 632 694 c 0
 647 692 685 689 698 689 c 0xc0
 712 689 723 690 759 695 c 0
 763 696 768 696 770 696 c 0
 778 696 780 693 780 682 c 2
 780 670 l 2
 780 657 779 654 772 655 c 2
 761 656 l 2
 751 657 734 652 726 645 c 0
 717 638 717 638 698 595 c 1
 598 381 l 1
 681 177 l 1
 848 574 l 2
 864 613 868 624 868 635 c 0
 868 649 864 651 833 655 c 0
 824 657 823 658 823 670 c 2
 823 682 l 2
 823 693 825 696 833 696 c 0x20
 839 696 855 694 870 692 c 0
 884 690 895 689 906 689 c 0xc0
 915 689 953 693 966 695 c 0
 971 696 975 696 978 696 c 0
 986 696 989 692 989 682 c 2
 989 670 l 2
 989 657 989 656 980 655 c 0
 953 653 947 647 922 603 c 1
 885 531 785 296 713 113 c 1
 667 -13 l 2
 664 -21 664 -22 655 -22 c 2
 634 -22 l 2
 626 -22 624 -21 622 -13 c 1
 573 122 l 1
 550 179 535 214 526 232 c 1x20
EndSplineSet
KernsSLIF: 121 -34 0 0 117 -45 0 0 59 -19 0 0 114 -64 0 0 46 -82 0 0 249 -73 0 0 111 -77 0 0 105 -2 0 0 45 -40 0 0 172 -87 0 0 171 -83 0 0 103 -78 0 0 101 -66 0 0 44 -79 0 0 58 -16 0 0 241 -74 0 0 97 -73 0 0 84 26 0 0 83 -9 0 0 277 -43 0 0 233 -39 0 0 275 -43 0 0 273 -43 0 0 276 -43 0 0 274 -43 0 0 79 -43 0 0 71 -44 0 0 67 -42 0 0 260 -93 0 0 261 -93 0 0 258 -93 0 0 256 -93 0 0 259 -93 0 0 257 -93 0 0 225 -111 0 0 65 -93 0 0
EndChar
StartChar: X
Encoding: 88 88 57
Width: 756
Flags: W
HStem: -6 20 0 20 669 20<157.5 171.5 628 640> 676 20<30 37 315.5 334.5 482 498.5 708 715.5>
Fore
319 319 m 1x90
 168 534 l 1
 129 588 115 607 88 640 c 0
 78 652 65 656 37 657 c 0
 23 657 22 658 22 670 c 2
 22 684 l 2
 22 693 25 696 35 696 c 0x10
 39 696 47 696 55 695 c 0
 96 692 150 689 165 689 c 0x20
 178 689 208 690 250 693 c 0
 277 695 307 696 324 696 c 0
 345 696 348 695 348 684 c 2
 348 673 l 2
 348 659 346 657 330 657 c 0
 291 658 271 650 271 634 c 0
 271 622 273 619 300 580 c 2
 404 428 l 1
 510 570 l 2
 529 596 542 621 542 632 c 0
 542 648 524 656 488 657 c 0
 468 657 468 657 468 670 c 2
 468 684 l 2
 468 693 473 696 491 696 c 0x10
 506 696 539 695 560 693 c 0
 594 691 623 689 633 689 c 0x20
 647 689 657 690 672 692 c 0
 689 694 705 696 711 696 c 0
 720 696 725 692 725 684 c 2
 725 670 l 2
 725 657 722 655 707 655 c 0
 650 654 618 632 564 560 c 2
 434 384 l 1
 583 168 l 1
 664 53 687 31 727 33 c 0
 740 34 743 32 743 22 c 2
 743 8 l 2
 743 -3 740 -6 729 -6 c 0x90
 725 -6 716 -6 707 -5 c 0
 682 -3 591 0 573 0 c 0x40
 555 0 531 -1 503 -2 c 0
 456 -5 434 -6 422 -6 c 0
 409 -6 408 -5 408 8 c 2
 408 22 l 2
 408 33 409 34 430 34 c 0
 471 35 489 43 489 60 c 0
 489 75 481 90 450 133 c 2
 350 273 l 1
 235 113 l 2
 214 84 204 65 204 56 c 0
 204 40 223 33 263 33 c 0
 274 33 276 31 276 22 c 2
 276 8 l 2
 276 -4 274 -6 262 -6 c 0x90
 253 -6 251 -6 218 -3 c 0
 199 -1 185 0 172 0 c 0x40
 156 0 58 -4 46 -5 c 0
 39 -6 34 -6 30 -6 c 0
 19 -6 17 -3 17 8 c 2
 17 22 l 2
 17 32 21 35 32 35 c 0
 100 38 105 41 176 127 c 1
 319 319 l 1x90
EndSplineSet
KernsSLIF: 121 -79 0 0 117 -20 0 0 111 -26 0 0 45 -25 0 0 101 -11 0 0 97 6 0 0 81 -52 0 0 273 -51 0 0 79 -51 0 0 67 -50 0 0
EndChar
StartChar: Y
Encoding: 89 89 58
Width: 701
Flags: W
HStem: -6 20 0 20 669 20<177.5 197.5 565.5 595.5> 675 20<15.5 25 304 312 484.5 490.5 685.5 691>
VStem: 290 133<133 287 287 292>
Fore
405 389 m 1x98
 519 564 l 2
 541 598 553 623 553 635 c 0
 553 647 533 653 494 653 c 0
 480 653 478 655 478 668 c 2
 478 681 l 2
 478 692 480 695 489 695 c 0x98
 492 695 496 695 500 694 c 0
 528 690 550 689 581 689 c 0x28
 610 689 650 691 672 694 c 0
 678 695 684 695 687 695 c 0
 695 695 697 692 697 681 c 2
 697 668 l 2
 697 656 697 656 678 654 c 0
 644 650 613 618 549 521 c 1
 445 357 l 2
 429 332 426 326 424 321 c 0
 423 317 423 315 423 292 c 2
 423 133 l 2
 423 46 431 36 500 34 c 0
 517 33 517 33 517 22 c 2
 517 5 l 2
 517 -4 516 -6 510 -6 c 0x98
 502 -6 490 -5 475 -4 c 0
 452 -2 389 0 355 0 c 0x48
 319 0 261 -2 238 -4 c 0
 224 -5 213 -6 205 -6 c 0
 200 -6 198 -3 198 5 c 2
 198 22 l 2
 198 33 199 33 215 34 c 0
 281 36 290 48 290 133 c 2
 290 287 l 2
 290 322 290 322 271 350 c 2
 134 558 l 2
 82 637 59 656 15 656 c 0
 7 656 5 658 5 668 c 2
 5 681 l 2
 5 691 9 695 22 695 c 0x98
 28 695 34 695 41 694 c 0
 76 692 168 689 187 689 c 0x28
 208 689 228 690 249 691 c 0
 291 694 302 695 306 695 c 0
 318 695 320 692 320 681 c 2
 320 668 l 2
 320 656 318 654 306 654 c 0
 257 654 243 650 243 636 c 0
 243 627 249 616 272 582 c 2
 405 389 l 1x98
EndSplineSet
KernsSLIF: 118 -69 0 0 117 -74 0 0 59 -27 0 0 46 -71 0 0 112 -85 0 0 249 -81 0 0 111 -91 0 0 45 -59 0 0 172 -108 0 0 171 -104 0 0 103 -79 0 0 101 -80 0 0 44 -67 0 0 58 -30 0 0 241 -79 0 0 97 -79 0 0 84 26 0 0 83 -12 0 0 277 -54 0 0 233 -52 0 0 275 -54 0 0 273 -54 0 0 276 -54 0 0 274 -54 0 0 79 -54 0 0 71 -58 0 0 67 -54 0 0 260 -56 0 0 261 -56 0 0 258 -56 0 0 256 -56 0 0 259 -56 0 0 257 -56 0 0 225 -48 0 0 65 -56 0 0
EndChar
StartChar: Z
Encoding: 90 90 59
Width: 664
Flags: W
HStem: -6 20 0 42<312.5 346.5> 638 44<321.5 346>
Fore
74 531 m 2xa0
 44 547 l 1
 53 574 56 585 63 610 c 0
 68 625 68 625 75 654 c 0
 79 669 83 683 86 698 c 0
 89 706 91 715 93 724 c 1
 112 729 l 2
 117 730 122 731 125 731 c 0
 132 731 132 731 152 708 c 0
 163 694 174 689 192 687 c 0
 221 685 308 682 335 682 c 0
 357 682 560 686 598 688 c 2
 609 688 l 2
 625 688 632 684 632 677 c 0
 632 670 626 659 613 639 c 0
 604 627 596 614 588 601 c 2
 525 503 l 1
 433 365 l 1
 279 145 l 2
 232 78 215 52 215 47 c 0
 215 43 215 43 233 42 c 2
 393 42 l 2x60
 495 42 542 66 578 138 c 0
 587 154 590 158 596 158 c 0
 597 158 600 158 603 157 c 2
 620 153 l 2
 630 151 634 148 634 143 c 0
 634 137 628 117 617 87 c 0
 604 52 601 43 597 17 c 0
 594 -2 591 -6 580 -6 c 0x80
 569 -6 544 -5 520 -4 c 0
 475 -2 367 0 326 0 c 0x60
 299 0 111 -4 85 -5 c 0
 69 -6 54 -6 45 -6 c 0
 32 -6 25 -1 25 7 c 0
 25 18 26 19 75 86 c 1
 416 586 l 2
 436 616 443 627 443 632 c 0
 443 637 439 638 427 638 c 2
 265 638 l 2
 168 638 141 624 100 552 c 0
 90 533 86 528 83 528 c 0
 80 528 78 529 74 531 c 2xa0
EndSplineSet
KernsSLIF: 121 -47 0 0 118 -50 0 0
EndChar
StartChar: bracketleft
Encoding: 91 91 60
Width: 313
Flags: W
HStem: -199 39 655 36 675 20<60.5 69.5 287 291 291 293>
VStem: 53 100<-116 -79 -79 576>
Fore
53 -174 m 2xd0
 53 665 l 2
 53 693 54 695 67 695 c 0x30
 72 695 84 694 96 693 c 0
 108 692 125 691 136 691 c 0x50
 196 691 268 693 287 695 c 2
 291 695 l 2x30
 295 695 297 692 297 685 c 2
 297 665 l 2
 297 655 295 653 286 653 c 0
 284 653 276 653 270 654 c 0
 258 655 245 655 237 655 c 0
 198 655 174 650 164 638 c 0
 155 629 153 617 153 576 c 2
 153 -79 l 2
 153 -153 160 -160 238 -160 c 2
 257 -160 l 2
 270 -159 282 -159 284 -159 c 0
 294 -159 297 -161 297 -170 c 2
 297 -187 l 2
 297 -197 296 -199 290 -199 c 0
 282 -199 246 -198 218 -197 c 0
 194 -196 171 -196 161 -196 c 0
 138 -196 127 -196 113 -197 c 0
 89 -199 68 -200 66 -200 c 0
 55 -200 53 -196 53 -174 c 2xd0
EndSplineSet
EndChar
StartChar: backslash
Encoding: 92 92 61
Width: 498
Flags: W
Fore
60 722 m 2
 104 722 l 2
 122 722 125 720 133 701 c 2
 451 -34 l 2
 453 -39 454 -43 454 -47 c 0
 454 -53 449 -58 444 -58 c 2
 387 -58 l 2
 373 -58 370 -55 363 -41 c 1
 46 697 l 1
 44 703 42 708 42 712 c 0
 42 717 50 722 60 722 c 2
EndSplineSet
EndChar
StartChar: bracketright
Encoding: 93 93 62
Width: 313
Flags: W
HStem: -199 39 655 36 675 20<20 23 23 23 240.5 249.5>
VStem: 157 100<-79 576 576 596>
Fore
257 665 m 2x30
 257 -174 l 2
 257 -196 255 -200 244 -200 c 0
 241 -200 220 -199 197 -197 c 2
 157 -196 l 2
 143 -196 122 -196 92 -197 c 0
 69 -198 26 -199 20 -199 c 0
 14 -199 13 -197 13 -187 c 2
 13 -170 l 2
 13 -161 16 -159 26 -159 c 0
 29 -159 40 -159 53 -160 c 2
 72 -160 l 2
 150 -160 157 -153 157 -79 c 2
 157 576 l 2
 157 616 155 629 146 638 c 0
 136 650 112 655 74 655 c 0xd0
 65 655 52 655 40 654 c 0
 34 653 26 653 24 653 c 0
 15 653 13 655 13 665 c 2
 13 685 l 2
 13 693 14 695 20 695 c 2
 23 695 l 2x30
 41 693 115 691 165 691 c 0xd0
 183 691 201 692 214 693 c 0
 226 694 238 695 243 695 c 0
 256 695 257 693 257 665 c 2x30
EndSplineSet
EndChar
StartChar: asciicircum
Encoding: 94 94 63
Width: 498
Flags: W
Fore
250 586 m 1
 236 573 l 1
 189 521 129 493 48 485 c 1
 48 530 l 1
 139 577 214 672 220 750 c 1
 279 750 l 1
 284 674 360 576 451 530 c 1
 451 485 l 1
 371 492 309 521 263 573 c 1
 250 586 l 1
EndSplineSet
EndChar
StartChar: underscore
Encoding: 95 95 64
Width: 498
Flags: MW
HStem: -250 51<-1 499>
Fore
-1 -199 m 1
 499 -199 l 1
 499 -250 l 1
 -1 -250 l 1
 -1 -199 l 1
EndSplineSet
EndChar
StartChar: quoteleft
Encoding: 96 8216 65
Width: 258
Flags: MW
HStem: 674 20<195 206.5>
VStem: 42 80
Fore
202 694 m 0
 211 694 219 683 219 669 c 0
 219 662 217 661 201 655 c 0
 154 639 122 610 122 585 c 0
 122 574 129 561 138 555 c 0
 145 551 147 551 168 545 c 0
 196 538 212 517 212 487 c 0
 212 451 183 426 141 426 c 0
 84 426 42 471 42 533 c 0
 42 586 76 636 135 669 c 0
 159 683 188 694 202 694 c 0
EndSplineSet
KernsSLIF: 89 18 1 0 87 16 1 0 86 19 1 0 84 8 1 0 261 -65 1 0 256 -65 1 0 257 -65 1 0 225 -101 1 0 65 -65 1 0
EndChar
StartChar: a
Encoding: 97 97 66
Width: 461
Flags: W
HStem: -16 68 435 20<217 251.5>
VStem: 31 111 41 78 275 111<110.5 138 138 209 209 209 241 282 282 309>
Fore
129 304 m 1xd8
 52 268 l 1
 46 279 41 298 41 311 c 0xd8
 41 339 70 371 132 410 c 1
 169 435 188 445 217 455 c 1
 286 455 320 447 346 426 c 0
 375 403 386 371 386 309 c 2
 386 138 l 2
 386 83 390 68 405 68 c 0
 418 68 426 76 437 95 c 1
 456 87 l 1
 435 18 401 -16 350 -16 c 0
 303 -16 279 12 277 69 c 1
 208 4 173 -16 125 -16 c 0
 97 -16 70 -2 57 20 c 0
 44 42 31 86 31 106 c 0xe8
 31 130 53 149 113 178 c 0
 152 196 225 225 275 241 c 1
 275 282 l 2
 275 352 254 376 192 376 c 0
 145 376 119 363 119 339 c 0
 119 331 119 330 129 304 c 1xd8
275 105 m 1
 275 209 l 1
 160 162 142 151 142 129 c 0xe8
 142 115 147 93 152 78 c 0
 158 62 173 52 190 52 c 0
 219 52 243 67 275 105 c 1
EndSplineSet
KernsSLIF: 121 -14 0 0 119 -16 0 0 118 -14 0 0 39 -9 0 0 106 -10 0 0
EndChar
StartChar: b
Encoding: 98 98 67
Width: 553
Flags: MW
HStem: -16 40<250 313> 382 73
VStem: 75 111<156 196 196 364 395 585> 400 122<160.5 253>
Fore
104 -15 m 1
 71 -15 l 1
 72 9 l 1
 73 73 73 79 75 156 c 1
 75 590 l 1
 76 670 72 676 23 682 c 0
 13 683 12 684 12 694 c 2
 12 701 l 2
 12 710 13 710 20 713 c 2
 182 777 l 1
 189 776 l 1
 188 667 187 650 186 585 c 1
 186 395 l 1
 256 447 275 455 329 455 c 0
 443 455 522 363 522 231 c 0
 522 90 413 -16 268 -16 c 0
 232 -16 222 -14 167 7 c 0
 153 13 144 15 139 15 c 0
 127 15 121 9 104 -15 c 1
186 364 m 1
 186 196 l 2
 186 62 205 24 274 24 c 0
 352 24 400 91 400 198 c 0
 400 308 342 382 257 382 c 0
 232 382 208 376 186 364 c 1
EndSplineSet
KernsSLIF: 121 -13 0 0 119 -13 0 0 118 -11 0 0
EndChar
StartChar: c
Encoding: 99 99 68
Width: 424
Flags: MW
HStem: -16 88<246.5 271.5> 410 45<202.5 240.5>
VStem: 31 100<207.5 272.5>
Fore
268 455 m 0
 345 455 399 422 399 374 c 0
 399 340 378 318 347 318 c 0
 326 318 311 325 298 343 c 0
 294 348 294 348 276 381 c 0
 264 402 251 410 230 410 c 0
 175 410 131 343 131 259 c 0
 131 156 203 72 290 72 c 0
 328 72 341 78 384 117 c 0
 385 118 387 119 388 119 c 0
 394 119 412 105 412 101 c 0
 412 98 403 81 394 67 c 0
 355 9 308 -16 235 -16 c 0
 111 -16 31 69 31 201 c 0
 31 344 134 455 268 455 c 0
EndSplineSet
KernsSLIF: 107 -4 0 0 104 -8 0 0
EndChar
StartChar: d
Encoding: 100 100 69
Width: 553
Flags: MW
HStem: -16 68 415 40<259.5 297.5>
VStem: 35 122<182 257.5> 373 111<93 115 115 266 266 295.5 437 590 590 590>
Fore
373 437 m 1
 373 590 l 1
 374 667 371 673 329 682 c 0
 319 683 318 684 318 694 c 2
 318 701 l 2
 318 710 318 710 326 713 c 2
 480 777 l 1
 487 776 l 1
 484 610 l 1
 484 115 l 2
 484 71 489 60 506 60 c 0
 515 60 524 62 544 68 c 1
 544 32 l 1
 388 -14 l 2
 383 -15 379 -16 378 -16 c 0
 375 -16 373 -13 373 -7 c 2
 373 49 l 1
 321 3 277 -16 220 -16 c 0
 110 -16 35 66 35 188 c 0
 35 346 135 455 280 455 c 0
 315 455 341 450 373 437 c 1
373 82 m 1
 373 266 l 2
 373 325 368 355 355 378 c 0
 341 402 315 415 282 415 c 0
 237 415 205 395 183 354 c 0
 166 321 157 279 157 236 c 0
 157 128 212 52 291 52 c 0
 319 52 340 60 373 82 c 1
EndSplineSet
EndChar
StartChar: e
Encoding: 101 101 70
Width: 442
Flags: MW
HStem: -16 93<253.5 259> 415 40<210 255.5>
Fore
392 269 m 2
 132 265 l 1
 132 223 134 210 144 183 c 0
 166 120 224 77 283 77 c 0
 320 77 348 90 386 124 c 1
 396 119 404 112 411 105 c 1
 360 22 300 -16 218 -16 c 0
 104 -16 26 74 26 206 c 0
 26 350 121 455 253 455 c 0
 357 455 421 393 421 291 c 0
 421 273 416 270 392 269 c 2
137 302 m 1
 235 307 l 2
 299 310 308 314 308 341 c 0
 308 383 276 415 235 415 c 0
 185 415 148 373 137 302 c 1
EndSplineSet
KernsSLIF: 121 3 0 0 120 -6 0 0 119 3 0 0 118 5 0 0 116 6 0 0 39 13 0 0
EndChar
StartChar: f
Encoding: 102 102 71
Width: 351
Flags: W
HStem: -8 20 0 20 384 50<42 101 212 309> 708 67
VStem: 101 111<149 384 434 448 448 498.5>
Fore
212 434 m 1xb8
 309 434 l 2
 319 434 320 433 320 423 c 2
 320 395 l 2
 320 385 319 384 309 384 c 2
 212 384 l 1
 212 149 l 2
 212 46 220 30 268 27 c 0
 278 26 279 25 279 16 c 2
 279 4 l 2
 279 -5 277 -8 271 -8 c 0xa8
 267 -8 260 -8 253 -7 c 0
 219 -3 175 0 155 0 c 0x48
 131 0 128 0 60 -7 c 1
 36 -8 l 2
 29 -8 28 -6 28 4 c 2
 28 16 l 2
 28 25 29 26 38 27 c 0
 75 29 85 34 92 52 c 0
 98 67 101 103 101 149 c 2
 101 384 l 1
 42 384 l 2
 32 384 31 385 31 395 c 2
 31 423 l 2
 31 433 32 434 42 434 c 2
 101 434 l 1
 101 448 l 2
 101 549 129 652 170 706 c 0
 206 752 252 775 308 775 c 0
 355 775 383 754 383 719 c 0
 383 689 361 667 331 667 c 0
 312 667 306 670 279 693 c 0
 268 703 257 708 246 708 c 0
 219 708 212 687 212 605 c 2
 212 434 l 1xb8
EndSplineSet
KernsSLIF: 116 11 0 0 115 -10 0 0 39 15 0 0 249 -25 0 0 250 -25 0 0 303 -11 0 0 304 -26 0 0 111 -26 0 0 108 32 0 0 106 7 0 0 105 8 0 0 102 3 0 0 295 -20 0 0 101 -20 0 0 292 -16 0 0 241 -15 0 0 287 7 0 0 288 -21 0 0 97 -18 0 0
EndChar
StartChar: g
Encoding: 103 103 72
Width: 535
Flags: W
HStem: -268 39<230 290> -49 107 144 35<235.5 282> 349 62<443 443 443 502> 420 35<212.5 267>
VStem: 46 111<274 336.5> 336 111<260 309.5> 416 96<-104 -98.5>
Fore
443 349 m 1xfd
 444 341 l 1
 446 326 l 1
 447 320 447 313 447 306 c 0xfe
 447 214 360 144 245 144 c 0
 226 144 209 145 194 149 c 1
 159 134 144 117 144 95 c 0
 144 70 175 58 238 58 c 0
 252 58 268 59 288 60 c 0
 312 62 333 63 343 63 c 0
 446 63 512 9 512 -75 c 0
 512 -133 485 -183 436 -216 c 0
 386 -249 322 -268 258 -268 c 0
 183 -268 98 -242 64 -208 c 0
 48 -192 40 -174 41 -151 c 1
 42 -106 l 1
 59 -96 65 -92 79 -85 c 0
 95 -76 111 -67 128 -59 c 1
 145 -49 l 1
 66 -24 48 -5 48 53 c 0
 48 66 49 72 51 79 c 1
 157 156 l 1
 118 168 100 178 81 200 c 0
 58 225 46 257 46 291 c 0
 46 382 137 455 250 455 c 0
 284 455 318 448 348 434 c 0
 398 412 400 411 423 411 c 2
 502 411 l 2
 517 411 519 410 519 396 c 2
 519 363 l 2
 519 351 516 349 502 349 c 2
 443 349 l 1xfd
239 420 m 0
 186 420 157 382 157 315 c 0
 157 231 195 179 256 179 c 0
 308 179 336 213 336 277 c 0
 336 366 299 420 239 420 c 0
194 -53 m 1xf9
 154 -69 135 -95 135 -131 c 0
 135 -187 192 -229 268 -229 c 0
 355 -229 416 -185 416 -123 c 0
 416 -74 381 -49 311 -49 c 0
 286 -49 216 -52 194 -53 c 1xf9
EndSplineSet
KernsSLIF: 114 5 0 0 303 -9 0 0 304 -9 0 0 108 2 0 0 295 -3 0 0 101 -3 0 0 241 2 0 0 287 -1 0 0
EndChar
StartChar: h
Encoding: 104 104 73
Width: 590
Flags: W
HStem: -8 20 -7 20 0 20 375 80
VStem: 91 111<149 334 376 582> 391 111<149 243 243 275>
Fore
202 334 m 1x9c
 202 149 l 2
 202 46 209 30 259 27 c 0
 268 26 269 25 269 16 c 2
 269 4 l 2
 269 -6 267 -8 260 -8 c 0x8c
 251 -8 251 -8 206 -3 c 0
 187 -1 167 0 147 0 c 0x2c
 118 0 115 0 51 -6 c 0
 46 -7 39 -7 35 -7 c 0x4c
 29 -7 28 -5 28 4 c 2
 28 16 l 2
 28 25 29 27 38 27 c 0
 83 29 91 47 91 149 c 2
 91 590 l 2
 91 650 90 651 84 663 c 1
 75 674 59 682 46 683 c 0
 41 683 40 686 40 694 c 2
 40 701 l 2
 40 710 40 710 48 713 c 2
 198 777 l 1
 205 776 l 1
 205 726 l 1
 204 684 203 636 202 582 c 1
 202 376 l 1
 291 439 327 455 381 455 c 0
 417 455 450 441 472 416 c 0
 494 391 502 363 502 310 c 2
 502 149 l 2
 502 47 510 29 556 27 c 0
 565 27 566 25 566 16 c 2
 566 4 l 2
 566 -6 564 -8 557 -8 c 0x9c
 547 -8 547 -8 507 -3 c 0
 489 -1 470 0 451 0 c 0x2c
 425 0 368 -4 345 -7 c 0x4c
 339 -8 334 -8 331 -8 c 0
 325 -8 323 -5 323 4 c 2
 323 16 l 2
 323 25 324 26 333 27 c 0
 383 30 391 46 391 149 c 2
 391 243 l 2
 391 307 389 322 378 340 c 0
 366 361 339 375 311 375 c 0
 274 375 239 362 202 334 c 1x9c
EndSplineSet
KernsSLIF: 121 -21 0 0 39 -16 0 0
EndChar
StartChar: i
Encoding: 105 105 74
Width: 295
Flags: W
HStem: -8 20 0 20 584 150<127 168>
VStem: 73 150<639 680> 93 111<149 272 272 272>
Fore
201 460 m 1xa8
 207 458 l 1
 206 375 205 362 204 304 c 1
 204 149 l 2
 204 46 212 30 260 27 c 0
 269 26 271 25 271 16 c 2
 271 4 l 2
 271 -6 269 -8 261 -8 c 2xa8
 246 -7 l 2
 198 -2 177 0 150 0 c 0x48
 123 0 80 -3 50 -7 c 0
 44 -8 38 -8 35 -8 c 0
 28 -8 27 -6 27 4 c 2
 27 16 l 2
 27 26 27 26 37 27 c 0
 86 30 93 46 93 149 c 2
 93 272 l 1
 94 350 90 358 44 366 c 0
 40 366 38 368 38 377 c 2
 38 384 l 2
 38 393 38 393 46 396 c 2
 201 460 l 1xa8
147 734 m 0
 189 734 223 701 223 659 c 0
 223 618 189 584 147 584 c 0
 106 584 73 618 73 660 c 0xb0
 73 700 107 734 147 734 c 0
EndSplineSet
KernsSLIF: 106 -20 0 0 84 -9 0 0
EndChar
StartChar: j
Encoding: 106 106 75
Width: 276
Flags: W
HStem: -264 20 584 150<124 165>
VStem: 70 150<639 680> 92 111<3 10 10 262>
Fore
199 460 m 1xd0
 206 459 l 1
 205 389 204 342 203 262 c 1
 203 10 l 2
 203 -102 188 -148 136 -197 c 0
 106 -225 76 -243 21 -264 c 1
 11 -226 l 1
 62 -195 71 -185 80 -154 c 0
 88 -129 92 -72 92 3 c 2
 92 273 l 1
 93 351 89 358 43 366 c 0
 39 366 37 369 37 377 c 2
 37 384 l 2
 37 393 37 393 45 396 c 2
 199 460 l 1xd0
144 734 m 0xe0
 186 734 220 701 220 659 c 0
 220 617 186 584 145 584 c 0
 103 584 70 618 70 660 c 0
 70 700 104 734 144 734 c 0xe0
EndSplineSet
EndChar
StartChar: k
Encoding: 107 107 76
Width: 553
Flags: W
HStem: -8 20 0 20 419 20<386.5 408> 424 20<298.5 304 484 495 495 498.5>
VStem: 87 111<149 201 246 577>
Fore
246 230 m 1x58
 198 201 l 1
 198 149 l 2
 198 52 207 29 244 27 c 0
 256 27 257 26 257 16 c 2
 257 4 l 2
 257 -5 255 -8 249 -8 c 0x98
 247 -8 242 -8 237 -7 c 0
 215 -3 171 0 144 0 c 0x58
 118 0 100 -1 47 -7 c 2
 29 -8 l 2
 22 -8 21 -6 21 4 c 2
 21 16 l 2
 21 26 21 26 31 27 c 0
 80 30 87 46 87 149 c 2
 87 590 l 1
 88 667 85 673 43 682 c 0
 33 683 32 684 32 694 c 2
 32 701 l 2
 32 710 32 710 40 713 c 2
 195 777 l 1
 201 776 l 1
 201 723 l 1
 200 679 199 630 198 577 c 1
 198 246 l 1
 286 306 354 369 354 391 c 0
 354 402 334 409 304 408 c 0
 294 408 293 410 293 421 c 2
 293 433 l 2
 293 442 294 444 303 444 c 0x98
 305 444 312 444 317 443 c 0
 335 441 375 439 398 439 c 0x28
 418 439 442 440 484 444 c 2
 495 444 l 2
 502 444 504 441 504 433 c 2
 504 421 l 2
 504 409 504 409 483 409 c 1
 444 406 427 395 333 305 c 1
 468 84 l 2
 498 36 504 30 529 29 c 1
 539 30 541 28 541 20 c 2x58
 541 6 l 2
 541 -6 539 -8 530 -8 c 0x98
 521 -8 521 -8 476 -3 c 0
 457 -1 440 0 424 0 c 0x58
 404 0 362 -3 339 -6 c 0
 330 -7 322 -8 316 -8 c 0x98
 307 -8 304 -4 304 6 c 2
 304 20 l 2
 304 27 306 28 322 29 c 0
 336 29 346 37 346 46 c 0
 346 54 345 56 325 89 c 1
 246 230 l 1x58
EndSplineSet
KernsSLIF: 309 -2 0 0 117 -2 0 0 115 7 0 0 46 1 0 0 303 -28 0 0 304 -28 0 0 111 -28 0 0 45 -28 0 0 103 4 0 0 295 -13 0 0 101 -13 0 0 44 4 0 0 292 4 0 0 241 4 0 0 287 4 0 0 288 4 0 0 97 4 0 0
EndChar
StartChar: l
Encoding: 108 108 77
Width: 295
Flags: W
HStem: -8 20 0 20
VStem: 91 111<149 577>
Fore
198 777 m 1xa0
 205 775 l 1
 205 722 l 1
 204 678 203 630 202 577 c 1
 202 149 l 2
 202 85 208 48 219 39 c 0
 225 35 242 29 258 27 c 0
 263 26 264 24 264 16 c 2
 264 4 l 2
 264 -5 262 -8 257 -8 c 0xa0
 255 -8 252 -8 248 -7 c 0
 234 -4 178 0 147 0 c 0x60
 122 0 76 -3 48 -7 c 0
 42 -8 36 -8 33 -8 c 0
 27 -8 25 -5 25 4 c 2
 25 16 l 2
 25 25 26 26 35 27 c 0
 83 30 91 47 91 149 c 2
 91 589 l 1
 92 667 89 673 47 682 c 0
 37 683 36 684 36 694 c 2
 36 701 l 2
 36 710 36 710 44 713 c 2
 198 777 l 1xa0
EndSplineSet
KernsSLIF: 121 -14 0 0 118 -17 0 0
EndChar
StartChar: m
Encoding: 109 109 78
Width: 867
Flags: W
HStem: -8 20 0 20 375 80
VStem: 88 110<149 272 272 302.5> 383 110<149 266 266 306.5> 677 110<149 266 266 287>
Fore
198 338 m 1xbc
 198 149 l 2
 198 83 203 52 215 39 c 0
 223 31 228 29 258 27 c 0
 264 26 265 24 265 16 c 2
 265 4 l 2
 265 -6 264 -8 256 -8 c 2x9c
 242 -7 l 2
 209 -3 169 0 144 0 c 0x5c
 118 0 74 -3 44 -7 c 0
 38 -8 32 -8 29 -8 c 0
 22 -8 21 -6 21 4 c 2
 21 16 l 2
 21 26 22 27 32 27 c 0
 80 29 88 46 88 149 c 2
 88 272 l 2
 88 333 87 333 81 345 c 1
 72 358 56 365 38 366 c 0
 34 366 32 369 32 377 c 2
 32 384 l 2
 32 393 32 393 41 396 c 2
 194 460 l 1
 201 458 l 1
 200 440 l 1
 200 418 l 1
 198 392 l 1
 198 370 l 1
 205 375 212 381 220 387 c 0
 289 441 321 455 375 455 c 0
 443 455 476 430 493 367 c 1
 578 441 605 455 665 455 c 0
 699 455 731 445 752 428 c 0
 778 407 787 381 787 328 c 2
 787 149 l 2
 787 45 794 30 844 27 c 0
 853 26 854 25 854 16 c 2
 854 4 l 2
 854 -5 852 -8 846 -8 c 2xbc
 833 -7 l 2
 811 -4 755 0 729 0 c 0x5c
 700 0 682 -1 636 -7 c 2
 619 -8 l 2
 612 -8 610 -6 610 4 c 2
 610 16 l 2
 610 25 611 26 620 27 c 0
 670 30 677 45 677 149 c 2
 677 266 l 2
 677 308 673 329 662 345 c 0
 648 364 623 375 595 375 c 0
 559 375 524 361 493 334 c 1
 493 149 l 2
 493 45 500 30 550 27 c 0
 559 26 560 25 560 16 c 2
 560 4 l 2
 560 -5 558 -8 552 -8 c 2xbc
 538 -7 l 2
 511 -3 463 0 440 0 c 0x5c
 419 0 362 -4 338 -7 c 0
 333 -8 327 -8 324 -8 c 0
 318 -8 316 -5 316 4 c 2
 316 16 l 2
 316 25 317 26 326 27 c 0
 376 30 383 45 383 149 c 2
 383 266 l 2
 383 347 361 375 298 375 c 0
 261 375 241 368 198 338 c 1xbc
EndSplineSet
KernsSLIF: 121 -14 0 0 119 -16 0 0 118 -14 0 0 112 -10 0 0
EndChar
StartChar: n
Encoding: 110 110 79
Width: 590
Flags: W
HStem: -8 20 0 20 375 80
VStem: 94 111<149 272 272 272> 397 111<149 252 252 275.5>
Fore
205 333 m 1xb8
 205 149 l 2
 205 49 213 30 257 27 c 0
 266 26 267 25 267 16 c 2
 267 4 l 2
 267 -6 266 -8 259 -8 c 0x98
 251 -8 251 -8 207 -3 c 0
 188 -1 168 0 147 0 c 0x58
 117 0 111 0 61 -6 c 0
 53 -7 43 -8 37 -8 c 0
 31 -8 30 -7 30 4 c 2
 30 16 l 2
 30 26 30 26 40 27 c 0
 86 30 94 47 94 149 c 2
 94 272 l 1
 95 349 91 358 50 365 c 1
 41 365 39 367 39 377 c 2
 39 384 l 2
 39 393 39 393 47 396 c 2
 201 460 l 1
 210 454 l 1
 209 441 l 1
 206 409 206 409 206 401 c 1
 205 374 l 1
 305 443 332 455 388 455 c 0
 419 455 450 443 470 424 c 0
 501 394 508 368 508 292 c 2
 508 149 l 2
 508 51 516 30 558 27 c 0
 567 26 568 25 568 16 c 2
 568 4 l 2
 568 -5 566 -8 561 -8 c 0xb8
 556 -8 549 -8 542 -7 c 0
 498 -2 472 0 453 0 c 0x58
 433 0 410 -2 362 -7 c 0
 355 -8 348 -8 342 -8 c 0
 337 -8 335 -5 335 4 c 2
 335 16 l 2
 335 25 336 26 345 27 c 0
 389 30 397 49 397 149 c 2
 397 252 l 2
 397 299 395 317 386 336 c 0
 375 361 349 375 316 375 c 0
 279 375 247 363 205 333 c 1xb8
EndSplineSet
KernsSLIF: 121 -18 0 0 119 -20 0 0 118 -18 0 0 39 -12 0 0 112 -14 0 0 84 -60 0 0
EndChar
StartChar: o
Encoding: 111 111 80
Width: 535
Flags: MW
HStem: -16 44<252.5 320.5> 410 45<222 274>
VStem: 38 122<195 288.5> 380 122<160 195>
Fore
276 455 m 0
 405 455 502 359 502 231 c 0
 502 89 401 -16 265 -16 c 0
 130 -16 38 81 38 224 c 0
 38 353 143 455 276 455 c 0
252 410 m 0
 192 410 160 360 160 267 c 0
 160 123 213 28 292 28 c 0
 349 28 380 77 380 166 c 0
 380 224 368 289 349 335 c 0
 328 385 296 410 252 410 c 0
EndSplineSet
KernsSLIF: 121 -21 0 0 120 -31 0 0 119 -21 0 0 118 -19 0 0 116 -7 0 0 39 -4 0 0 84 -86 0 0
EndChar
StartChar: p
Encoding: 112 112 81
Width: 553
Flags: W
HStem: -269 20 -16 40<275 307.5> -14 20 435 20<333.5 366>
VStem: 82 111<-112 -42 75.5 77 77 272 272 272> 399 122<200 247.5>
Fore
193 380 m 1xac
 303 452 l 1
 307 453 l 1
 310 453 l 1
 321 454 l 2
 326 455 331 455 336 455 c 0
 396 455 443 431 476 382 c 0
 505 341 521 289 521 235 c 0
 521 165 495 101 448 55 c 0
 404 12 337 -16 278 -16 c 0x5c
 269 -16 239 -15 216 -14 c 2
 212 -14 l 2
 197 -14 193 -20 193 -42 c 2
 193 -112 l 2
 193 -215 201 -232 249 -234 c 0
 258 -235 260 -236 260 -246 c 2
 260 -258 l 2
 260 -266 258 -269 252 -269 c 0
 248 -269 248 -269 200 -264 c 0
 179 -262 156 -261 132 -261 c 0
 111 -261 92 -262 75 -264 c 0
 36 -269 36 -269 23 -269 c 0
 17 -269 16 -267 16 -258 c 2
 16 -246 l 2
 16 -236 16 -235 26 -234 c 0
 75 -232 82 -216 82 -112 c 2
 82 272 l 1
 83 351 79 358 33 366 c 0
 29 366 27 369 27 377 c 2
 27 384 l 2
 27 393 27 393 35 396 c 2
 190 460 l 1
 196 458 l 1
 196 444 l 1
 195 424 l 1
 194 411 193 401 193 400 c 2
 193 380 l 1xac
193 346 m 1
 193 77 l 2
 193 74 197 71 205 64 c 0
 255 24 255 24 295 24 c 0
 362 24 399 82 399 189 c 0
 399 306 355 370 275 370 c 0
 248 370 248 370 204 351 c 0
 196 348 193 346 193 346 c 1
EndSplineSet
KernsSLIF: 121 -13 0 0 116 -6 0 0
EndChar
StartChar: q
Encoding: 113 113 82
Width: 553
Flags: W
HStem: -269 20 -16 68<249 265.5> 415 40<241.5 296.5> 416 20<415.5 423.5>
VStem: 33 120<188 262.5> 365 111<-112 42 42 42 77 211>
Fore
365 -112 m 2x9c
 365 42 l 1
 328 2 290 -16 241 -16 c 0
 190 -16 135 4 96 37 c 0
 55 73 33 125 33 188 c 0
 33 337 150 455 298 455 c 0x6c
 329 455 353 451 392 441 c 0
 402 438 413 436 418 436 c 0
 429 436 440 445 444 456 c 0
 446 461 447 463 447 463 c 1
 448 463 l 1
 481 454 l 2
 483 453 484 451 484 448 c 0
 484 443 482 436 480 427 c 0
 478 419 477 411 477 395 c 0
 477 392 477 379 478 368 c 1
 478 346 l 2
 478 340 478 340 476 211 c 1
 476 -112 l 2
 476 -216 483 -232 532 -234 c 0
 541 -235 542 -236 542 -246 c 2
 542 -258 l 2
 542 -266 541 -269 536 -269 c 0
 535 -269 533 -269 528 -268 c 0
 499 -264 454 -261 419 -261 c 0
 386 -261 364 -262 325 -267 c 0
 317 -268 309 -269 305 -269 c 0
 299 -269 298 -266 298 -258 c 2
 298 -246 l 2
 298 -236 299 -235 308 -234 c 0
 358 -231 365 -216 365 -112 c 2x9c
365 77 m 2
 365 288 l 2
 365 341 361 366 350 384 c 0
 338 404 312 415 281 415 c 0
 202 415 153 349 153 244 c 0
 153 132 210 52 288 52 c 0
 313 52 313 52 357 72 c 0
 363 74 365 76 365 77 c 2
EndSplineSet
KernsSLIF: 117 -13 0 0 99 -7 0 0
EndChar
StartChar: r
Encoding: 114 114 83
Width: 424
Flags: W
HStem: -8 20 0 20 434 20<326.5 366>
VStem: 97 111<149 272 272 272>
Fore
205 460 m 1xb0
 208 458 l 1
 209 328 l 1
 212 333 l 2
 217 340 222 347 226 354 c 0
 272 425 307 454 346 454 c 0
 386 454 411 428 411 387 c 0
 411 350 389 328 353 328 c 0
 338 328 335 329 298 344 c 0
 291 347 284 349 277 349 c 0
 262 349 257 345 228 311 c 0
 210 290 208 288 208 283 c 2
 208 149 l 2
 208 46 216 30 264 27 c 0
 273 26 275 25 275 16 c 2
 275 4 l 2
 275 -6 273 -8 266 -8 c 2xb0
 252 -7 l 2
 225 -3 177 0 153 0 c 0x50
 128 0 79 -3 53 -7 c 0
 47 -8 42 -8 38 -8 c 0
 32 -8 31 -6 31 4 c 2
 31 16 l 2
 31 26 31 26 41 27 c 0
 90 30 97 46 97 149 c 2
 97 272 l 1
 98 351 94 358 48 366 c 0
 44 366 42 369 42 377 c 2
 42 384 l 2
 42 393 42 393 50 396 c 2
 205 460 l 1xb0
EndSplineSet
KernsSLIF: 122 5 0 0 121 24 0 0 120 14 0 0 119 20 0 0 118 22 0 0 117 14 0 0 116 20 0 0 59 3 0 0 114 7 0 0 39 9 0 0 113 -16 0 0 46 -66 0 0 112 14 0 0 249 -13 0 0 305 -11 0 0 250 -10 0 0 303 -11 0 0 306 -11 0 0 304 -11 0 0 111 -11 0 0 110 8 0 0 109 12 0 0 108 -17 0 0 107 -15 0 0 106 9 0 0 105 9 0 0 45 -54 0 0 104 -17 0 0 103 -4 0 0 102 12 0 0 296 -6 0 0 297 -6 0 0 295 -6 0 0 101 -6 0 0 100 -12 0 0 44 -63 0 0 58 8 0 0 293 -10 0 0 99 -11 0 0 292 -3 0 0 289 -3 0 0 287 -4 0 0 290 -3 0 0 288 -3 0 0 97 -1 0 0
EndChar
StartChar: s
Encoding: 115 115 84
Width: 369
Flags: MW
HStem: -16 39<159 198> 415 40<185 217>
VStem: 50 96<354 360> 242 96
Fore
327 424 m 1
 326 334 l 1
 326 323 324 322 310 322 c 0
 291 322 291 322 282 348 c 0
 268 387 234 415 200 415 c 0
 170 415 146 393 146 365 c 0
 146 343 157 330 211 293 c 0
 309 224 338 185 338 123 c 0
 338 87 323 52 295 27 c 1
 264 -3 226 -16 170 -16 c 0
 116 -16 87 -7 43 24 c 1
 41 118 l 1
 41 126 47 128 66 128 c 0
 75 128 77 126 80 117 c 0
 98 59 137 23 181 23 c 0
 217 23 242 46 242 79 c 0
 242 112 223 135 161 176 c 0
 75 234 50 268 50 323 c 0
 50 397 119 455 208 455 c 0
 246 455 280 446 327 424 c 1
EndSplineSet
KernsSLIF: 116 6 0 0 39 3 0 0
EndChar
StartChar: t
Encoding: 116 116 85
Width: 369
Flags: MW
HStem: -16 73 386 50<190 332>
VStem: 79 111<145 174 174 310 310 334>
Fore
190 574 m 1
 190 436 l 1
 332 436 l 2
 342 436 343 435 343 425 c 2
 343 397 l 2
 343 387 342 386 332 386 c 2
 190 386 l 1
 190 174 l 2
 190 116 195 93 209 77 c 0
 220 65 241 57 262 57 c 0
 292 57 314 68 337 96 c 1
 354 82 l 1
 324 14 277 -16 202 -16 c 0
 153 -16 116 -3 98 21 c 0
 84 40 79 63 79 117 c 2
 79 310 l 2
 79 358 78 363 71 373 c 0
 65 381 54 385 40 385 c 2
 26 385 l 2
 17 385 15 387 15 396 c 2
 15 399 l 2
 15 407 15 407 35 426 c 1
 63 450 129 521 155 555 c 0
 167 570 173 574 182 574 c 2
 190 574 l 1
EndSplineSet
KernsSLIF: 59 21 0 0 303 -9 0 0 304 -9 0 0 111 -9 0 0 104 -3 0 0 295 2 0 0 101 2 0 0 58 21 0 0 292 10 0 0 241 10 0 0 287 10 0 0 288 10 0 0 97 10 0 0 83 3 0 0
EndChar
StartChar: u
Encoding: 117 117 86
Width: 590
Flags: W
HStem: -17 20 -16 84 435 20<187 187 489 489>
VStem: 86 111<142.5 184 184 340 340 366> 389 111<118 130 130 340 340 368>
Fore
389 -17 m 1xb8
 389 76 l 1
 309 1 276 -16 209 -16 c 0
 122 -16 86 27 86 130 c 2
 86 340 l 2
 86 392 81 400 47 400 c 2
 35 400 l 2
 28 400 26 402 26 411 c 2
 26 423 l 2
 26 432 27 433 36 434 c 2
 187 455 l 1
 197 450 l 1
 197 184 l 2
 197 101 222 68 285 68 c 0x78
 322 68 325 69 363 95 c 0
 386 111 389 114 389 118 c 2
 389 340 l 2
 389 396 385 400 335 400 c 0
 329 400 327 402 327 411 c 2
 327 424 l 2
 327 434 328 434 338 436 c 2
 489 455 l 1
 500 450 l 1
 500 130 l 2
 500 94 501 90 507 82 c 0
 510 78 515 75 518 75 c 0
 523 75 535 79 545 83 c 0
 551 85 553 86 555 86 c 0
 557 86 558 84 558 79 c 2
 558 56 l 2
 558 53 557 52 554 50 c 2
 402 -17 l 1
 389 -17 l 1xb8
EndSplineSet
KernsSLIF: 39 -11 0 0
EndChar
StartChar: v
Encoding: 118 118 87
Width: 535
Flags: W
HStem: 418 20 419 20<120.5 135> 424 20<20 27 27 27 239 248 356 361.5 506 509.5>
Fore
303 130 m 1x80
 381 319 l 1
 395 355 403 378 403 389 c 0
 403 403 392 408 361 408 c 0
 351 408 350 409 350 418 c 2x80
 350 433 l 2
 350 442 352 444 360 444 c 0x20
 363 444 369 444 375 443 c 0
 393 441 428 438 438 438 c 0x80
 445 438 494 442 501 443 c 0
 504 444 505 444 507 444 c 0x20
 512 444 513 442 513 433 c 2
 513 418 l 2
 513 409 513 409 496 407 c 0
 467 401 459 391 442 346 c 1
 293 -4 l 2
 286 -21 285 -22 273 -22 c 2
 258 -22 l 2
 247 -22 245 -20 237 -1 c 2
 107 311 l 1
 76 384 56 407 27 407 c 0
 11 408 11 408 11 418 c 2x80
 11 433 l 2
 11 441 13 444 20 444 c 2
 27 444 l 2x20
 46 442 112 439 129 439 c 0x40
 141 439 161 440 188 442 c 0
 210 443 235 444 243 444 c 0x20
 253 444 256 441 256 433 c 2
 256 418 l 2
 256 409 254 408 243 408 c 0
 219 408 200 399 200 388 c 0
 200 382 204 372 218 337 c 2
 303 130 l 1x80
EndSplineSet
KernsSLIF: 59 6 0 0 115 -11 0 0 46 -66 0 0 249 -33 0 0 305 -31 0 0 303 -31 0 0 304 -31 0 0 111 -31 0 0 108 -21 0 0 45 -18 0 0 103 -20 0 0 296 -24 0 0 297 -24 0 0 295 -24 0 0 101 -24 0 0 44 -63 0 0 58 7 0 0 99 -31 0 0 291 -24 0 0 292 -25 0 0 289 -25 0 0 241 -19 0 0 287 -26 0 0 290 -25 0 0 288 -25 0 0 97 -22 0 0
EndChar
StartChar: w
Encoding: 119 119 88
Width: 756
Flags: W
HStem: 418 20<338 338> 419 20 424 20<22.5 28 492.5 499 591 598 726.5 731.5>
Fore
377 250 m 1x40
 268 -22 l 1
 231 -22 l 1
 90 342 l 2
 68 399 58 409 20 408 c 0
 16 408 14 412 14 419 c 2x40
 14 431 l 2
 14 441 17 444 28 444 c 2x20
 328 439 l 1x40
 338 438 l 2x80
 348 437 397 439 480 443 c 0
 486 444 491 444 494 444 c 0x20
 504 444 507 441 507 431 c 2
 507 419 l 2
 507 408 507 408 486 407 c 0
 462 407 447 399 447 386 c 0
 447 382 454 361 467 323 c 1
 535 146 l 1
 608 323 l 2
 621 354 630 382 630 389 c 0
 630 400 616 407 595 407 c 0
 583 407 582 408 582 419 c 2x40
 582 431 l 2
 582 440 586 444 596 444 c 0x20
 600 444 600 444 633 441 c 0
 648 440 659 439 666 439 c 0x40
 677 439 707 441 718 443 c 0
 722 444 725 444 728 444 c 0x20
 735 444 739 440 739 431 c 2
 739 419 l 2
 739 408 738 407 723 406 c 0
 695 403 685 392 658 330 c 1
 515 -22 l 1
 475 -22 l 1
 377 250 l 1x40
356 307 m 1
 342 349 l 2
 335 370 325 390 319 395 c 0
 309 404 288 409 258 409 c 0
 217 409 194 402 194 390 c 0
 194 385 202 360 211 338 c 2
 291 140 l 1
 356 307 l 1
EndSplineSet
KernsSLIF: 59 9 0 0 115 -9 0 0 46 -60 0 0 249 -31 0 0 305 -28 0 0 303 -28 0 0 304 -28 0 0 111 -28 0 0 108 -19 0 0 45 -16 0 0 103 -17 0 0 296 -21 0 0 297 -21 0 0 295 -21 0 0 101 -21 0 0 44 -56 0 0 58 10 0 0 99 -28 0 0 291 -21 0 0 292 -22 0 0 289 -23 0 0 241 -17 0 0 287 -24 0 0 290 -23 0 0 288 -23 0 0 97 -20 0 0
EndChar
StartChar: x
Encoding: 120 120 89
Width: 535
Flags: W
HStem: -8 20 0 20 418 20 424 20<37 44 44 44 264 267 267 271.5 337.5 346.5 499 503>
Fore
321 248 m 1xa0
 424 97 l 2
 464 39 476 29 502 28 c 0
 515 28 517 28 517 19 c 2
 517 5 l 2
 517 -5 514 -8 506 -8 c 0x80
 502 -8 498 -8 492 -7 c 0
 479 -5 412 0 399 0 c 0x40
 378 0 376 0 300 -7 c 2
 279 -8 l 2
 268 -8 266 -6 266 5 c 2
 266 18 l 2
 266 27 269 29 286 29 c 0
 307 29 322 35 322 44 c 0
 322 51 313 68 291 98 c 1
 243 168 l 1
 194 105 l 2
 171 76 157 53 157 45 c 0
 157 35 172 28 192 28 c 0
 208 28 210 27 210 19 c 2
 210 5 l 2
 210 -6 208 -8 196 -8 c 2x80
 182 -7 l 2
 150 -2 123 0 106 0 c 0x40
 88 0 72 -2 39 -7 c 0
 34 -8 30 -8 26 -8 c 0
 20 -8 19 -5 19 5 c 2
 19 19 l 2
 19 28 19 28 43 29 c 0
 77 32 101 50 144 105 c 2
 219 201 l 1
 110 360 l 2
 84 399 76 405 47 407 c 0
 27 407 27 407 27 418 c 2xa0
 27 433 l 2
 27 441 30 444 37 444 c 2
 44 444 l 2
 68 441 115 439 156 439 c 0
 190 439 190 439 264 444 c 2
 267 444 l 2x10
 276 444 278 442 278 433 c 2
 278 418 l 2
 278 409 278 409 245 408 c 0
 231 407 226 405 226 397 c 0
 226 390 236 372 252 348 c 2
 298 278 l 1
 347 341 l 2
 373 374 378 382 378 391 c 0
 378 402 367 407 337 408 c 0
 331 408 329 410 329 418 c 2xa0
 329 433 l 2
 329 443 331 444 344 444 c 0x10
 349 444 365 442 385 440 c 0
 397 439 408 438 420 438 c 0xa0
 432 438 447 439 463 440 c 0
 486 443 498 444 500 444 c 0x10
 506 444 508 441 508 433 c 2
 508 418 l 2
 508 408 507 408 485 407 c 0
 451 404 434 391 390 335 c 2
 321 248 l 1xa0
EndSplineSet
KernsSLIF: 113 -28 0 0 111 -36 0 0 295 -20 0 0 101 -20 0 0 99 -23 0 0 97 -1 0 0
EndChar
StartChar: y
Encoding: 121 121 90
Width: 516
Flags: W
HStem: -268 105 409 35 419 20
Fore
235 2 m 1xa0
 91 334 l 2
 63 398 50 410 11 409 c 0
 7 409 5 411 5 419 c 2
 5 434 l 2
 5 441 8 444 16 444 c 0
 19 444 23 444 28 443 c 0
 44 442 106 439 129 439 c 0
 154 439 218 442 232 443 c 0
 236 444 241 444 244 444 c 0
 251 444 254 441 254 434 c 2
 254 419 l 2x20
 254 410 252 409 232 408 c 0
 209 408 195 400 195 387 c 0
 195 380 202 359 213 334 c 2
 295 146 l 1
 368 320 l 1
 385 359 392 380 392 387 c 0
 392 399 378 409 361 409 c 0x40
 360 409 357 409 354 408 c 2
 351 408 l 2
 344 407 342 410 342 419 c 2x20
 342 434 l 2
 342 442 344 444 350 444 c 0x40
 352 444 356 444 360 443 c 0
 371 441 410 439 429 439 c 0
 443 439 478 441 492 443 c 0
 496 444 500 444 503 444 c 0
 508 444 510 442 510 434 c 2
 510 419 l 2
 510 411 505 408 487 407 c 0
 453 403 442 390 414 324 c 1
 224 -132 l 2
 184 -228 145 -268 89 -268 c 0
 45 -268 18 -245 18 -209 c 0
 18 -176 42 -155 78 -155 c 0
 91 -155 100 -156 124 -161 c 0
 130 -162 136 -163 141 -163 c 0
 162 -163 172 -153 187 -115 c 1
 235 2 l 1xa0
EndSplineSet
KernsSLIF: 59 7 0 0 115 -8 0 0 46 -67 0 0 249 -30 0 0 305 -28 0 0 303 -28 0 0 304 -28 0 0 111 -28 0 0 108 -13 0 0 45 -17 0 0 103 -17 0 0 296 -21 0 0 297 -21 0 0 295 -21 0 0 101 -21 0 0 44 -64 0 0 58 8 0 0 99 -28 0 0 291 -21 0 0 292 -22 0 0 289 -22 0 0 241 -16 0 0 287 -23 0 0 290 -22 0 0 288 -22 0 0 97 -19 0 0
EndChar
StartChar: z
Encoding: 122 122 91
Width: 479
Flags: W
HStem: -8 20 0 38<221.5 238.5> 398 40<248 276.5> 421 20<410 417.5>
Fore
284 398 m 1xa0
 199 398 l 2
 157 398 146 397 130 390 c 0
 110 383 96 371 86 356 c 0
 76 338 72 334 67 335 c 0
 66 335 65 335 63 336 c 2
 47 341 l 2
 43 342 41 344 41 347 c 0
 41 348 41 351 42 353 c 1
 75 471 l 2
 77 479 78 479 85 480 c 1
 97 479 l 2
 106 478 106 478 109 468 c 0
 114 452 122 446 143 443 c 0
 160 441 230 438 266 438 c 0x20
 287 438 317 439 357 440 c 2
 410 441 l 2
 425 441 430 439 430 433 c 0
 430 429 428 425 423 417 c 2
 249 147 l 2
 206 81 188 50 188 43 c 0
 188 39 189 39 205 38 c 2
 299 38 l 2x50
 364 38 380 45 402 84 c 0
 407 92 412 101 418 110 c 2
 421 115 l 1
 426 115 427 115 430 114 c 2
 444 110 l 2
 448 109 449 108 454 106 c 1
 446 73 444 64 439 48 c 0
 435 38 432 27 429 16 c 0
 424 -6 422 -8 413 -8 c 0x80
 410 -8 346 -5 326 -4 c 0
 281 -1 246 0 231 0 c 0x50
 212 0 163 -1 135 -3 c 2
 62 -6 l 1
 39 -8 l 2
 34 -8 30 -4 30 1 c 0
 30 6 35 16 42 27 c 2
 284 398 l 1xa0
EndSplineSet
EndChar
StartChar: braceleft
Encoding: 123 123 92
Width: 498
Flags: W
VStem: 175 132<-85 -54.5 575.5 609.5> 206 120<102.5 128.5 393 419>
Fore
70 240 m 1x40
 70 281 l 1
 111 296 129 305 150 320 c 0
 186 345 206 377 206 409 c 0x40
 206 429 201 455 193 484 c 0
 181 522 175 556 175 582 c 0
 175 637 214 686 283 719 c 0
 324 739 361 747 439 757 c 1
 439 716 l 1
 347 682 307 643 307 586 c 0x80
 307 565 310 538 316 507 c 0
 323 477 326 448 326 424 c 0
 326 348 278 304 151 261 c 1
 277 219 326 173 326 97 c 0x40
 326 74 323 44 316 14 c 0
 310 -16 307 -44 307 -65 c 0
 307 -122 346 -161 439 -195 c 1
 439 -236 l 1
 348 -225 306 -213 259 -185 c 0
 205 -153 175 -109 175 -61 c 0x80
 175 -34 181 0 193 38 c 0
 201 67 206 93 206 112 c 0
 206 145 186 176 150 202 c 0
 129 217 111 225 70 240 c 1x40
EndSplineSet
EndChar
StartChar: bar
Encoding: 124 124 93
Width: 498
Flags: MW
VStem: 223 51<-250 750>
Fore
223 750 m 1
 274 750 l 1
 274 -250 l 1
 223 -250 l 1
 223 750 l 1
EndSplineSet
EndChar
StartChar: braceright
Encoding: 125 125 94
Width: 498
Flags: W
VStem: 172 120<102.5 128.5 386.5 419> 191 132<-88.5 -54.5 575.5 606>
Fore
428 281 m 1x80
 428 240 l 1
 387 225 369 217 348 202 c 0
 312 176 292 145 292 112 c 0x80
 292 93 297 67 305 38 c 0
 317 0 323 -34 323 -61 c 0
 323 -116 284 -165 215 -198 c 0
 174 -218 137 -226 59 -236 c 1
 59 -195 l 1
 152 -161 191 -122 191 -65 c 0x40
 191 -44 188 -16 182 14 c 0
 175 44 172 74 172 97 c 0
 172 173 221 218 347 261 c 1
 220 304 172 349 172 424 c 0x80
 172 448 175 477 182 507 c 0
 188 538 191 565 191 586 c 0
 191 643 151 682 59 716 c 1
 59 757 l 1
 150 746 192 734 239 706 c 0
 293 674 323 630 323 582 c 0x40
 323 556 317 522 305 484 c 0
 297 455 292 429 292 409 c 0
 292 355 335 315 428 281 c 1x80
EndSplineSet
EndChar
StartChar: asciitilde
Encoding: 126 126 95
Width: 996
Flags: W
HStem: 615 70<584 589> 655 69<405 409>
Fore
679 733 m 1x80
 699 721 l 1
 665 655 614 615 564 615 c 0x80
 545 615 531 619 483 635 c 0
 434 652 421 655 397 655 c 0
 368 655 351 646 324 615 c 1
 315 606 l 1
 296 618 l 1
 337 690 380 724 430 724 c 0x40
 450 724 472 719 515 704 c 0
 556 689 574 685 594 685 c 0
 625 685 654 701 679 733 c 1x80
EndSplineSet
EndChar
StartChar: exclamdown
Encoding: 161 161 96
Width: 276
Flags: MW
HStem: 290 165<116 161>
Fore
134 217 m 2
 142 217 l 2
 150 217 150 216 153 201 c 1
 210 -108 l 1
 213 -127 218 -171 218 -185 c 0
 218 -229 187 -257 140 -257 c 0
 95 -257 64 -229 64 -187 c 0
 64 -176 64 -176 73 -108 c 1
 122 201 l 1
 125 216 125 217 134 217 c 2
138 455 m 0
 184 455 221 419 221 372 c 0
 221 327 184 290 138 290 c 0
 93 290 56 327 56 373 c 0
 56 418 94 455 138 455 c 0
EndSplineSet
EndChar
StartChar: cent
Encoding: 162 162 97
Width: 498
Flags: MW
HStem: -2 20 424 20<364 392.5>
VStem: 53 98 239 43<-2 101 211 529 529 529 578 682>
Fore
239 571 m 1
 239 682 l 1
 282 682 l 1
 282 578 l 1
 296 579 310 580 318 580 c 0
 380 580 431 543 431 498 c 0
 431 467 408 444 377 444 c 0
 351 444 333 458 312 494 c 0
 298 517 295 522 282 534 c 1
 282 191 l 1
 302 187 312 186 322 186 c 0
 358 186 372 193 419 231 c 2
 425 236 l 1
 450 210 l 1
 402 140 340 99 282 101 c 1
 282 -2 l 1
 239 -2 l 1
 239 101 l 1
 173 111 139 128 106 166 c 0
 73 205 53 262 53 321 c 0
 53 391 81 464 127 510 c 0
 158 541 190 558 239 571 c 1
239 211 m 1
 239 529 l 1
 206 514 193 504 178 481 c 0
 160 453 151 421 151 382 c 0
 151 342 161 302 177 273 c 0
 190 250 205 235 239 211 c 1
EndSplineSet
EndChar
StartChar: sterling
Encoding: 163 163 98
Width: 498
Flags: MW
HStem: -15 113<365.5 370> 337 41<39 40 40 119 222 313> 635 40<300.5 327>
VStem: 429 40<119.5 135>
Fore
39 378 m 2
 119 378 l 1
 117 407 116 435 116 455 c 0
 116 585 196 675 312 675 c 0
 388 675 453 632 453 581 c 0
 453 550 430 526 401 526 c 0
 366 526 346 551 347 591 c 0
 347 624 339 635 315 635 c 0
 286 635 269 616 258 572 c 0
 252 552 252 552 222 378 c 1
 314 378 l 2
 322 378 326 374 326 367 c 2
 326 347 l 2
 326 340 323 337 313 337 c 2
 212 337 l 1
 195 254 191 236 162 132 c 1
 209 129 222 127 281 113 c 0
 330 102 353 98 378 98 c 0
 408 98 429 111 429 128 c 0
 429 142 417 152 390 161 c 0
 347 176 336 185 336 211 c 0
 336 241 358 263 389 263 c 0
 435 263 469 215 469 149 c 0
 469 57 409 -15 331 -15 c 0
 299 -15 272 -3 236 28 c 0
 184 71 176 76 148 87 c 1
 144 77 139 69 135 61 c 0
 131 52 127 44 122 35 c 0
 106 1 85 -15 57 -15 c 0
 32 -15 16 1 16 27 c 0
 16 49 26 72 42 90 c 0
 60 109 79 119 124 132 c 1
 124 162 l 1
 124 246 l 1
 124 325 l 1
 124 337 l 1
 40 337 l 2
 30 337 26 340 26 349 c 2
 26 367 l 2
 26 373 32 378 39 378 c 2
EndSplineSet
EndChar
StartChar: fraction
Encoding: 164 8260 99
Width: 111
Flags: MW
HStem: -15 20
Fore
-135 7 m 2
 182 664 l 2
 186 672 190 676 196 676 c 2
 238 676 l 2
 243 676 247 672 247 669 c 0
 247 666 246 663 244 659 c 2
 -73 2 l 2
 -79 -10 -85 -15 -96 -15 c 2
 -130 -15 l 2
 -135 -15 -140 -11 -140 -7 c 0
 -140 -4 -138 1 -135 7 c 2
EndSplineSet
EndChar
StartChar: yen
Encoding: 165 165 100
Width: 498
Flags: W
HStem: -6 20 0 20 140 41<79 187 317 426> 265 41<79 187 317 426> 669 20<129.5 149 395 410> 675 20<23 35 234 242 319.5 328.5 474.5 479.5>
VStem: 187 130<181 265 306 326 326 326>
Fore
317 265 m 1x16
 317 181 l 1
 426 181 l 1
 426 140 l 1
 317 140 l 1
 316 69 325 49 361 38 c 1
 379 35 381 33 381 20 c 2x72
 381 8 l 2
 381 -3 378 -6 369 -6 c 2x82
 354 -5 l 2
 330 -2 294 0 259 0 c 0x72
 220 0 173 -2 158 -4 c 0
 149 -5 142 -6 138 -6 c 0
 128 -6 124 -1 124 10 c 2
 124 23 l 2
 124 37 127 40 142 42 c 0
 177 47 187 67 187 140 c 1
 79 140 l 1
 79 181 l 1
 187 181 l 1
 187 265 l 1
 79 265 l 1
 79 306 l 1
 187 306 l 1
 187 326 l 1
 86 582 l 2
 69 624 65 632 60 638 c 0
 54 646 46 649 29 651 c 0
 17 653 14 656 14 666 c 2
 14 679 l 2
 14 692 17 695 29 695 c 0xb6
 41 695 46 695 87 691 c 0
 103 690 122 689 137 689 c 0x0a
 161 689 187 690 209 693 c 0
 220 694 231 695 237 695 c 0
 247 695 251 691 251 678 c 2
 251 664 l 2
 251 651 248 649 234 648 c 0
 217 648 204 640 204 630 c 0
 204 624 204 624 216 592 c 2
 292 390 l 1
 365 606 l 1
 371 625 371 626 371 630 c 0
 371 641 359 646 330 648 c 0
 315 649 311 652 311 663 c 2
 311 676 l 2
 311 691 314 695 325 695 c 0xb6
 332 695 332 695 365 691 c 0
 377 690 390 689 400 689 c 0x0a
 420 689 445 691 462 693 c 0
 468 694 473 695 476 695 c 0
 483 695 486 691 486 683 c 2
 486 674 l 2
 486 663 486 663 458 659 c 0
 440 656 436 649 417 601 c 1
 317 333 l 1
 317 306 l 1
 426 306 l 1
 426 265 l 1
 317 265 l 1x16
EndSplineSet
EndChar
StartChar: florin
Encoding: 166 402 101
Width: 498
Flags: MW
HStem: -254 67<51.5 54> 396 46<120 187 296 368> 723 46<403.5 415.5>
Fore
187 396 m 1
 111 396 l 2
 102 396 99 398 99 404 c 2
 99 409 l 1
 102 429 l 1
 104 438 109 442 120 442 c 2
 194 442 l 1
 226 586 244 635 281 685 c 0
 323 742 372 769 435 769 c 0
 491 769 534 741 534 704 c 0
 534 680 514 660 490 660 c 0
 471 660 460 668 446 694 c 0
 435 715 424 723 407 723 c 0
 362 723 341 682 315 544 c 2
 296 442 l 1
 381 442 l 2
 387 442 392 437 391 431 c 1
 388 408 l 2
 387 400 380 396 368 396 c 2
 286 396 l 1
 223 92 l 2
 176 -134 101 -254 7 -254 c 0
 -23 -254 -44 -236 -44 -209 c 0
 -44 -185 -24 -164 -1 -164 c 0
 10 -164 23 -169 37 -179 c 0
 43 -184 49 -187 54 -187 c 0
 69 -187 78 -157 103 -30 c 2
 187 396 l 1
EndSplineSet
EndChar
StartChar: section
Encoding: 167 167 102
Width: 498
Flags: MW
HStem: -238 54 656 54
VStem: 38 60<429 469> 136 44<599 600 600 601> 299 42<-136 -135 -135 -131> 397 59<0.5 42>
Fore
287 710 m 0
 366 710 416 681 416 636 c 0
 416 605 389 581 353 581 c 0
 331 581 313 591 290 620 c 1
 263 651 256 656 234 656 c 0
 204 656 180 627 180 590 c 0
 180 542 205 497 301 374 c 0
 414 229 456 137 456 36 c 0
 456 -35 426 -107 373 -161 c 0
 322 -214 264 -238 186 -238 c 0
 100 -238 53 -212 53 -165 c 0
 53 -126 77 -99 111 -99 c 0
 139 -99 146 -104 180 -146 c 0
 201 -172 222 -184 247 -184 c 0
 276 -184 299 -156 299 -120 c 0
 299 -75 282 -43 189 89 c 0
 125 180 101 218 80 264 c 0
 50 328 38 378 38 434 c 0
 38 504 67 580 113 632 c 0
 158 683 218 710 287 710 c 0
342 -112 m 1
 342 -126 l 1
 341 -131 l 1
 341 -135 l 2
 341 -137 342 -138 343 -138 c 0
 345 -138 347 -137 350 -133 c 0
 376 -102 397 -38 397 8 c 0
 397 76 363 148 265 285 c 0
 154 441 135 484 135 575 c 0
 135 582 135 591 136 599 c 1
 136 600 l 2
 136 602 136 603 134 603 c 0
 121 603 98 521 98 471 c 0
 98 387 118 339 207 209 c 0
 316 51 343 -9 343 -88 c 0
 343 -96 343 -103 342 -112 c 1
EndSplineSet
EndChar
StartChar: currency
Encoding: 168 164 103
Width: 498
Flags: MW
HStem: 106 100<222 272.5> 479 100<226.5 274.5>
VStem: 11 100<317.5 363> 383 100<317 366.5>
Fore
-18 536 m 1
 46 601 l 1
 111 538 l 1
 166 568 203 579 250 579 c 0
 299 579 334 568 382 538 c 1
 447 601 l 1
 511 536 l 1
 444 472 l 1
 472 427 483 391 483 342 c 0
 483 292 473 259 444 214 c 1
 511 149 l 1
 447 86 l 1
 383 148 l 1
 331 116 298 106 247 106 c 0
 197 106 164 116 111 148 c 1
 46 86 l 1
 -18 149 l 1
 48 214 l 1
 21 262 11 295 11 340 c 0
 11 386 20 419 48 472 c 1
 -18 536 l 1
247 479 m 0
 173 479 111 418 111 345 c 0
 111 267 171 206 246 206 c 0
 322 206 383 267 383 342 c 0
 383 418 322 479 247 479 c 0
EndSplineSet
EndChar
StartChar: quotesingle
Encoding: 169 39 104
Width: 258
Flags: W
Fore
105 462 m 1
 76 642 l 1
 74 653 73 662 73 670 c 0
 73 698 99 721 129 721 c 0
 160 721 186 698 186 670 c 0
 186 665 185 655 183 642 c 2
 153 462 l 2
 151 450 146 444 136 444 c 2
 122 444 l 2
 112 444 108 450 105 462 c 1
EndSplineSet
EndChar
StartChar: quotedblleft
Encoding: 170 8220 105
Width: 461
Flags: MW
HStem: 674 20<198 209.5 396 407.5>
VStem: 45 80 243 80
Fore
403 694 m 0
 412 694 420 683 420 669 c 0
 420 662 418 661 402 655 c 0
 355 639 323 610 323 585 c 0
 323 564 334 554 369 545 c 0
 397 538 413 517 413 487 c 0
 413 451 384 426 342 426 c 0
 285 426 243 471 243 533 c 0
 243 586 277 636 336 669 c 0
 361 684 389 694 403 694 c 0
205 694 m 0
 214 694 222 683 222 669 c 0
 222 662 220 661 204 655 c 0
 157 639 125 610 125 585 c 0
 125 574 132 561 141 555 c 0
 148 551 150 551 171 545 c 0
 199 538 215 517 215 487 c 0
 215 451 186 426 144 426 c 0
 87 426 45 471 45 533 c 0
 45 586 79 636 138 669 c 0
 162 683 191 694 205 694 c 0
EndSplineSet
KernsSLIF: 89 17 1 0 87 15 1 0 86 18 1 0 84 7 1 0 261 -66 1 0 256 -66 1 0 257 -66 1 0 225 -102 1 0 65 -66 1 0
EndChar
StartChar: guillemotleft
Encoding: 171 171 106
Width: 479
Flags: W
Fore
164 236 m 1
 255 89 l 2
 261 80 263 76 263 73 c 0
 263 69 255 62 250 62 c 0
 247 62 246 63 235 71 c 1
 64 215 l 2
 52 225 46 232 46 236 c 0
 46 240 50 244 64 256 c 2
 235 399 l 2
 244 406 249 409 251 409 c 0
 256 409 264 402 264 399 c 0
 264 395 264 395 254 379 c 2
 164 236 l 1
329 236 m 1
 418 93 l 2
 428 77 428 77 428 74 c 0
 428 69 419 62 414 62 c 0
 411 62 406 65 395 75 c 2
 228 217 l 2
 211 232 211 232 211 236 c 0
 211 241 214 245 229 257 c 2
 399 398 l 1
 412 410 413 410 417 410 c 0
 421 410 429 403 429 400 c 0
 429 396 429 396 418 379 c 2
 329 236 l 1
EndSplineSet
EndChar
StartChar: guilsinglleft
Encoding: 172 8249 107
Width: 314
Flags: W
Fore
172 236 m 1
 263 89 l 2
 269 80 271 76 271 73 c 0
 271 69 263 62 258 62 c 0
 255 62 254 63 243 71 c 1
 72 215 l 2
 60 225 54 232 54 236 c 0
 54 240 58 244 72 256 c 2
 243 399 l 2
 252 406 257 409 259 409 c 0
 264 409 272 402 272 399 c 0
 272 395 272 395 262 379 c 2
 172 236 l 1
EndSplineSet
EndChar
StartChar: guilsinglright
Encoding: 173 8250 108
Width: 313
Flags: W
Fore
147 236 m 1
 57 379 l 2
 48 394 47 396 47 399 c 0
 47 402 55 409 60 409 c 0
 62 409 67 406 76 399 c 2
 247 256 l 2
 262 244 265 240 265 236 c 0
 265 232 259 225 247 215 c 2
 76 71 l 2
 66 63 64 62 61 62 c 0
 56 62 48 69 48 73 c 0
 48 76 49 79 56 89 c 1
 147 236 l 1
EndSplineSet
KernsSLIF: 89 -111 1 0 87 -96 1 0 86 -93 1 0 84 -102 1 0 261 -50 1 0 256 -50 1 0 257 -50 1 0 225 -67 1 0 65 -50 1 0
EndChar
StartChar: fi
Encoding: 174 64257 109
Width: 593
Flags: W
HStem: -8 20 0 20 384 50<47 101 212 295> 711 58
VStem: 101 111<146 149 149 384 434 478.5> 395 111<146 313 313 328>
Fore
212 384 m 1xbc
 212 149 l 2
 212 46 220 30 269 27 c 0
 278 26 279 25 279 16 c 2
 279 4 l 2
 279 -5 277 -8 272 -8 c 0xbc
 267 -8 261 -8 254 -7 c 0
 219 -3 175 0 155 0 c 0x4c
 131 0 128 0 60 -7 c 1
 36 -8 l 2
 29 -8 28 -6 28 4 c 2
 28 16 l 2
 28 25 29 26 38 27 c 0
 75 29 85 34 92 52 c 0
 97 66 101 103 101 146 c 2
 101 384 l 1
 47 384 l 2
 36 384 31 388 31 395 c 2
 31 424 l 2
 31 430 38 434 47 434 c 2
 101 434 l 1
 101 523 105 555 121 595 c 0
 139 638 172 681 217 715 c 1
 264 753 309 769 366 769 c 0
 449 769 519 725 519 673 c 0
 519 639 488 610 452 610 c 0
 429 610 411 619 396 640 c 0
 392 645 384 660 369 685 c 1
 360 703 345 711 323 711 c 0
 289 711 260 694 240 663 c 0
 220 631 212 591 212 523 c 2
 212 434 l 1
 318 434 l 2
 388 434 413 438 471 457 c 0
 479 460 487 462 492 462 c 0
 503 462 506 457 506 444 c 2
 506 146 l 2
 506 50 515 30 558 27 c 0
 567 26 568 25 568 16 c 2
 568 4 l 2
 568 -5 566 -8 561 -8 c 0xbc
 556 -8 550 -8 543 -7 c 0
 501 -2 474 0 450 0 c 0x4c
 426 0 422 0 353 -7 c 1
 330 -8 l 2
 323 -8 322 -6 322 4 c 2
 322 16 l 2
 322 25 323 26 332 27 c 0
 369 29 379 34 386 52 c 0
 392 67 395 102 395 146 c 2
 395 313 l 2
 395 343 387 362 371 373 c 0
 359 382 344 384 295 384 c 2
 212 384 l 1xbc
EndSplineSet
Ligature: 0 0 'liga' f i
EndChar
StartChar: fl
Encoding: 175 64258 110
Width: 593
Flags: W
HStem: -8 20 0 20 384 50<43 97 210 296> 711 58
VStem: 97 111<146 149 149 384> 395 111<149 560 560 565>
Fore
208 384 m 1xbc
 208 149 l 2
 208 97 213 59 221 45 c 0
 228 33 238 29 265 27 c 0
 274 26 275 25 275 16 c 2
 275 4 l 2
 275 -5 273 -8 268 -8 c 0xac
 263 -8 257 -8 250 -7 c 0
 215 -3 172 0 151 0 c 0x4c
 127 0 124 0 56 -7 c 1
 32 -8 l 2
 25 -8 24 -6 24 4 c 2
 24 16 l 2
 24 25 25 26 34 27 c 0
 71 29 81 34 88 52 c 0
 93 66 97 103 97 146 c 2
 97 384 l 1
 43 384 l 2
 32 384 27 388 27 395 c 2
 27 424 l 2
 27 429 34 434 43 434 c 2
 97 434 l 1
 97 539 104 575 132 624 c 0
 156 665 199 708 242 734 c 0
 279 757 323 769 370 769 c 0
 400 769 421 766 462 755 c 1
 472 758 l 1
 487 765 l 2
 493 768 498 770 501 770 c 0
 505 770 510 763 510 757 c 1
 506 565 l 1
 506 149 l 2
 506 50 515 30 558 27 c 0
 567 26 568 25 568 16 c 2
 568 4 l 2
 568 -5 566 -8 561 -8 c 0xbc
 556 -8 550 -8 543 -7 c 0
 502 -2 474 0 450 0 c 0x4c
 426 0 422 0 354 -7 c 1
 330 -8 l 2
 324 -8 322 -6 322 4 c 2
 322 16 l 2
 322 25 323 27 332 27 c 0
 368 29 379 34 386 52 c 0
 392 67 395 102 395 149 c 2
 395 560 l 2
 395 670 373 711 312 711 c 0
 246 711 210 657 210 558 c 2
 210 434 l 1
 298 434 l 2
 317 434 322 431 322 420 c 2
 322 395 l 2
 322 386 318 384 296 384 c 2
 208 384 l 1xbc
EndSplineSet
Ligature: 0 0 'liga' f l
EndChar
StartChar: endash
Encoding: 177 8211 111
Width: 498
Flags: MW
HStem: 194 83<52 439>
Fore
35 214 m 2
 35 257 l 2
 35 272 39 277 52 277 c 2
 439 277 l 2
 452 277 456 272 456 257 c 2
 456 214 l 2
 456 199 452 194 439 194 c 2
 52 194 l 2
 39 194 35 199 35 214 c 2
EndSplineSet
EndChar
StartChar: dagger
Encoding: 178 8224 112
Width: 498
Flags: MW
HStem: 674 20<229 269>
Fore
323 274 m 1
 307 190 l 1
 280 22 266 -89 262 -184 c 1
 261 -215 l 1
 260 -237 259 -238 251 -238 c 2
 245 -238 l 2
 235 -238 233 -235 233 -215 c 2
 233 -184 l 2
 233 -120 219 3 199 114 c 0
 195 141 190 166 186 190 c 2
 172 274 l 1
 211 320 229 365 234 422 c 1
 220 418 220 418 198 410 c 0
 173 400 149 390 124 381 c 0
 109 375 93 372 80 372 c 0
 47 372 23 397 23 431 c 0
 23 467 48 491 85 491 c 0
 116 491 130 486 198 455 c 0
 208 451 219 447 235 442 c 1
 235 470 228 491 197 561 c 0
 188 582 183 606 183 625 c 0
 183 666 209 694 249 694 c 0
 289 694 315 667 315 625 c 0
 315 597 309 576 284 523 c 0
 266 485 261 469 260 443 c 1
 284 448 287 449 316 462 c 0
 366 484 392 491 417 491 c 0
 454 491 478 468 478 432 c 0
 478 397 451 372 413 372 c 0
 393 372 375 377 317 402 c 0
 286 415 284 415 260 422 c 1
 262 373 288 313 323 274 c 1
EndSplineSet
EndChar
StartChar: daggerdbl
Encoding: 179 8225 113
Width: 498
Flags: MW
HStem: -8 20 684 20<229.5 270.5>
Fore
233 76 m 1
 230 109 l 1
 222 171 211 213 180 291 c 1
 221 362 229 382 233 441 c 1
 148 401 111 388 83 388 c 0
 49 388 24 418 24 457 c 0
 24 495 53 526 89 526 c 0
 118 526 156 512 232 473 c 1
 187 586 179 613 179 640 c 0
 179 677 209 704 250 704 c 0
 291 704 321 677 321 640 c 0
 321 613 314 590 268 473 c 1
 344 512 382 526 411 526 c 0
 447 526 476 495 476 457 c 0
 476 418 451 388 417 388 c 0
 389 388 352 401 267 441 c 1
 272 382 279 361 320 291 c 1
 290 213 278 171 271 109 c 1
 267 76 l 1
 352 116 389 129 417 129 c 0
 451 129 476 100 476 60 c 0
 476 22 447 -8 411 -8 c 0
 382 -8 344 6 268 45 c 1
 315 -75 321 -94 321 -122 c 0
 321 -159 291 -186 250 -186 c 0
 209 -186 179 -159 179 -122 c 0
 179 -94 186 -72 232 45 c 1
 156 6 118 -8 89 -8 c 0
 53 -8 24 23 24 60 c 0
 24 100 49 129 83 129 c 0
 111 129 149 116 233 76 c 1
EndSplineSet
EndChar
StartChar: periodcentered
Encoding: 180 183 114
Width: 276
Flags: W
Fore
138 385 m 0
 184 385 221 349 221 303 c 0
 221 257 184 220 138 220 c 0
 93 220 56 257 56 303 c 0
 56 348 94 385 138 385 c 0
EndSplineSet
EndChar
StartChar: paragraph
Encoding: 182 182 115
Width: 498
Flags: MW
HStem: 704 41<410 478 410 410>
VStem: 285 39<-159 279 279 279> 371 39<-159 704>
Fore
478 745 m 1
 478 704 l 1
 410 704 l 1
 410 -159 l 1
 371 -159 l 1
 371 704 l 1
 324 704 l 1
 324 -159 l 1
 285 -159 l 1
 285 279 l 1
 215 293 186 304 153 329 c 0
 97 371 65 435 65 507 c 0
 65 584 103 655 165 693 c 0
 221 729 291 745 386 745 c 2
 478 745 l 1
EndSplineSet
EndChar
StartChar: bullet
Encoding: 183 8226 116
Width: 498
Flags: W
Fore
252 540 m 0
 350 540 431 458 431 359 c 0
 431 258 350 177 250 177 c 0
 149 177 68 258 68 360 c 0
 68 460 150 540 252 540 c 0
EndSplineSet
EndChar
StartChar: quotesinglbase
Encoding: 184 8218 117
Width: 258
Flags: MW
VStem: 140 70
Fore
51 -121 m 2
 40 -107 l 2
 38 -104 37 -103 37 -100 c 0
 37 -95 41 -92 53 -88 c 0
 87 -77 95 -73 111 -58 c 0
 129 -42 140 -23 140 -7 c 0
 140 8 130 17 106 22 c 0
 61 32 44 49 44 85 c 0
 44 122 73 148 114 148 c 0
 169 148 210 101 210 37 c 0
 210 -24 166 -84 100 -113 c 2
 81 -121 l 2
 73 -125 66 -127 61 -127 c 0
 58 -127 54 -125 51 -121 c 2
EndSplineSet
EndChar
StartChar: quotedblbase
Encoding: 185 8222 118
Width: 461
Flags: MW
VStem: 138 80 336 80
Fore
120 148 m 0
 177 148 218 103 218 40 c 0
 218 -13 185 -62 125 -96 c 0
 100 -110 72 -121 58 -121 c 0
 49 -121 41 -109 41 -95 c 0
 41 -89 43 -87 59 -82 c 0
 106 -66 138 -37 138 -11 c 0
 138 10 127 20 92 29 c 0
 64 36 49 57 49 87 c 0
 49 123 78 148 120 148 c 0
318 148 m 0
 375 148 416 103 416 40 c 0
 416 -13 383 -62 323 -96 c 0
 298 -110 270 -121 256 -121 c 0
 247 -121 239 -109 239 -95 c 0
 239 -89 241 -87 257 -82 c 0
 304 -66 336 -37 336 -12 c 0
 336 10 325 20 290 29 c 0
 263 36 247 57 247 87 c 0
 247 122 276 148 318 148 c 0
EndSplineSet
KernsSLIF: 89 -71 1 0 87 -95 1 0 86 -86 1 0 84 -63 1 0 225 21 1 0 65 16 1 0
EndChar
StartChar: quotedblright
Encoding: 186 8221 119
Width: 461
Flags: MW
HStem: 674 20<100 149.5 298 347.5>
VStem: 139 80 337 80
Fore
121 694 m 0
 178 694 219 649 219 586 c 0
 219 533 186 484 126 450 c 0
 101 435 73 425 59 425 c 0
 50 425 42 437 42 451 c 0
 42 457 44 459 60 464 c 0
 108 481 139 509 139 534 c 0
 139 556 128 565 93 575 c 0
 65 582 50 603 50 633 c 0
 50 669 79 694 121 694 c 0
319 694 m 0
 376 694 417 649 417 586 c 0
 417 533 384 484 324 450 c 0
 299 435 271 425 257 425 c 0
 248 425 240 437 240 451 c 0
 240 457 243 459 258 464 c 0
 306 481 337 509 337 534 c 0
 337 556 326 565 291 575 c 0
 263 582 248 603 248 633 c 0
 248 669 277 694 319 694 c 0
EndSplineSet
KernsSLIF: 89 10 1 0 87 10 1 0 86 11 1 0 84 13 1 0 261 -68 1 0 256 -68 1 0 257 -68 1 0 225 -104 1 0 65 -68 1 0
EndChar
StartChar: guillemotright
Encoding: 187 187 120
Width: 479
Flags: W
Fore
314 236 m 1
 224 379 l 2
 216 392 214 396 214 399 c 0
 214 402 222 409 226 409 c 0
 229 409 234 406 243 399 c 2
 414 256 l 2
 429 243 432 240 432 236 c 0
 432 232 427 226 414 215 c 2
 243 71 l 1
 232 63 231 62 228 62 c 0
 223 62 215 69 215 73 c 0
 215 76 217 80 222 89 c 2
 314 236 l 1
149 236 m 1
 60 379 l 2
 49 396 49 396 49 400 c 0
 49 403 57 410 61 410 c 0
 65 410 65 410 79 398 c 2
 249 257 l 2
 267 241 267 241 267 236 c 0
 267 232 266 231 249 217 c 2
 83 75 l 2
 72 65 66 62 63 62 c 0
 58 62 49 70 49 73 c 0
 49 76 49 76 60 93 c 2
 149 236 l 1
EndSplineSet
KernsSLIF: 89 -111 1 0 87 -96 1 0 86 -93 1 0 84 -101 1 0 261 -49 1 0 256 -49 1 0 257 -49 1 0 225 -66 1 0 65 -49 1 0
EndChar
StartChar: ellipsis
Encoding: 188 8230 121
Width: 830
Flags: MW
HStem: -15 20
VStem: 68 139<36 73.5> 344 139<36 73.5> 619 139<36 73.5>
Fore
137 124 m 0
 176 124 207 93 207 54 c 0
 207 16 176 -15 137 -15 c 0
 98 -15 68 16 68 56 c 0
 68 93 100 124 137 124 c 0
413 124 m 0
 452 124 483 93 483 54 c 0
 483 16 452 -15 413 -15 c 0
 374 -15 344 16 344 56 c 0
 344 93 376 124 413 124 c 0
688 124 m 0
 727 124 758 93 758 54 c 0
 758 15 727 -15 688 -15 c 0
 649 -15 619 16 619 56 c 0
 619 93 651 124 688 124 c 0
EndSplineSet
Ligature: 0 1 'liga' period period period
EndChar
StartChar: perthousand
Encoding: 189 8240 122
Width: 1143
Flags: W
HStem: -7 43<563 606.5 924 968> 306 43<563.5 607.5 925 969.5> 320 43<170 214> 632 43<171 215.5>
VStem: 34 89<455 541.5> 263 88<458 540.5> 427 89<129 215> 655 88<131 214> 788 89<129 215.5> 1017 88<131 214>
Fore
585 349 m 0xdfc0
 674 349 743 271 743 171 c 0
 743 71 674 -7 585 -7 c 0
 495 -7 427 70 427 173 c 0
 427 271 497 349 585 349 c 0xdfc0
586 306 m 0
 541 306 516 258 516 172 c 0
 516 86 541 36 585 36 c 0
 628 36 655 89 655 173 c 0
 655 255 629 306 586 306 c 0
947 349 m 0
 1036 349 1105 271 1105 171 c 0
 1105 71 1036 -7 947 -7 c 0
 856 -7 788 70 788 173 c 0
 788 271 858 349 947 349 c 0
948 306 m 0
 902 306 877 259 877 172 c 0
 877 86 902 36 946 36 c 0
 990 36 1017 89 1017 173 c 0
 1017 255 991 306 948 306 c 0
210 15 m 2
 504 662 l 2
 509 673 512 675 522 675 c 2
 553 675 l 2
 560 675 565 671 565 666 c 0
 565 663 564 659 562 654 c 2
 270 12 l 2
 262 -5 260 -7 251 -7 c 2
 219 -7 l 2
 212 -7 205 -3 205 1 c 0
 205 3 207 8 210 15 c 2
193 675 m 0
 282 675 351 598 351 498 c 0
 351 398 282 320 193 320 c 0x3fc0
 102 320 34 397 34 500 c 0
 34 597 104 675 193 675 c 0
194 632 m 0
 148 632 123 585 123 498 c 0
 123 412 148 363 192 363 c 0
 236 363 263 416 263 500 c 0
 263 581 237 632 194 632 c 0
EndSplineSet
EndChar
StartChar: questiondown
Encoding: 191 191 123
Width: 387
Flags: MW
HStem: -257 118 290 165<217 262.5>
VStem: 54 54 157 165<349.5 395>
Fore
272 150 m 1
 275 65 l 1
 275 59 l 2
 275 50 273 47 264 47 c 0
 211 42 160 22 130 -6 c 0
 116 -18 108 -38 108 -57 c 0
 108 -103 152 -139 206 -139 c 0
 215 -139 226 -138 241 -136 c 0
 254 -134 267 -133 275 -133 c 0
 313 -133 337 -156 337 -193 c 0
 337 -233 310 -257 265 -257 c 0
 209 -257 182 -243 133 -188 c 0
 76 -123 54 -69 54 11 c 0
 54 66 69 97 106 119 c 0
 127 132 137 136 201 154 c 0
 222 160 226 168 229 219 c 0
 229 238 230 239 251 239 c 0
 257 239 259 238 261 237 c 0
 266 232 270 192 272 150 c 1
240 455 m 0
 285 455 322 418 322 372 c 0
 322 327 285 290 240 290 c 0
 193 290 157 326 157 373 c 0
 157 418 194 455 240 455 c 0
EndSplineSet
EndChar
StartChar: grave
Encoding: 193 96 124
Width: 498
Flags: W
Fore
271 523 m 2
 160 665 l 2
 139 692 130 710 130 726 c 0
 130 753 155 777 184 777 c 0
 209 777 223 761 240 716 c 2
 303 548 l 2
 304 545 305 542 305 541 c 0
 305 537 302 532 297 529 c 2
 286 521 l 2
 284 520 282 519 279 519 c 0
 276 519 273 521 271 523 c 2
EndSplineSet
EndChar
StartChar: acute
Encoding: 194 180 125
Width: 498
Flags: W
Fore
204 548 m 2
 267 716 l 2
 284 762 298 777 323 777 c 0
 352 777 377 753 377 726 c 0
 377 710 368 692 347 665 c 2
 236 523 l 2
 234 521 231 519 228 519 c 0
 225 519 223 520 220 521 c 2
 209 529 l 2
 205 532 202 537 202 541 c 0
 202 543 203 545 204 548 c 2
EndSplineSet
EndChar
StartChar: circumflex
Encoding: 195 710 126
Width: 498
Flags: W
Fore
251 661 m 1
 151 525 l 2
 149 522 145 519 142 519 c 0
 139 519 136 520 133 522 c 2
 124 530 l 2
 121 533 119 536 119 538 c 0
 119 541 120 545 122 549 c 1
 175 691 l 1
 196 749 197 750 210 763 c 0
 218 771 235 777 250 777 c 0
 279 777 296 766 309 740 c 0
 311 736 317 719 328 691 c 1
 381 549 l 2
 383 544 384 540 384 538 c 0
 384 536 382 533 379 530 c 2
 369 522 l 2
 367 520 364 519 361 519 c 0
 358 519 354 521 351 525 c 2
 251 661 l 1
EndSplineSet
EndChar
StartChar: tilde
Encoding: 196 732 127
Width: 498
Flags: W
HStem: 535 91<325 330.5> 604 91<182 192> 672 20<382.5 386>
Fore
114 539 m 2x40
 105 546 l 2
 101 549 99 553 99 558 c 0
 99 569 110 607 120 629 c 0
 138 673 165 695 199 695 c 0x40
 225 695 230 693 287 648 c 0
 307 632 319 626 331 626 c 0
 349 626 364 645 374 678 c 0
 377 688 380 692 385 692 c 0
 387 692 390 691 393 690 c 2
 406 682 l 2
 409 680 412 675 412 671 c 0
 412 659 399 614 390 596 c 0
 372 557 345 535 316 535 c 0xa0
 293 535 273 545 241 572 c 0
 213 597 200 604 184 604 c 0
 166 604 151 588 137 553 c 0
 132 541 128 536 122 536 c 0
 120 536 116 537 114 539 c 2x40
EndSplineSet
EndChar
StartChar: macron
Encoding: 197 175 128
Width: 498
Flags: MW
HStem: 584 65<113 380>
Fore
113 649 m 1
 380 649 l 1
 380 584 l 1
 113 584 l 1
 113 649 l 1
EndSplineSet
EndChar
StartChar: breve
Encoding: 198 728 129
Width: 498
Flags: MW
HStem: 512 59<225.5 267.5>
Fore
112 648 m 1
 171 648 l 1
 181 594 204 571 247 571 c 0
 289 571 312 594 323 648 c 1
 381 648 l 1
 376 607 368 583 350 559 c 0
 328 530 288 512 247 512 c 0
 199 512 158 534 136 571 c 0
 122 593 116 612 112 648 c 1
EndSplineSet
EndChar
StartChar: dotaccent
Encoding: 199 729 130
Width: 498
Flags: MW
HStem: 680 20<231 271>
Fore
251 700 m 0
 291 700 323 668 323 628 c 0
 323 587 291 555 250 555 c 0
 210 555 178 588 178 629 c 0
 178 667 211 700 251 700 c 0
EndSplineSet
EndChar
StartChar: dieresis
Encoding: 200 168 131
Width: 498
Flags: MW
HStem: 680 20<127.5 167 330 369.5>
VStem: 75 145<608.5 647> 277 145<608.5 647.5>
Fore
147 700 m 0
 187 700 220 667 220 627 c 0
 220 587 187 555 147 555 c 0
 107 555 75 588 75 629 c 0
 75 667 108 700 147 700 c 0
350 700 m 0
 389 700 422 667 422 628 c 0
 422 587 389 555 349 555 c 0
 309 555 277 588 277 629 c 0
 277 667 310 700 350 700 c 0
EndSplineSet
EndChar
StartChar: ring
Encoding: 202 730 132
Width: 498
Flags: MW
HStem: 518 51<234 271> 701 51<235 271>
VStem: 136 51<617.5 654> 319 51<616.5 653>
Fore
253 752 m 0
 318 752 370 700 370 635 c 0
 370 570 318 518 252 518 c 0
 188 518 136 571 136 637 c 0
 136 699 189 752 253 752 c 0
253 701 m 0
 217 701 187 672 187 636 c 0
 187 599 216 569 252 569 c 0
 290 569 319 598 319 635 c 0
 319 671 289 701 253 701 c 0
EndSplineSet
EndChar
StartChar: cedilla
Encoding: 203 184 133
Width: 498
Flags: MW
HStem: -216 42<196.5 215.5>
VStem: 248 80<-143 -130.5>
Fore
258 2 m 1
 292 2 l 1
 249 -45 l 1
 304 -55 328 -77 328 -114 c 0
 328 -172 270 -216 191 -216 c 0
 137 -216 108 -203 108 -179 c 0
 108 -163 122 -150 138 -150 c 0
 149 -150 155 -152 169 -162 c 0
 183 -171 190 -174 203 -174 c 0
 228 -174 248 -158 248 -138 c 0
 248 -123 235 -109 218 -104 c 0
 209 -102 204 -102 187 -102 c 0
 177 -102 175 -101 171 -96 c 2
 166 -89 l 1
 165 -86 164 -84 164 -82 c 0
 164 -79 169 -73 177 -66 c 2
 258 2 l 1
EndSplineSet
EndChar
StartChar: hungarumlaut
Encoding: 205 733 134
Width: 498
Flags: W
Fore
139 522 m 2
 126 530 l 2
 124 532 122 535 122 538 c 0
 122 540 123 544 124 548 c 1
 182 716 l 2
 198 762 212 777 240 777 c 0
 270 777 297 753 297 727 c 0
 297 710 291 700 264 665 c 2
 156 527 l 1
 153 522 149 519 146 519 c 0
 144 519 141 520 139 522 c 2
281 548 m 1
 339 716 l 1
 354 762 369 777 397 777 c 0
 427 777 454 753 454 727 c 0
 454 711 449 700 421 665 c 2
 313 527 l 1
 310 522 305 519 303 519 c 0
 301 519 298 520 295 522 c 2
 283 530 l 2
 281 532 279 535 279 538 c 0
 279 541 280 544 281 548 c 1
EndSplineSet
EndChar
StartChar: ogonek
Encoding: 206 731 135
Width: 498
Flags: MW
HStem: -164 45
VStem: 183 80<-93 -78>
Fore
369 -106 m 1
 382 -122 l 1
 340 -152 308 -164 271 -164 c 0
 222 -164 183 -134 183 -96 c 0
 183 -60 213 -29 276 3 c 0
 303 16 337 31 358 38 c 1
 371 28 l 1
 280 -32 263 -49 263 -82 c 0
 263 -104 281 -119 307 -119 c 0
 325 -119 338 -116 369 -106 c 1
EndSplineSet
EndChar
StartChar: caron
Encoding: 207 711 136
Width: 498
Flags: W
Fore
255 635 m 1
 355 771 l 1
 358 774 362 777 365 777 c 0
 367 777 370 776 373 773 c 2
 383 766 l 2
 386 763 388 760 388 757 c 0
 388 755 387 752 385 746 c 2
 332 605 l 2
 310 547 310 546 297 532 c 1
 288 524 273 518 257 518 c 0
 228 518 211 529 198 556 c 0
 196 560 189 576 179 605 c 1
 126 746 l 2
 124 751 123 755 123 757 c 0
 123 760 125 763 128 766 c 2
 137 773 l 2
 140 776 143 777 146 777 c 0
 149 777 153 775 155 771 c 1
 255 635 l 1
EndSplineSet
EndChar
StartChar: emdash
Encoding: 208 8212 137
Width: 830
Flags: MW
HStem: 194 83<48 779>
Fore
36 210 m 2
 36 262 l 2
 36 272 40 277 48 277 c 2
 779 277 l 2
 787 277 791 272 791 262 c 2
 791 210 l 2
 791 200 786 194 779 194 c 2
 48 194 l 2
 41 194 36 200 36 210 c 2
EndSplineSet
EndChar
StartChar: AE
Encoding: 225 198 138
Width: 977
Flags: W
HStem: -6 20 0 20 347 45<602 678> 669 20<576 607> 676 20<318 327 882 889>
VStem: 475 127<113 133 133 134 134 338 338 338 392 508 508 508>
Fore
602 347 m 1x2c
 602 134 l 2
 602 84 605 70 617 57 c 1
 632 43 647 39 696 39 c 2
 793 39 l 2
 849 39 853 41 883 87 c 2
 904 120 l 1
 926 150 926 150 932 150 c 0
 935 150 939 149 943 148 c 2
 959 145 l 2
 969 143 971 141 971 137 c 0
 971 134 971 134 965 118 c 1
 928 3 l 1
 926 -5 925 -6 919 -6 c 2xa4
 584 0 l 2x44
 541 0 541 0 415 -5 c 0
 401 -6 391 -6 384 -6 c 0xa4
 378 -6 377 -3 377 5 c 2
 377 22 l 2
 377 33 377 33 395 34 c 0
 460 35 475 50 475 113 c 2
 475 133 l 1
 475 338 l 1
 461 339 449 339 443 339 c 0
 400 339 353 336 308 330 c 1
 191 117 l 2
 174 87 170 77 170 64 c 0
 170 43 192 33 237 33 c 0
 248 33 249 31 249 20 c 2x44
 249 7 l 2
 249 -4 247 -6 235 -6 c 0xa4
 226 -6 213 -5 184 -3 c 0
 155 -1 133 0 122 0 c 0x44
 108 0 90 -1 69 -3 c 0
 38 -6 29 -6 10 -6 c 0
 -3 -6 -6 -3 -6 6 c 2
 -6 19 l 2
 -6 33 -6 33 25 33 c 1
 77 42 100 67 157 174 c 1
 379 575 l 2
 397 608 401 618 401 627 c 0
 401 647 381 654 326 654 c 0
 311 654 309 655 309 667 c 2
 309 680 l 2
 309 693 312 696 324 696 c 0x8c
 330 696 339 696 350 695 c 0
 377 693 545 689 607 689 c 2x14
 684 691 l 2
 854 695 861 695 867 695 c 0
 874 696 880 696 884 696 c 0
 894 696 897 693 897 681 c 1
 896 617 l 1
 896 606 896 574 897 567 c 1
 897 553 l 2
 897 543 895 542 886 542 c 2
 870 542 l 2
 859 542 859 542 858 560 c 0
 851 636 834 651 749 651 c 2
 678 651 l 2
 607 651 602 645 602 558 c 2
 602 392 l 1
 678 392 l 2
 757 392 774 403 786 460 c 0
 789 476 789 477 799 477 c 2
 810 477 l 2
 821 477 824 474 824 465 c 0
 824 456 824 455 823 446 c 1
 823 410 l 1
 822 366 l 1
 822 352 l 2
 822 340 822 331 823 323 c 0
 824 304 824 291 824 288 c 0
 823 276 823 268 823 265 c 0
 823 255 822 254 810 254 c 2
 795 254 l 2
 783 254 783 254 783 280 c 0
 783 300 774 326 765 335 c 0
 753 345 742 347 678 347 c 2
 602 347 l 1x2c
335 378 m 1
 351 379 l 1
 402 382 l 2
 418 383 436 384 475 384 c 1
 475 508 l 1
 474 557 473 589 473 604 c 0
 471 622 471 622 466 641 c 1
 335 378 l 1
EndSplineSet
EndChar
StartChar: ordfeminine
Encoding: 227 170 139
Width: 461
Flags: MW
HStem: 329 56 619 56
VStem: 71 98<416 420> 256 90<427 485 485 485 512 546 546 563>
Fore
256 512 m 1
 256 546 l 2
 256 580 255 586 246 597 c 0
 234 611 215 619 195 619 c 0
 177 619 155 606 156 595 c 1
 158 569 l 1
 158 568 153 563 148 560 c 2
 103 536 l 2
 101 535 98 534 95 534 c 0
 87 534 80 547 80 562 c 0
 80 581 91 598 112 611 c 2
 200 667 l 2
 208 673 219 675 235 675 c 0
 264 675 298 665 320 651 c 0
 338 639 346 619 346 585 c 2
 346 416 l 2
 346 395 349 385 357 385 c 0
 361 385 366 388 371 393 c 0
 376 398 380 401 383 401 c 0
 386 401 394 394 394 390 c 0
 394 384 382 366 370 354 c 0
 354 338 333 329 312 329 c 0
 274 329 256 349 256 390 c 1
 217 346 186 329 148 329 c 0
 109 329 71 366 71 406 c 0
 71 434 95 452 173 481 c 2
 256 512 l 1
256 485 m 1
 209 465 l 2
 179 453 169 443 169 427 c 0
 169 405 181 385 194 385 c 0
 213 385 232 398 256 427 c 1
 256 485 l 1
EndSplineSet
EndChar
StartChar: Lslash
Encoding: 232 321 140
Width: 608
Flags: W
HStem: -6 20 -3 20 0 40 669 20<169.5 205.5> 675 20<30.5 37 334.5 340>
VStem: 121 133<133 140 140 251 251 251 313 363 426 556>
Fore
121 313 m 1x84
 121 556 l 2
 121 643 112 654 42 655 c 0
 25 656 25 656 25 667 c 2
 25 684 l 2
 25 693 27 695 34 695 c 0x0c
 40 695 54 694 68 693 c 0
 99 691 151 689 188 689 c 0x14
 223 689 282 691 304 693 c 0
 318 694 332 695 337 695 c 0
 343 695 345 693 345 684 c 2
 345 667 l 2
 345 656 344 656 328 655 c 0
 263 653 254 641 254 556 c 2
 254 426 l 1
 351 520 l 1
 351 457 l 1
 254 363 l 1
 254 140 l 2
 254 91 258 76 272 62 c 0
 289 47 323 40 387 40 c 0x2c
 477 40 505 55 544 124 c 2
 558 149 l 2
 563 158 565 160 568 160 c 0
 570 160 570 160 579 158 c 2
 593 154 l 2
 606 151 606 151 606 146 c 0
 606 140 606 140 591 82 c 2
 571 6 l 1
 568 -3 568 -3 559 -3 c 2
 548 -3 l 2x44
 530 -1 374 0 276 0 c 0x2c
 220 0 127 -2 72 -5 c 0
 58 -6 45 -6 37 -6 c 0
 30 -6 28 -4 28 5 c 2
 28 22 l 2
 28 33 29 33 45 34 c 0
 112 35 121 47 121 133 c 2
 121 251 l 1
 29 161 l 1
 29 224 l 1
 121 313 l 1x84
EndSplineSet
EndChar
StartChar: Oslash
Encoding: 233 216 141
Width: 867
Flags: MW
HStem: -18 48<408.5 481> 666 48<340 452>
VStem: 38 145<353 445> 678 145<269.5 348>
Fore
805 691 m 2
 720 605 l 1
 789 539 823 457 823 360 c 0
 823 143 649 -18 414 -18 c 0
 322 -18 243 6 175 55 c 1
 125 5 l 2
 110 -11 103 -14 90 -14 c 2
 61 -14 l 2
 55 -14 49 -11 49 -6 c 0
 49 -3 52 2 61 11 c 2
 137 88 l 1
 71 156 38 238 38 336 c 0
 38 554 204 714 429 714 c 0
 524 714 610 688 682 637 c 1
 749 705 l 2
 753 709 759 711 771 711 c 2
 798 711 l 2
 806 711 812 707 812 703 c 0
 812 700 809 695 805 691 c 2
634 519 m 1
 257 137 l 1
 308 65 370 30 447 30 c 0
 515 30 580 62 622 116 c 0
 659 164 678 229 678 310 c 0
 678 386 663 456 634 519 c 1
230 181 m 1
 609 563 l 1
 562 630 493 666 411 666 c 0
 269 666 183 562 183 391 c 0
 183 315 200 240 230 181 c 1
EndSplineSet
KernsSLIF: 65 -53 0 0
EndChar
StartChar: OE
Encoding: 234 338 142
Width: 1069
Flags: W
HStem: -20 44<377 445> -6 20 0 20 347 45<695 771> 665 44<374.5 477.5> 669 20<702.5 722> 676 20<973.5 983>
VStem: 37 145<263.5 446.5> 567 128<140 347 392 558>
Fore
695 347 m 1x1380
 695 134 l 2
 695 85 698 70 710 57 c 1
 725 43 740 39 789 39 c 2
 881 39 l 2
 937 39 942 42 971 87 c 2
 992 120 l 1
 1015 150 1015 150 1020 150 c 0
 1023 150 1027 149 1032 148 c 2
 1048 145 l 2
 1057 143 1059 141 1059 137 c 0
 1059 135 1059 135 1054 118 c 1
 1017 3 l 1
 1015 -5 1013 -6 1007 -6 c 2x5180
 695 0 l 2x2180
 644 0 620 -2 507 -15 c 0
 482 -18 457 -20 433 -20 c 0
 202 -20 37 130 37 340 c 0
 37 553 217 709 461 709 c 0x8980
 494 709 494 709 575 700 c 0
 626 694 689 689 716 689 c 0x0580
 728 689 749 690 780 691 c 2
 847 693 l 1
 941 694 l 2
 956 695 970 696 977 696 c 0
 989 696 991 693 991 681 c 1
 990 619 l 1
 991 553 l 1
 991 543 990 542 980 542 c 2
 964 542 l 2
 953 542 953 543 952 560 c 0
 950 593 942 618 929 632 c 0
 916 646 895 651 843 651 c 2
 771 651 l 2
 700 651 695 645 695 558 c 2
 695 392 l 1
 771 392 l 2
 849 392 867 403 878 460 c 0
 882 476 882 477 891 477 c 2
 903 477 l 2
 914 477 916 475 916 465 c 2
 916 460 l 1
 916 446 l 1
 915 410 l 1
 914 386 914 369 914 357 c 0
 914 347 914 334 915 323 c 0
 916 289 916 267 916 261 c 0
 915 255 915 254 903 254 c 2
 888 254 l 2
 876 254 876 254 876 280 c 0
 876 300 867 326 858 335 c 0
 846 345 835 347 771 347 c 2
 695 347 l 1x1380
567 140 m 2x8980
 567 560 l 2
 567 606 563 622 549 638 c 0
 533 656 505 665 463 665 c 0
 286 665 182 554 182 364 c 0
 182 163 295 24 459 24 c 0
 505 24 537 37 553 63 c 0
 565 82 567 92 567 140 c 2x8980
EndSplineSet
EndChar
StartChar: ordmasculine
Encoding: 235 186 143
Width: 461
Flags: MW
HStem: 329 36<228.5 262.5> 639 36<197 231>
VStem: 56 98<517 545.5> 303 98<457 482>
Fore
234 675 m 0
 328 675 401 602 401 507 c 0
 401 407 326 329 228 329 c 0
 131 329 56 401 56 494 c 0
 56 597 133 675 234 675 c 0
217 639 m 0
 177 639 154 604 154 543 c 0
 154 491 163 445 180 410 c 0
 195 379 215 365 242 365 c 0
 283 365 303 397 303 459 c 0
 303 505 295 549 280 585 c 0
 264 622 245 639 217 639 c 0
EndSplineSet
EndChar
StartChar: ae
Encoding: 241 230 144
Width: 682
Flags: W
HStem: -16 67 -16 80<494.5 505.5> 375 84 405 50<484 503>
VStem: 33 117<100 102.5> 40 77 541 109<334.5 364>
Fore
607 302 m 2x16
 378 217 l 1
 379 175 384 151 398 127 c 0
 419 90 470 64 519 64 c 0
 562 64 589 78 624 117 c 1
 650 102 l 1
 605 18 551 -16 460 -16 c 0x4a
 367 -16 328 4 285 75 c 1
 230 12 183 -16 132 -16 c 0
 77 -16 33 35 33 98 c 0xaa
 33 107 34 112 37 122 c 1
 94 167 114 177 249 223 c 2
 263 228 l 1
 263 280 l 2
 263 321 260 339 249 351 c 0
 236 365 206 375 174 375 c 0
 139 375 117 363 117 344 c 0
 117 341 118 335 120 330 c 2
 124 320 l 1
 125 315 l 1
 111 301 67 278 49 274 c 1
 42 289 40 297 40 309 c 0
 40 335 56 362 86 384 c 0
 140 425 212 459 245 459 c 0xa6
 267 459 317 441 331 429 c 0
 345 416 353 399 367 356 c 1
 408 430 447 455 521 455 c 0
 611 455 650 418 650 332 c 0
 650 318 650 318 607 302 c 2x16
263 195 m 1x9a
 230 184 197 169 175 154 c 0
 155 142 150 134 150 119 c 0
 150 81 174 51 204 51 c 0
 226 51 246 64 277 100 c 1
 267 124 264 144 263 195 c 1x9a
380 255 m 1
 463 286 l 2
 522 309 541 323 541 346 c 0
 541 382 520 405 486 405 c 0
 423 405 387 354 380 255 c 1
EndSplineSet
KernsSLIF: 121 9 0 0 119 7 0 0 118 9 0 0
EndChar
StartChar: dotlessi
Encoding: 245 305 145
Width: 295
Flags: W
HStem: -8 20 0 20
VStem: 93 111<149 272 272 272>
Fore
201 460 m 1xa0
 207 458 l 1
 206 375 205 362 204 304 c 1
 204 149 l 2
 204 46 212 30 260 27 c 0
 269 26 271 25 271 16 c 2
 271 4 l 2
 271 -6 269 -8 261 -8 c 2xa0
 246 -7 l 2
 198 -2 177 0 150 0 c 0x60
 123 0 80 -3 50 -7 c 0
 44 -8 38 -8 35 -8 c 0
 28 -8 27 -6 27 4 c 2
 27 16 l 2
 27 26 27 26 37 27 c 0
 86 30 93 46 93 149 c 2
 93 272 l 1
 94 350 90 358 44 366 c 0
 40 366 38 368 38 377 c 2
 38 384 l 2
 38 393 38 393 46 396 c 2
 201 460 l 1xa0
EndSplineSet
EndChar
StartChar: lslash
Encoding: 248 322 146
Width: 295
Flags: W
HStem: -8 20 0 20
VStem: 94 111<149 317 317 317 376 415 475 577>
Fore
94 376 m 1xa0
 94 589 l 1
 95 667 92 673 50 682 c 0
 40 683 39 684 39 694 c 2
 39 701 l 2
 39 710 39 710 47 713 c 2
 201 777 l 1
 208 775 l 1
 208 722 l 1
 207 678 206 630 205 577 c 1
 205 475 l 1
 267 538 l 1
 267 478 l 1
 205 415 l 1
 205 149 l 2
 205 50 212 33 254 27 c 0
 259 26 260 24 260 16 c 2
 260 4 l 2
 260 -5 258 -8 253 -8 c 0xa0
 251 -8 248 -8 244 -7 c 0
 232 -4 175 0 149 0 c 0x60
 127 0 81 -3 54 -7 c 0
 48 -8 42 -8 39 -8 c 0
 33 -8 31 -5 31 4 c 2
 31 16 l 2
 31 25 32 26 41 27 c 0
 86 30 94 48 94 149 c 2
 94 317 l 1
 24 247 l 1
 24 305 l 1
 94 376 l 1xa0
EndSplineSet
EndChar
StartChar: oslash
Encoding: 249 248 147
Width: 535
Flags: W
HStem: -16 44<267 316.5> 410 45<218.5 269.5> 416 20
VStem: 34 122<244.5 287.5> 376 122<160 188>
Fore
497 459 m 2x38
 436 388 l 1
 478 345 498 295 498 231 c 0
 498 89 397 -16 261 -16 c 0
 209 -16 167 -4 128 23 c 1
 94 -18 l 2
 85 -28 79 -31 64 -31 c 2
 39 -31 l 2
 34 -31 30 -29 30 -26 c 0
 30 -23 33 -19 41 -10 c 2
 94 53 l 1
 55 98 34 156 34 222 c 0
 34 353 138 455 272 455 c 0xd8
 321 455 361 443 402 416 c 1
 445 468 l 2
 451 475 457 477 469 477 c 2
 491 477 l 2
 498 477 503 474 503 470 c 0
 503 467 501 464 497 459 c 2x38
359 296 m 1
 191 97 l 1
 219 47 246 28 288 28 c 0
 345 28 376 77 376 166 c 0
 376 210 370 253 359 296 c 1
172 145 m 1
 341 345 l 1
 319 390 290 410 249 410 c 0
 188 410 156 360 156 265 c 0
 156 224 161 184 172 145 c 1
EndSplineSet
EndChar
StartChar: oe
Encoding: 250 339 148
Width: 793
Flags: W
HStem: -16 44<248 293.5> -16 93 410 45<218 269> 415 40<571.5 605>
VStem: 37 121<194.5 287.5> 378 109
Fore
487 265 m 1x1c
 487 253 l 2
 487 216 494 186 510 158 c 0
 537 110 587 77 634 77 c 0
 665 77 695 92 730 124 c 1
 739 119 747 112 755 105 c 1
 730 64 716 47 689 27 c 0
 653 -1 610 -16 571 -16 c 0x6c
 515 -16 467 9 432 56 c 1
 385 8 328 -16 259 -16 c 0
 128 -16 37 81 37 222 c 0
 37 353 139 455 271 455 c 0xac
 339 455 396 430 446 378 c 1
 487 427 542 455 601 455 c 0
 696 455 757 391 757 290 c 0
 757 273 753 270 735 269 c 2
 487 265 l 1x1c
247 410 m 0
 189 410 158 361 158 267 c 0
 158 122 209 28 287 28 c 0xac
 345 28 378 78 378 164 c 0
 378 224 366 289 346 335 c 0
 324 385 291 410 247 410 c 0
492 302 m 1x1c
 590 307 l 2
 640 309 649 315 649 342 c 0
 649 384 623 415 587 415 c 0
 540 415 503 372 492 302 c 1x1c
EndSplineSet
EndChar
StartChar: germandbls
Encoding: 251 223 149
Width: 590
Flags: W
HStem: -16 34<407.5 432.5> -8 20 0 20 727 50<326 332.5>
VStem: 93 111<107 314 314 348.5> 296 90<37 46.5> 298 90 402 104<626.5 646> 475 80<97 106>
Fore
93 107 m 2x5b
 93 314 l 2
 93 383 89 388 38 391 c 0
 32 392 31 392 31 400 c 2
 31 411 l 2
 31 417 32 418 40 422 c 0
 78 441 86 455 100 519 c 1
 115 598 144 660 183 701 c 0
 227 748 294 777 358 777 c 0
 445 777 506 725 506 649 c 0
 506 604 490 575 438 526 c 0
 396 486 388 475 388 454 c 0x9b
 388 428 398 412 454 352 c 0
 529 270 555 216 555 145 c 0
 555 49 493 -16 400 -16 c 0
 335 -16 296 12 296 59 c 0
 296 94 316 117 345 117 c 0
 371 117 390 99 390 76 c 1
 389 63 l 1
 387 55 386 48 386 45 c 0
 386 29 399 18 416 18 c 0
 449 18 475 47 475 84 c 0x9480
 475 128 456 159 385 232 c 0
 323 295 298 337 298 377 c 0
 298 406 310 434 339 474 c 0
 390 543 402 570 402 615 c 0
 402 677 359 727 306 727 c 0
 273 727 241 706 225 675 c 0
 209 645 204 609 204 539 c 2
 204 107 l 2
 204 68 205 58 212 48 c 0
 219 38 233 30 246 30 c 0
 262 30 262 29 262 18 c 2
 262 5 l 2
 262 -5 260 -8 253 -8 c 0x5b
 249 -8 244 -8 238 -7 c 0
 204 -2 178 0 152 0 c 0x2b
 125 0 121 0 59 -7 c 2
 41 -8 l 2
 31 -8 31 -8 31 5 c 2
 31 18 l 2
 31 29 32 30 48 30 c 0
 87 30 93 41 93 107 c 2x5b
EndSplineSet
EndChar
StartChar: Adieresis
Encoding: 256 196 150
Width: 756
Flags: W
HStem: -6 20 0 20 267 50<242 414> 756 148<252 292 470 510>
VStem: 198 148<810 850.5> 416 148<810 850.5>
Fore
437 267 m 1xac
 226 267 l 1
 183 142 l 1
 172 108 166 84 166 73 c 0
 166 45 183 36 243 32 c 0
 250 32 251 29 251 19 c 2
 251 6 l 2
 251 -5 250 -6 240 -6 c 0xbc
 232 -6 208 -5 186 -3 c 0
 162 -1 135 0 114 0 c 0x4c
 92 0 80 -1 66 -2 c 0
 45 -4 27 -6 21 -6 c 0xbc
 12 -6 10 -4 10 4 c 2
 10 20 l 2x4c
 10 31 10 31 35 33 c 0
 90 40 91 42 158 232 c 2
 204 363 l 1
 271 560 l 2
 278 580 290 618 295 638 c 0
 303 665 305 668 337 691 c 2
 374 718 l 2
 385 725 385 725 386 725 c 0
 389 725 391 722 396 709 c 2
 634 122 l 1
 666 46 677 34 720 31 c 0
 735 31 738 30 738 19 c 2
 738 6 l 2
 738 -3 734 -6 723 -6 c 0xbc
 716 -6 687 -4 659 -2 c 0
 638 -1 614 0 596 0 c 0x4c
 569 0 547 -1 517 -3 c 0
 487 -4 453 -6 446 -6 c 0
 437 -6 436 -4 436 6 c 2
 436 21 l 2
 436 33 437 33 458 34 c 0
 492 35 511 48 511 70 c 0
 511 83 496 127 473 181 c 2
 437 267 l 1xac
414 317 m 1
 320 544 l 1
 242 317 l 1
 414 317 l 1
272 904 m 0
 313 904 346 871 346 830 c 0
 346 789 313 756 271 756 c 0
 231 756 198 789 198 831 c 0
 198 871 232 904 272 904 c 0
490 904 m 0
 531 904 564 871 564 830 c 0
 564 789 531 756 489 756 c 0
 449 756 416 789 416 831 c 0
 416 871 450 904 490 904 c 0
EndSplineSet
KernsSLIF: 121 -71 0 0 119 -65 0 0 118 -69 0 0 117 -24 0 0 116 -17 0 0 39 -84 0 0 186 -81 0 0 113 -21 0 0 46 7 0 0 111 -30 0 0 45 -3 0 0 172 -57 0 0 171 -53 0 0 103 3 0 0 100 -17 0 0 44 10 0 0 99 -16 0 0 98 -7 0 0 97 2 0 0 89 -67 0 0 87 -111 0 0 86 -114 0 0 85 -56 0 0 84 -55 0 0 81 -60 0 0 79 -59 0 0 71 -59 0 0 67 -58 0 0
EndChar
StartChar: Aacute
Encoding: 257 193 151
Width: 756
Flags: W
HStem: -6 20 0 20 267 50<242 414>
Fore
437 267 m 1xa0
 226 267 l 1
 183 142 l 1
 172 108 166 84 166 73 c 0
 166 45 183 36 243 32 c 0
 250 32 251 29 251 19 c 2
 251 6 l 2
 251 -5 250 -6 240 -6 c 0xa0
 232 -6 208 -5 186 -3 c 0
 162 -1 135 0 114 0 c 0x40
 92 0 80 -1 66 -2 c 0
 45 -4 27 -6 21 -6 c 0xa0
 12 -6 10 -4 10 4 c 2
 10 20 l 2x40
 10 31 10 31 35 33 c 0
 90 40 91 42 158 232 c 2
 204 363 l 1
 271 560 l 2
 278 580 290 618 295 638 c 0
 303 665 305 668 337 691 c 2
 374 718 l 2
 385 725 385 725 386 725 c 0
 389 725 391 722 396 709 c 2
 634 122 l 1
 666 46 677 34 720 31 c 0
 735 31 738 30 738 19 c 2
 738 6 l 2
 738 -3 734 -6 723 -6 c 0xa0
 716 -6 687 -4 659 -2 c 0
 638 -1 614 0 596 0 c 0x40
 569 0 547 -1 517 -3 c 0
 487 -4 453 -6 446 -6 c 0
 437 -6 436 -4 436 6 c 2
 436 21 l 2
 436 33 437 33 458 34 c 0
 492 35 511 48 511 70 c 0
 511 83 496 127 473 181 c 2
 437 267 l 1xa0
414 317 m 1
 320 544 l 1
 242 317 l 1
 414 317 l 1
482 834 m 2
 324 756 l 2
 318 753 313 751 310 751 c 0
 308 751 304 754 300 758 c 2
 287 772 l 2
 284 775 282 779 282 782 c 0
 282 786 285 789 291 795 c 2
 421 913 l 2
 445 934 460 942 478 942 c 0
 506 942 529 920 529 892 c 0
 529 868 515 850 482 834 c 2
EndSplineSet
KernsSLIF: 121 -71 0 0 119 -65 0 0 118 -69 0 0 117 -24 0 0 116 -17 0 0 39 -84 0 0 113 -21 0 0 46 7 0 0 111 -30 0 0 45 -3 0 0 172 -57 0 0 171 -53 0 0 103 3 0 0 101 -15 0 0 100 -17 0 0 44 10 0 0 99 -16 0 0 98 -7 0 0 97 2 0 0 89 -67 0 0 87 -111 0 0 86 -114 0 0 85 -56 0 0 84 -55 0 0 81 -60 0 0 79 -59 0 0 71 -59 0 0 67 -58 0 0
EndChar
StartChar: Agrave
Encoding: 258 192 152
Width: 756
Flags: W
HStem: -6 20 0 20 267 50<242 414>
Fore
437 267 m 1xa0
 226 267 l 1
 183 142 l 1
 172 108 166 84 166 73 c 0
 166 45 183 36 243 32 c 0
 250 32 251 29 251 19 c 2
 251 6 l 2
 251 -5 250 -6 240 -6 c 0xa0
 232 -6 208 -5 186 -3 c 0
 162 -1 135 0 114 0 c 0x40
 92 0 80 -1 66 -2 c 0
 45 -4 27 -6 21 -6 c 0xa0
 12 -6 10 -4 10 4 c 2
 10 20 l 2x40
 10 31 10 31 35 33 c 0
 90 40 91 42 158 232 c 2
 204 363 l 1
 271 560 l 2
 278 580 290 618 295 638 c 0
 303 665 305 668 337 691 c 2
 374 718 l 2
 385 725 385 725 386 725 c 0
 389 725 391 722 396 709 c 2
 634 122 l 1
 666 46 677 34 720 31 c 0
 735 31 738 30 738 19 c 2
 738 6 l 2
 738 -3 734 -6 723 -6 c 0xa0
 716 -6 687 -4 659 -2 c 0
 638 -1 614 0 596 0 c 0x40
 569 0 547 -1 517 -3 c 0
 487 -4 453 -6 446 -6 c 0
 437 -6 436 -4 436 6 c 2
 436 21 l 2
 436 33 437 33 458 34 c 0
 492 35 511 48 511 70 c 0
 511 83 496 127 473 181 c 2
 437 267 l 1xa0
414 317 m 1
 320 544 l 1
 242 317 l 1
 414 317 l 1
335 913 m 2
 465 795 l 2
 471 789 474 785 474 782 c 0
 474 779 472 776 468 772 c 2
 456 758 l 2
 452 754 448 751 445 751 c 0
 443 751 438 753 432 756 c 2
 274 834 l 2
 240 851 226 867 226 891 c 0
 226 920 249 942 277 942 c 0
 295 942 311 934 335 913 c 2
EndSplineSet
KernsSLIF: 46 7 0 0 44 10 0 0 89 -67 0 0 87 -111 0 0 86 -114 0 0 85 -56 0 0 84 -55 0 0 81 -60 0 0 79 -59 0 0 71 -59 0 0 67 -58 0 0
EndChar
StartChar: Acircumflex
Encoding: 259 194 153
Width: 756
Flags: W
HStem: -6 20 0 20 267 50<242 414>
Fore
437 267 m 1xa0
 226 267 l 1
 183 142 l 1
 172 108 166 84 166 73 c 0
 166 45 183 36 243 32 c 0
 250 32 251 29 251 19 c 2
 251 6 l 2
 251 -5 250 -6 240 -6 c 0xa0
 232 -6 208 -5 186 -3 c 0
 162 -1 135 0 114 0 c 0x40
 92 0 80 -1 66 -2 c 0
 45 -4 27 -6 21 -6 c 0xa0
 12 -6 10 -4 10 4 c 2
 10 20 l 2x40
 10 31 10 31 35 33 c 0
 90 40 91 42 158 232 c 2
 204 363 l 1
 271 560 l 2
 278 580 290 618 295 638 c 0
 303 665 305 668 337 691 c 2
 374 718 l 2
 385 725 385 725 386 725 c 0
 389 725 391 722 396 709 c 2
 634 122 l 1
 666 46 677 34 720 31 c 0
 735 31 738 30 738 19 c 2
 738 6 l 2
 738 -3 734 -6 723 -6 c 0xa0
 716 -6 687 -4 659 -2 c 0
 638 -1 614 0 596 0 c 0x40
 569 0 547 -1 517 -3 c 0
 487 -4 453 -6 446 -6 c 0
 437 -6 436 -4 436 6 c 2
 436 21 l 2
 436 33 437 33 458 34 c 0
 492 35 511 48 511 70 c 0
 511 83 496 127 473 181 c 2
 437 267 l 1xa0
414 317 m 1
 320 544 l 1
 242 317 l 1
 414 317 l 1
383 841 m 1
 282 759 l 2
 276 754 271 751 267 751 c 0
 264 751 259 754 253 758 c 2
 243 767 l 2
 238 771 235 775 235 778 c 0
 235 781 237 785 239 789 c 1
 313 893 l 2
 339 930 356 942 383 942 c 0
 411 942 428 930 454 893 c 2
 527 789 l 2
 530 785 532 781 532 778 c 0
 532 775 529 771 523 767 c 2
 513 758 l 2
 507 754 502 751 499 751 c 0
 496 751 490 754 484 759 c 2
 383 841 l 1
EndSplineSet
KernsSLIF: 46 7 0 0 44 10 0 0 89 -67 0 0 87 -111 0 0 86 -114 0 0 85 -56 0 0 84 -55 0 0 81 -60 0 0 79 -59 0 0 71 -59 0 0 67 -58 0 0
EndChar
StartChar: Atilde
Encoding: 260 195 154
Width: 756
Flags: W
HStem: -6 20 0 20 267 50<242 414> 751 91<453 472.5> 819 91<289.5 308.5>
Fore
437 267 m 1xa0
 226 267 l 1
 183 142 l 1
 172 108 166 84 166 73 c 0
 166 45 183 36 243 32 c 0
 250 32 251 29 251 19 c 2
 251 6 l 2
 251 -5 250 -6 240 -6 c 0xa8
 232 -6 208 -5 186 -3 c 0
 162 -1 135 0 114 0 c 0x40
 92 0 80 -1 66 -2 c 0
 45 -4 27 -6 21 -6 c 0xa8
 12 -6 10 -4 10 4 c 2
 10 20 l 2x40
 10 31 10 31 35 33 c 0
 90 40 91 42 158 232 c 2
 204 363 l 1
 271 560 l 2
 278 580 290 618 295 638 c 0
 303 665 305 668 337 691 c 2
 374 718 l 2
 385 725 385 725 386 725 c 0
 389 725 391 722 396 709 c 2
 634 122 l 1
 666 46 677 34 720 31 c 0
 735 31 738 30 738 19 c 2
 738 6 l 2
 738 -3 734 -6 723 -6 c 0xa8
 716 -6 687 -4 659 -2 c 0
 638 -1 614 0 596 0 c 0x40
 569 0 547 -1 517 -3 c 0
 487 -4 453 -6 446 -6 c 0
 437 -6 436 -4 436 6 c 2
 436 21 l 2
 436 33 437 33 458 34 c 0
 492 35 511 48 511 70 c 0
 511 83 496 127 473 181 c 2
 437 267 l 1xa0
414 317 m 1
 320 544 l 1
 242 317 l 1
 414 317 l 1
221 757 m 2
 210 767 l 2
 205 771 203 776 203 782 c 0
 203 798 215 832 227 855 c 0
 249 893 273 910 306 910 c 0x08
 333 910 359 899 402 868 c 0
 430 849 445 842 461 842 c 0
 484 842 503 858 511 884 c 0
 517 905 519 907 524 907 c 0
 526 907 529 905 532 903 c 2
 543 893 l 2
 551 887 553 884 553 876 c 0
 553 860 544 827 533 804 c 0
 518 771 490 751 459 751 c 0x10
 432 751 408 761 367 788 c 0
 334 811 317 819 300 819 c 0
 275 819 254 798 243 765 c 0
 240 755 237 751 232 751 c 0
 229 751 225 753 221 757 c 2
EndSplineSet
KernsSLIF: 46 7 0 0 44 10 0 0 89 -67 0 0 87 -111 0 0 86 -114 0 0 85 -56 0 0 84 -55 0 0 81 -60 0 0 79 -59 0 0 71 -59 0 0 67 -58 0 0
EndChar
StartChar: Aring
Encoding: 261 197 155
Width: 756
Flags: W
HStem: -6 20 0 20 267 50<242 414> 743 51<358.5 405> 909 51<359 405>
VStem: 252 52<834.5 868.5> 459 52<834 868>
Fore
437 267 m 1xa6
 226 267 l 1
 183 142 l 1
 172 108 166 84 166 73 c 0
 166 45 183 36 243 32 c 0
 250 32 251 29 251 19 c 2
 251 6 l 2
 251 -5 250 -6 240 -6 c 0xbe
 232 -6 208 -5 186 -3 c 0
 162 -1 135 0 114 0 c 0x46
 92 0 80 -1 66 -2 c 0
 45 -4 27 -6 21 -6 c 0xbe
 12 -6 10 -4 10 4 c 2
 10 20 l 2x46
 10 31 10 31 35 33 c 0
 90 40 91 42 158 232 c 2
 204 363 l 1
 271 560 l 2
 278 580 290 618 295 638 c 0
 303 665 305 668 337 691 c 2
 374 718 l 2
 385 725 385 725 386 725 c 0
 389 725 391 722 396 709 c 2
 634 122 l 1
 666 46 677 34 720 31 c 0
 735 31 738 30 738 19 c 2
 738 6 l 2
 738 -3 734 -6 723 -6 c 0xbe
 716 -6 687 -4 659 -2 c 0
 638 -1 614 0 596 0 c 0x46
 569 0 547 -1 517 -3 c 0
 487 -4 453 -6 446 -6 c 0
 437 -6 436 -4 436 6 c 2
 436 21 l 2
 436 33 437 33 458 34 c 0
 492 35 511 48 511 70 c 0
 511 83 496 127 473 181 c 2
 437 267 l 1xa6
414 317 m 1
 320 544 l 1
 242 317 l 1
 414 317 l 1
382 960 m 0
 458 960 511 914 511 847 c 0
 511 786 458 743 382 743 c 0
 304 743 252 785 252 849 c 0
 252 914 306 960 382 960 c 0
382 909 m 0
 336 909 304 885 304 852 c 0
 304 817 335 794 382 794 c 0
 428 794 459 817 459 851 c 0
 459 885 428 909 382 909 c 0
EndSplineSet
KernsSLIF: 121 -71 0 0 119 -65 0 0 118 -69 0 0 117 -23 0 0 116 -16 0 0 39 -84 0 0 186 -81 0 0 113 -20 0 0 46 7 0 0 111 -29 0 0 45 -3 0 0 172 -57 0 0 171 -53 0 0 103 3 0 0 101 -14 0 0 100 -16 0 0 44 10 0 0 99 -16 0 0 98 -7 0 0 97 2 0 0 89 -67 0 0 87 -111 0 0 86 -114 0 0 85 -55 0 0 84 -55 0 0 81 -60 0 0 79 -59 0 0 71 -59 0 0 67 -58 0 0
EndChar
StartChar: Ccedilla
Encoding: 262 199 156
Width: 756
Flags: MW
HStem: -243 40<370 390.5> 665 49<394.5 491>
VStem: 36 141<313 406.5> 430 92<-167 -145.5>
Fore
477 -17 m 1
 429 -59 l 1
 490 -70 522 -97 522 -137 c 0
 522 -197 450 -243 357 -243 c 0
 306 -243 273 -229 273 -207 c 0
 273 -193 287 -180 304 -180 c 0
 313 -180 313 -180 347 -197 c 0
 354 -201 364 -203 376 -203 c 0
 405 -203 430 -182 430 -157 c 0
 430 -134 411 -118 384 -116 c 0
 361 -114 357 -113 353 -108 c 2
 347 -101 l 2
 345 -98 345 -98 345 -96 c 0
 345 -93 347 -89 351 -86 c 2
 436 -18 l 1
 333 -14 248 12 182 58 c 0
 90 124 36 231 36 351 c 0
 36 462 80 552 167 620 c 0
 245 681 344 714 445 714 c 0
 537 714 624 690 682 648 c 1
 700 522 l 1
 700 517 l 2
 700 514 700 514 692 511 c 2
 676 507 l 2
 670 505 668 505 666 505 c 0
 663 505 663 505 653 521 c 0
 584 635 541 665 449 665 c 0
 293 665 177 533 177 356 c 0
 177 270 207 186 261 124 c 1
 312 63 386 31 474 31 c 0
 549 31 595 53 633 106 c 0
 647 125 647 125 674 179 c 0
 679 189 681 191 683 191 c 0
 684 191 690 189 695 188 c 2
 713 182 l 2
 721 179 722 178 722 174 c 0
 722 171 722 171 719 160 c 2
 687 32 l 1
 616 1 551 -14 477 -17 c 1
EndSplineSet
KernsSLIF: 65 2 0 0
EndChar
StartChar: Eth
Encoding: 263 208 157
Width: 830
Flags: W
HStem: -6 44<353.5 418.5> 0 20 341 51<28 121 254 405> 665 44<336.5 402.5>
VStem: 121 133<133 147 147 341 392 550 550 574> 648 145<293.5 392.5>
Fore
121 392 m 1x6c
 121 550 l 2
 121 641 118 645 51 645 c 0
 39 645 38 646 37 655 c 1
 35 668 l 1
 35 673 l 1
 36 691 192 709 343 709 c 0
 462 709 568 683 647 635 c 0
 741 577 793 475 793 349 c 0
 793 238 755 154 676 90 c 0
 594 23 493 -6 344 -6 c 0xbc
 306 -6 264 -5 216 -2 c 0
 200 -1 188 0 181 0 c 0
 175 0 160 -1 141 -2 c 2
 100 -3 l 1
 68 -5 l 2
 55 -6 44 -6 37 -6 c 0
 32 -6 30 -3 30 5 c 2
 30 22 l 2
 30 33 31 33 47 34 c 0
 112 36 121 48 121 133 c 2
 121 341 l 1
 28 341 l 1
 28 392 l 1
 121 392 l 1x6c
254 392 m 1
 405 392 l 1
 405 341 l 1
 254 341 l 1
 254 147 l 2
 254 102 258 86 272 70 c 0
 291 50 330 38 377 38 c 0
 536 38 648 165 648 346 c 0
 648 439 618 525 565 583 c 1
 516 639 450 665 361 665 c 0
 312 665 279 656 265 637 c 0
 255 625 254 617 254 574 c 2
 254 392 l 1
EndSplineSet
EndChar
StartChar: Edieresis
Encoding: 264 203 158
Width: 627
Flags: W
HStem: -6 20 0 20 347 45<245 325> 669 20<216.5 238> 675 20<30 36 512 512> 676 20<526.5 534> 756 148<187 227 405 445.5>
VStem: 112 133<133 134 134 347 392 557 557 558> 133 148<810 850.5> 351 148<810 850.5>
Fore
245 392 m 1x25
 325 392 l 2
 403 392 419 402 432 460 c 0
 436 477 436 477 445 477 c 2
 456 477 l 2
 468 477 470 474 470 465 c 2
 470 460 l 2
 470 457 470 452 469 446 c 1
 469 410 l 1
 468 383 468 365 468 357 c 0
 468 347 468 334 469 323 c 1
 470 288 l 1
 470 270 l 1
 470 265 l 2
 470 255 470 254 456 254 c 2
 441 254 l 2
 430 254 429 257 429 273 c 0
 430 297 425 318 416 330 c 0
 405 345 394 347 325 347 c 2
 245 347 l 1
 245 134 l 2
 245 84 248 70 260 57 c 1
 275 43 290 39 339 39 c 2
 442 39 l 2
 497 39 503 42 532 87 c 2
 553 120 l 1
 575 150 575 150 581 150 c 0
 584 150 588 149 592 148 c 2
 608 145 l 2
 618 143 620 141 620 137 c 0
 620 134 620 134 614 118 c 1
 577 3 l 1
 575 -5 574 -6 568 -6 c 0xa3
 565 -6 555 -6 546 -5 c 2
 419 -4 l 1
 293 -1 l 2
 261 0 236 0 219 0 c 0x41
 187 0 85 -3 60 -5 c 2
 29 -6 l 2
 23 -6 22 -4 22 5 c 2
 22 22 l 2
 22 34 22 34 39 34 c 0
 103 36 112 48 112 133 c 2
 112 557 l 2
 112 640 102 654 43 656 c 0
 26 657 26 657 26 667 c 2
 26 684 l 2
 26 693 27 695 33 695 c 0x89
 39 695 48 695 60 694 c 0
 77 693 203 689 230 689 c 0x11
 246 689 270 689 300 690 c 2
 372 692 l 1
 512 695 l 2x89
 519 696 525 696 528 696 c 0
 540 696 542 694 542 678 c 1
 541 620 l 1
 542 567 l 1
 543 561 543 554 543 553 c 0
 543 543 541 542 531 542 c 2
 515 542 l 2
 505 542 504 543 503 560 c 0
 501 590 493 618 480 632 c 0
 467 646 447 651 394 651 c 2
 321 651 l 2
 250 651 245 645 245 558 c 2
 245 392 l 1x25
207 904 m 0
 248 904 281 871 281 830 c 0
 281 789 248 756 206 756 c 0
 166 756 133 789 133 831 c 0xa2c0
 133 871 167 904 207 904 c 0
425 904 m 0
 466 904 499 871 499 830 c 0
 499 789 466 756 425 756 c 0
 384 756 351 789 351 831 c 0
 351 871 385 904 425 904 c 0
EndSplineSet
EndChar
StartChar: Eacute
Encoding: 265 201 159
Width: 627
Flags: W
HStem: -6 20 0 20 347 45<245 325> 669 20<216.5 238> 675 20<30 36 512 512> 676 20<526.5 534>
VStem: 112 133<133 134 134 347 392 557 557 558>
Fore
245 392 m 1x26
 325 392 l 2
 403 392 419 402 432 460 c 0
 436 477 436 477 445 477 c 2
 456 477 l 2
 468 477 470 474 470 465 c 2
 470 460 l 2
 470 457 470 452 469 446 c 1
 469 410 l 1
 468 383 468 365 468 357 c 0
 468 347 468 334 469 323 c 1
 470 288 l 1
 470 270 l 1
 470 265 l 2
 470 255 470 254 456 254 c 2
 441 254 l 2
 430 254 429 257 429 273 c 0
 430 297 425 318 416 330 c 0
 405 345 394 347 325 347 c 2
 245 347 l 1
 245 134 l 2
 245 84 248 70 260 57 c 1
 275 43 290 39 339 39 c 2
 442 39 l 2
 497 39 503 42 532 87 c 2
 553 120 l 1
 575 150 575 150 581 150 c 0
 584 150 588 149 592 148 c 2
 608 145 l 2
 618 143 620 141 620 137 c 0
 620 134 620 134 614 118 c 1
 577 3 l 1
 575 -5 574 -6 568 -6 c 0xa2
 565 -6 555 -6 546 -5 c 2
 419 -4 l 1
 293 -1 l 2
 261 0 236 0 219 0 c 0x42
 187 0 85 -3 60 -5 c 2
 29 -6 l 2
 23 -6 22 -4 22 5 c 2
 22 22 l 2
 22 34 22 34 39 34 c 0
 103 36 112 48 112 133 c 2
 112 557 l 2
 112 640 102 654 43 656 c 0
 26 657 26 657 26 667 c 2
 26 684 l 2
 26 693 27 695 33 695 c 0x8a
 39 695 48 695 60 694 c 0
 77 693 203 689 230 689 c 0x12
 246 689 270 689 300 690 c 2
 372 692 l 1
 512 695 l 2x8a
 519 696 525 696 528 696 c 0
 540 696 542 694 542 678 c 1
 541 620 l 1
 542 567 l 1
 543 561 543 554 543 553 c 0
 543 543 541 542 531 542 c 2
 515 542 l 2
 505 542 504 543 503 560 c 0
 501 590 493 618 480 632 c 0
 467 646 447 651 394 651 c 2
 321 651 l 2
 250 651 245 645 245 558 c 2
 245 392 l 1x26
417 834 m 2
 259 756 l 2
 253 753 248 751 246 751 c 0
 243 751 239 754 235 758 c 2
 222 772 l 2
 218 776 216 779 216 782 c 0
 216 785 218 788 226 795 c 2
 356 913 l 2
 380 934 395 942 413 942 c 0
 441 942 464 919 464 891 c 0
 464 868 450 850 417 834 c 2
EndSplineSet
EndChar
StartChar: Egrave
Encoding: 266 200 160
Width: 627
Flags: W
HStem: -6 20 0 20 347 45<245 325> 669 20<216.5 238> 675 20<30 36 512 512> 676 20<526.5 534>
VStem: 112 133<133 134 134 347 392 557 557 558>
Fore
245 392 m 1x26
 325 392 l 2
 403 392 419 402 432 460 c 0
 436 477 436 477 445 477 c 2
 456 477 l 2
 468 477 470 474 470 465 c 2
 470 460 l 2
 470 457 470 452 469 446 c 1
 469 410 l 1
 468 383 468 365 468 357 c 0
 468 347 468 334 469 323 c 1
 470 288 l 1
 470 270 l 1
 470 265 l 2
 470 255 470 254 456 254 c 2
 441 254 l 2
 430 254 429 257 429 273 c 0
 430 297 425 318 416 330 c 0
 405 345 394 347 325 347 c 2
 245 347 l 1
 245 134 l 2
 245 84 248 70 260 57 c 1
 275 43 290 39 339 39 c 2
 442 39 l 2
 497 39 503 42 532 87 c 2
 553 120 l 1
 575 150 575 150 581 150 c 0
 584 150 588 149 592 148 c 2
 608 145 l 2
 618 143 620 141 620 137 c 0
 620 134 620 134 614 118 c 1
 577 3 l 1
 575 -5 574 -6 568 -6 c 0xa2
 565 -6 555 -6 546 -5 c 2
 419 -4 l 1
 293 -1 l 2
 261 0 236 0 219 0 c 0x42
 187 0 85 -3 60 -5 c 2
 29 -6 l 2
 23 -6 22 -4 22 5 c 2
 22 22 l 2
 22 34 22 34 39 34 c 0
 103 36 112 48 112 133 c 2
 112 557 l 2
 112 640 102 654 43 656 c 0
 26 657 26 657 26 667 c 2
 26 684 l 2
 26 693 27 695 33 695 c 0x8a
 39 695 48 695 60 694 c 0
 77 693 203 689 230 689 c 0x12
 246 689 270 689 300 690 c 2
 372 692 l 1
 512 695 l 2x8a
 519 696 525 696 528 696 c 0
 540 696 542 694 542 678 c 1
 541 620 l 1
 542 567 l 1
 543 561 543 554 543 553 c 0
 543 543 541 542 531 542 c 2
 515 542 l 2
 505 542 504 543 503 560 c 0
 501 590 493 618 480 632 c 0
 467 646 447 651 394 651 c 2
 321 651 l 2
 250 651 245 645 245 558 c 2
 245 392 l 1x26
269 913 m 2
 400 795 l 2
 406 789 409 785 409 782 c 0
 409 779 407 776 403 772 c 2
 390 758 l 2
 387 754 382 751 380 751 c 0
 377 751 373 753 367 756 c 2
 209 834 l 2
 175 851 161 868 161 892 c 0
 161 920 184 942 212 942 c 0
 230 942 245 934 269 913 c 2
EndSplineSet
EndChar
StartChar: Ecircumflex
Encoding: 267 202 161
Width: 627
Flags: W
HStem: -6 20 0 20 347 45<245 325> 669 20<216.5 238> 675 20<30 36 512 512> 676 20<526.5 534>
VStem: 112 133<133 134 134 347 392 557 557 558>
Fore
245 392 m 1x26
 325 392 l 2
 403 392 419 402 432 460 c 0
 436 477 436 477 445 477 c 2
 456 477 l 2
 468 477 470 474 470 465 c 2
 470 460 l 2
 470 457 470 452 469 446 c 1
 469 410 l 1
 468 383 468 365 468 357 c 0
 468 347 468 334 469 323 c 1
 470 288 l 1
 470 270 l 1
 470 265 l 2
 470 255 470 254 456 254 c 2
 441 254 l 2
 430 254 429 257 429 273 c 0
 430 297 425 318 416 330 c 0
 405 345 394 347 325 347 c 2
 245 347 l 1
 245 134 l 2
 245 84 248 70 260 57 c 1
 275 43 290 39 339 39 c 2
 442 39 l 2
 497 39 503 42 532 87 c 2
 553 120 l 1
 575 150 575 150 581 150 c 0
 584 150 588 149 592 148 c 2
 608 145 l 2
 618 143 620 141 620 137 c 0
 620 134 620 134 614 118 c 1
 577 3 l 1
 575 -5 574 -6 568 -6 c 0xa2
 565 -6 555 -6 546 -5 c 2
 419 -4 l 1
 293 -1 l 2
 261 0 236 0 219 0 c 0x42
 187 0 85 -3 60 -5 c 2
 29 -6 l 2
 23 -6 22 -4 22 5 c 2
 22 22 l 2
 22 34 22 34 39 34 c 0
 103 36 112 48 112 133 c 2
 112 557 l 2
 112 640 102 654 43 656 c 0
 26 657 26 657 26 667 c 2
 26 684 l 2
 26 693 27 695 33 695 c 0x8a
 39 695 48 695 60 694 c 0
 77 693 203 689 230 689 c 0x12
 246 689 270 689 300 690 c 2
 372 692 l 1
 512 695 l 2x8a
 519 696 525 696 528 696 c 0
 540 696 542 694 542 678 c 1
 541 620 l 1
 542 567 l 1
 543 561 543 554 543 553 c 0
 543 543 541 542 531 542 c 2
 515 542 l 2
 505 542 504 543 503 560 c 0
 501 590 493 618 480 632 c 0
 467 646 447 651 394 651 c 2
 321 651 l 2
 250 651 245 645 245 558 c 2
 245 392 l 1x26
318 841 m 1
 217 759 l 2
 211 754 206 751 202 751 c 0
 199 751 194 754 188 758 c 2
 178 767 l 1
 173 770 170 775 170 778 c 0
 170 781 172 785 174 789 c 1
 248 893 l 2
 274 930 291 942 318 942 c 0
 346 942 363 930 389 893 c 2
 462 789 l 2
 465 785 467 781 467 778 c 0
 467 775 464 771 458 767 c 2
 448 758 l 2
 442 754 437 751 434 751 c 0
 431 751 425 754 419 759 c 2
 318 841 l 1
EndSplineSet
EndChar
StartChar: Idieresis
Encoding: 268 207 162
Width: 387
Flags: W
HStem: -6 20 0 20 669 20<185.5 201> 675 20<35 41 341.5 348> 756 148<67 107 285 325>
VStem: 13 148<810 850.5> 125 133<133 556> 231 148<810 850.5>
Fore
125 133 m 2x92
 125 556 l 2
 125 640 115 654 52 655 c 0
 31 655 31 656 31 667 c 2
 31 684 l 2
 31 692 32 695 38 695 c 0x1a
 44 695 96 693 144 690 c 0
 163 689 179 689 192 689 c 0x22
 210 689 214 689 271 692 c 0
 281 692 296 693 315 694 c 0
 328 695 338 695 345 695 c 0
 351 695 352 693 352 684 c 2
 352 667 l 2
 352 655 352 655 331 655 c 0
 268 654 258 640 258 556 c 2
 258 133 l 2
 258 47 267 35 335 34 c 0
 352 33 352 33 352 22 c 2
 352 5 l 2
 352 -4 351 -6 345 -6 c 0x92
 339 -6 287 -4 239 -1 c 0
 220 0 204 0 192 0 c 0x42
 184 0 145 -2 73 -5 c 0
 58 -6 47 -6 38 -6 c 0
 32 -6 31 -3 31 5 c 2
 31 22 l 2
 31 33 31 33 48 34 c 0
 116 35 125 47 125 133 c 2x92
87 904 m 0
 128 904 161 871 161 830 c 0
 161 789 128 756 86 756 c 0
 46 756 13 789 13 831 c 0x1d
 13 871 47 904 87 904 c 0
305 904 m 0
 346 904 379 871 379 830 c 0
 379 789 346 756 304 756 c 0
 264 756 231 789 231 831 c 0
 231 871 265 904 305 904 c 0
EndSplineSet
EndChar
StartChar: Iacute
Encoding: 269 205 163
Width: 387
Flags: W
HStem: -6 20 0 20 669 20<185 200> 675 20<34.5 40.5 341.5 348>
VStem: 125 133<133 556>
Fore
125 133 m 2x98
 125 556 l 2
 125 640 115 654 52 655 c 0
 31 655 31 655 31 667 c 2
 31 684 l 2
 31 693 32 695 37 695 c 0x18
 44 695 96 693 144 690 c 0
 163 689 179 689 191 689 c 0x28
 209 689 214 689 271 692 c 0
 281 692 296 693 315 694 c 0
 328 695 338 695 345 695 c 0
 351 695 352 693 352 684 c 2
 352 667 l 2
 352 655 352 655 331 655 c 0
 268 654 258 640 258 556 c 2
 258 133 l 2
 258 47 267 36 335 34 c 0
 352 33 352 33 352 22 c 2
 352 5 l 2
 352 -4 351 -6 345 -6 c 0x98
 339 -6 287 -4 239 -1 c 0
 220 0 204 0 192 0 c 0x48
 184 0 144 -2 72 -5 c 0
 58 -6 46 -6 38 -6 c 0
 32 -6 31 -4 31 5 c 2
 31 22 l 2
 31 33 31 33 48 34 c 0
 116 35 125 47 125 133 c 2x98
297 834 m 2
 139 756 l 2
 133 753 128 751 126 751 c 0
 123 751 119 754 115 758 c 2
 103 772 l 2
 99 776 97 779 97 782 c 0
 97 786 99 789 106 795 c 2
 236 913 l 2
 260 934 276 942 294 942 c 0
 322 942 345 920 345 891 c 0
 345 868 331 851 297 834 c 2
EndSplineSet
EndChar
StartChar: Igrave
Encoding: 270 204 164
Width: 387
Flags: W
HStem: -6 20 0 20 669 20<185 200> 675 20<34.5 40.5 341.5 348>
VStem: 125 133<133 556>
Fore
125 133 m 2x98
 125 556 l 2
 125 640 115 654 52 655 c 0
 31 655 31 655 31 667 c 2
 31 684 l 2
 31 693 32 695 37 695 c 0x18
 44 695 96 693 144 690 c 0
 163 689 179 689 191 689 c 0x28
 209 689 214 689 271 692 c 0
 281 692 296 693 315 694 c 0
 328 695 338 695 345 695 c 0
 351 695 352 693 352 684 c 2
 352 667 l 2
 352 655 352 655 331 655 c 0
 268 654 258 640 258 556 c 2
 258 133 l 2
 258 47 267 36 335 34 c 0
 352 33 352 33 352 22 c 2
 352 5 l 2
 352 -4 351 -6 345 -6 c 0x98
 339 -6 287 -4 239 -1 c 0
 220 0 204 0 192 0 c 0x48
 184 0 144 -2 72 -5 c 0
 58 -6 46 -6 38 -6 c 0
 32 -6 31 -4 31 5 c 2
 31 22 l 2
 31 33 31 33 48 34 c 0
 116 35 125 47 125 133 c 2x98
150 913 m 2
 280 795 l 2
 286 790 289 785 289 782 c 0
 289 779 287 775 284 772 c 2
 271 758 l 2
 267 754 263 751 260 751 c 0
 258 751 253 753 247 756 c 2
 89 834 l 2
 56 851 42 867 42 892 c 0
 42 920 65 942 93 942 c 0
 111 942 126 934 150 913 c 2
EndSplineSet
EndChar
StartChar: Icircumflex
Encoding: 271 206 165
Width: 387
Flags: W
HStem: -6 20 0 20 669 20<185 200> 675 20<34.5 40.5 341.5 348>
VStem: 125 133<133 556>
Fore
125 133 m 2x98
 125 556 l 2
 125 640 115 654 52 655 c 0
 31 655 31 655 31 667 c 2
 31 684 l 2
 31 693 32 695 37 695 c 0x18
 44 695 96 693 144 690 c 0
 163 689 179 689 191 689 c 0x28
 209 689 214 689 271 692 c 0
 281 692 296 693 315 694 c 0
 328 695 338 695 345 695 c 0
 351 695 352 693 352 684 c 2
 352 667 l 2
 352 655 352 655 331 655 c 0
 268 654 258 640 258 556 c 2
 258 133 l 2
 258 47 267 36 335 34 c 0
 352 33 352 33 352 22 c 2
 352 5 l 2
 352 -4 351 -6 345 -6 c 0x98
 339 -6 287 -4 239 -1 c 0
 220 0 204 0 192 0 c 0x48
 184 0 144 -2 72 -5 c 0
 58 -6 46 -6 38 -6 c 0
 32 -6 31 -4 31 5 c 2
 31 22 l 2
 31 33 31 33 48 34 c 0
 116 35 125 47 125 133 c 2x98
199 841 m 1
 97 759 l 2
 91 754 86 751 83 751 c 0
 79 751 74 754 69 758 c 2
 58 767 l 2
 53 771 50 775 50 778 c 0
 50 781 52 785 55 789 c 2
 128 893 l 2
 154 931 171 942 198 942 c 0
 226 942 243 930 269 893 c 2
 342 789 l 2
 345 785 347 781 347 778 c 0
 347 775 344 771 339 767 c 2
 328 758 l 2
 323 754 318 751 314 751 c 0
 311 751 306 754 300 759 c 2
 199 841 l 1
EndSplineSet
EndChar
StartChar: Ntilde
Encoding: 272 209 166
Width: 848
Flags: W
HStem: -6 20 0 20 669 20<118.5 128 736 744.5> 675 20<601.5 609.5 820.5 826.5> 676 20<21 28 236.5 245> 751 91<499 518.5> 819 91<335 354.5>
VStem: 126 59<148 499 499 516> 684 59<269 547>
Fore
379 540 m 1x8980
 680 192 l 1
 683 210 684 234 684 269 c 2
 684 556 l 2
 684 609 683 618 675 632 c 0
 666 646 644 654 613 654 c 0
 592 654 591 654 591 667 c 2
 591 679 l 2
 591 691 595 695 608 695 c 0x1380
 611 695 666 692 736 689 c 0x2180
 753 689 762 690 810 694 c 0
 815 695 819 695 822 695 c 0
 831 695 833 692 833 679 c 2
 833 667 l 2
 833 656 830 654 816 654 c 0
 757 655 743 635 743 547 c 2
 743 88 l 2
 743 65 743 22 744 3 c 1
 744 -12 l 2
 744 -20 741 -23 732 -23 c 2
 721 -23 l 2
 696 -23 692 -21 680 -10 c 0
 666 4 649 23 618 58 c 2
 214 527 l 2
 202 541 194 548 191 548 c 0
 187 548 185 540 185 516 c 2
 185 148 l 2
 185 85 189 64 203 48 c 0
 216 35 224 34 273 33 c 0
 280 33 282 30 282 21 c 2
 282 6 l 2
 282 -4 280 -6 270 -6 c 0x1380
 266 -6 261 -6 255 -5 c 0
 238 -4 172 0 166 0 c 0x4180
 151 0 130 -1 99 -3 c 0
 72 -5 55 -6 41 -6 c 0
 26 -6 23 -3 23 9 c 2
 23 21 l 2
 23 31 26 34 35 34 c 0
 109 33 126 54 126 148 c 2
 126 499 l 2
 126 578 120 614 104 634 c 0
 93 647 66 655 35 654 c 0
 15 654 13 655 13 667 c 2
 13 679 l 2
 13 692 16 696 26 696 c 0x8980
 30 696 30 696 65 693 c 0
 92 690 113 689 124 689 c 0x2180
 132 689 143 690 221 695 c 0x1380
 227 696 235 696 238 696 c 0
 252 696 255 694 269 670 c 1
 379 540 l 1x8980
267 757 m 2
 256 767 l 2
 252 771 249 777 249 782 c 0
 249 797 261 832 274 855 c 0
 295 893 319 910 351 910 c 0x0380
 379 910 405 899 448 868 c 0
 476 849 491 842 507 842 c 0
 530 842 549 858 557 884 c 0
 563 904 564 907 570 907 c 0
 572 907 575 905 578 903 c 2
 590 893 l 2
 597 887 599 884 599 877 c 0
 599 860 590 826 579 804 c 0
 563 770 536 751 505 751 c 0x0580
 478 751 454 761 413 788 c 0
 380 811 363 819 346 819 c 0
 321 819 300 799 289 765 c 0
 286 755 283 751 278 751 c 0
 275 751 271 753 267 757 c 2
EndSplineSet
EndChar
StartChar: Odieresis
Encoding: 273 214 167
Width: 867
Flags: MW
HStem: -18 48<371.5 481> 666 48<341 452> 756 148<307 347 525 565>
VStem: 38 145<289 448> 253 148<810 850.5> 471 148<810 850.5> 678 145<269.5 358.5>
Fore
430 714 m 0
 656 714 823 564 823 360 c 0
 823 144 649 -18 415 -18 c 0
 191 -18 38 128 38 342 c 0
 38 554 207 714 430 714 c 0
412 666 m 0
 270 666 183 562 183 393 c 0
 183 185 296 30 447 30 c 0
 515 30 580 62 622 116 c 0
 659 164 678 229 678 310 c 0
 678 407 652 500 608 564 c 0
 564 629 492 666 412 666 c 0
327 904 m 0
 368 904 401 871 401 830 c 0
 401 789 368 756 326 756 c 0
 286 756 253 789 253 831 c 0
 253 871 287 904 327 904 c 0
545 904 m 0
 586 904 619 871 619 830 c 0
 619 789 586 756 544 756 c 0
 504 756 471 789 471 831 c 0
 471 871 505 904 545 904 c 0
EndSplineSet
KernsSLIF: 89 -54 0 0 88 -51 0 0 87 -52 0 0 86 -50 0 0 84 -14 0 0 65 -58 0 0
EndChar
StartChar: Oacute
Encoding: 274 211 168
Width: 867
Flags: MW
HStem: -18 48<371.5 481> 666 48<341 452>
VStem: 38 145<289 448> 678 145<269.5 358.5>
Fore
430 714 m 0
 656 714 823 564 823 360 c 0
 823 144 649 -18 415 -18 c 0
 191 -18 38 128 38 342 c 0
 38 554 207 714 430 714 c 0
412 666 m 0
 270 666 183 562 183 393 c 0
 183 185 296 30 447 30 c 0
 515 30 580 62 622 116 c 0
 659 164 678 229 678 310 c 0
 678 407 652 500 608 564 c 0
 564 629 492 666 412 666 c 0
537 834 m 2
 379 756 l 2
 373 753 368 751 366 751 c 0
 363 751 359 754 355 758 c 2
 342 772 l 2
 339 775 337 779 337 782 c 0
 337 785 339 789 346 795 c 2
 476 913 l 2
 500 934 516 942 534 942 c 0
 562 942 585 920 585 891 c 0
 585 867 571 851 537 834 c 2
EndSplineSet
KernsSLIF: 89 -54 0 0 87 -52 0 0 86 -50 0 0 84 -14 0 0 65 -58 0 0
EndChar
StartChar: Ograve
Encoding: 275 210 169
Width: 867
Flags: MW
HStem: -18 48<371.5 481> 666 48<341 452>
VStem: 38 145<289 448> 678 145<269.5 358.5>
Fore
430 714 m 0
 656 714 823 564 823 360 c 0
 823 144 649 -18 415 -18 c 0
 191 -18 38 128 38 342 c 0
 38 554 207 714 430 714 c 0
412 666 m 0
 270 666 183 562 183 393 c 0
 183 185 296 30 447 30 c 0
 515 30 580 62 622 116 c 0
 659 164 678 229 678 310 c 0
 678 407 652 500 608 564 c 0
 564 629 492 666 412 666 c 0
390 913 m 2
 520 795 l 2
 526 790 529 785 529 782 c 0
 529 779 527 775 524 772 c 2
 511 758 l 2
 507 754 503 751 500 751 c 0
 498 751 493 753 487 756 c 2
 329 834 l 2
 296 851 282 867 282 892 c 0
 282 920 305 942 333 942 c 0
 351 942 366 934 390 913 c 2
EndSplineSet
KernsSLIF: 89 -54 0 0 86 -50 0 0 84 -14 0 0
EndChar
StartChar: Ocircumflex
Encoding: 276 212 170
Width: 867
Flags: MW
HStem: -18 48<371.5 481> 666 48<341 452>
VStem: 38 145<289 448> 678 145<269.5 358.5>
Fore
430 714 m 0
 656 714 823 564 823 360 c 0
 823 144 649 -18 415 -18 c 0
 191 -18 38 128 38 342 c 0
 38 554 207 714 430 714 c 0
412 666 m 0
 270 666 183 562 183 393 c 0
 183 185 296 30 447 30 c 0
 515 30 580 62 622 116 c 0
 659 164 678 229 678 310 c 0
 678 407 652 500 608 564 c 0
 564 629 492 666 412 666 c 0
439 841 m 1
 337 759 l 2
 331 754 326 751 323 751 c 0
 320 751 315 754 309 758 c 2
 298 767 l 2
 293 771 290 775 290 778 c 0
 290 781 292 785 295 789 c 2
 368 893 l 2
 394 930 411 942 439 942 c 0
 466 942 483 930 509 893 c 2
 582 789 l 2
 585 785 587 781 587 778 c 0
 587 775 584 771 579 767 c 2
 568 758 l 2
 563 754 558 751 554 751 c 0
 551 751 546 754 540 759 c 2
 439 841 l 1
EndSplineSet
KernsSLIF: 89 -54 0 0 86 -50 0 0 84 -14 0 0
EndChar
StartChar: Otilde
Encoding: 277 213 171
Width: 867
Flags: W
HStem: -18 48<371.5 481> 666 48<341 452> 751 91<509 528.5> 819 91<345 364>
VStem: 38 145<289 448> 678 145<269.5 358.5>
Fore
430 714 m 0xdc
 656 714 823 564 823 360 c 0
 823 144 649 -18 415 -18 c 0
 191 -18 38 128 38 342 c 0
 38 554 207 714 430 714 c 0xdc
412 666 m 0
 270 666 183 562 183 393 c 0
 183 185 296 30 447 30 c 0
 515 30 580 62 622 116 c 0
 659 164 678 229 678 310 c 0
 678 407 652 500 608 564 c 0
 564 629 492 666 412 666 c 0
276 757 m 2
 265 767 l 2
 261 770 259 776 259 782 c 0
 259 798 270 832 283 855 c 0
 305 893 329 910 361 910 c 0x1c
 389 910 414 899 458 868 c 0
 486 849 501 842 517 842 c 0
 540 842 558 858 566 884 c 0
 572 904 574 906 578 907 c 0
 581 907 584 906 588 903 c 2
 599 893 l 2
 608 886 609 884 609 876 c 0
 609 860 600 827 589 804 c 0
 574 771 546 751 515 751 c 0x2c
 488 751 463 761 423 788 c 0
 389 811 372 819 356 819 c 0
 331 819 309 799 299 765 c 0
 295 755 292 751 288 751 c 0
 284 751 280 753 276 757 c 2
EndSplineSet
KernsSLIF: 89 -54 0 0 86 -50 0 0 84 -14 0 0
EndChar
StartChar: Scaron
Encoding: 278 352 172
Width: 535
Flags: MW
HStem: -18 44<210 290.5> 669 45<238.5 309.5>
VStem: 49 104<532.5 567> 391 104<133 171>
Fore
452 659 m 1
 452 553 l 2
 452 537 451 536 442 536 c 2
 421 536 l 2
 407 536 407 536 405 550 c 0
 390 626 344 669 275 669 c 0
 202 669 153 626 153 562 c 0
 153 503 188 468 294 421 c 0
 376 385 417 361 445 332 c 0
 479 296 495 252 495 198 c 0
 495 68 391 -18 235 -18 c 0
 170 -18 115 -5 59 22 c 1
 46 145 l 2
 45 155 47 157 57 157 c 2
 73 157 l 2
 84 157 85 156 88 148 c 0
 117 68 171 26 249 26 c 0
 332 26 391 73 391 139 c 0
 391 203 359 236 242 289 c 0
 93 357 49 407 49 507 c 0
 49 627 144 714 275 714 c 0
 346 714 413 693 452 659 c 1
272 852 m 1
 373 934 l 2
 380 939 385 942 388 942 c 0
 391 942 396 939 402 935 c 2
 413 926 l 2
 418 921 421 918 421 915 c 0
 421 912 419 908 416 903 c 2
 343 799 l 2
 317 763 300 751 272 751 c 0
 245 751 227 763 202 799 c 2
 129 903 l 2
 126 907 124 911 124 915 c 0
 124 918 127 922 132 926 c 2
 142 935 l 2
 148 939 153 942 156 942 c 0
 159 942 165 939 171 934 c 2
 272 852 l 1
EndSplineSet
EndChar
StartChar: Udieresis
Encoding: 279 220 173
Width: 811
Flags: W
HStem: -21 73<362 450.5> 669 20<160 197 670.5 688.5> 675 20<25.5 29.5 329 335.5 562.5 569 791 797.5> 756 148<280 320 498 538>
VStem: 112 133<222 230 230 556> 226 148<810.5 850.5> 444 148<810 850.5> 650 59<268 556>
Fore
245 556 m 2xb9
 245 230 l 2
 245 102 296 52 428 52 c 0
 523 52 588 79 623 134 c 0
 644 169 650 196 650 268 c 2
 650 556 l 2
 650 641 641 653 575 655 c 0
 558 656 558 656 558 667 c 2
 558 684 l 2
 558 693 560 695 565 695 c 0xb9
 573 695 584 694 599 693 c 0
 616 691 662 689 679 689 c 0x49
 698 689 743 691 758 693 c 0
 775 694 787 695 795 695 c 0
 800 695 802 692 802 684 c 2
 802 667 l 2
 802 656 802 656 785 655 c 0
 718 653 709 642 709 556 c 2
 709 268 l 2
 709 168 692 115 646 67 c 0
 591 10 504 -21 397 -21 c 0
 288 -21 200 10 156 64 c 0
 125 103 112 149 112 222 c 2
 112 556 l 2
 112 641 103 653 39 655 c 0
 22 656 22 656 22 667 c 2
 22 684 l 2
 22 693 23 695 28 695 c 0xb9
 31 695 34 695 38 694 c 0
 58 692 143 689 177 689 c 0x49
 217 689 251 690 296 693 c 0
 316 694 326 695 332 695 c 0
 339 695 340 693 340 684 c 2
 340 667 l 2
 340 656 340 656 323 655 c 0
 254 654 245 643 245 556 c 2xb9
300 904 m 0
 341 904 374 871 374 830 c 0
 374 789 341 756 299 756 c 0
 259 756 226 790 226 831 c 0xb6
 226 871 260 904 300 904 c 0
518 904 m 0
 559 904 592 871 592 830 c 0
 592 789 559 756 517 756 c 0
 477 756 444 789 444 831 c 0
 444 871 478 904 518 904 c 0
EndSplineSet
KernsSLIF: 114 -24 0 0 46 -11 0 0 112 -21 0 0 110 -24 0 0 109 -19 0 0 44 -8 0 0 98 2 0 0 65 -55 0 0
EndChar
StartChar: Uacute
Encoding: 280 218 174
Width: 811
Flags: W
HStem: -21 73<362 450.5> 669 20<160 197 670.5 688.5> 675 20<25.5 29.5 329 335.5 562.5 569 791 797.5>
VStem: 112 133<222 230 230 556> 650 59<268 556>
Fore
245 556 m 2xb8
 245 230 l 2
 245 102 296 52 428 52 c 0
 523 52 588 79 623 134 c 0
 644 169 650 196 650 268 c 2
 650 556 l 2
 650 641 641 653 575 655 c 0
 558 656 558 656 558 667 c 2
 558 684 l 2
 558 693 560 695 565 695 c 0xb8
 573 695 584 694 599 693 c 0
 616 691 662 689 679 689 c 0x58
 698 689 743 691 758 693 c 0
 775 694 787 695 795 695 c 0
 800 695 802 692 802 684 c 2
 802 667 l 2
 802 656 802 656 785 655 c 0
 718 653 709 642 709 556 c 2
 709 268 l 2
 709 168 692 115 646 67 c 0
 591 10 504 -21 397 -21 c 0
 288 -21 200 10 156 64 c 0
 125 103 112 149 112 222 c 2
 112 556 l 2
 112 641 103 653 39 655 c 0
 22 656 22 656 22 667 c 2
 22 684 l 2
 22 693 23 695 28 695 c 0xb8
 31 695 34 695 38 694 c 0
 58 692 143 689 177 689 c 0x58
 217 689 251 690 296 693 c 0
 316 694 326 695 332 695 c 0
 339 695 340 693 340 684 c 2
 340 667 l 2
 340 656 340 656 323 655 c 0
 254 654 245 643 245 556 c 2xb8
510 834 m 2
 352 756 l 2
 346 753 341 751 339 751 c 0
 336 751 332 754 328 758 c 2
 315 772 l 2
 312 775 310 779 310 782 c 0
 310 786 313 789 319 795 c 2
 449 913 l 2
 473 934 488 942 506 942 c 0
 534 942 557 920 557 892 c 0
 557 868 543 850 510 834 c 2
EndSplineSet
KernsSLIF: 114 -24 0 0 46 -11 0 0 112 -21 0 0 110 -24 0 0 109 -19 0 0 44 -8 0 0 65 -55 0 0
EndChar
StartChar: Ugrave
Encoding: 281 217 175
Width: 811
Flags: W
HStem: -21 73<362 450.5> 669 20<160 197 670.5 688.5> 675 20<25.5 29.5 329 335.5 562.5 569 791 797.5>
VStem: 112 133<222 230 230 556> 650 59<268 556>
Fore
245 556 m 2xb8
 245 230 l 2
 245 102 296 52 428 52 c 0
 523 52 588 79 623 134 c 0
 644 169 650 196 650 268 c 2
 650 556 l 2
 650 641 641 653 575 655 c 0
 558 656 558 656 558 667 c 2
 558 684 l 2
 558 693 560 695 565 695 c 0xb8
 573 695 584 694 599 693 c 0
 616 691 662 689 679 689 c 0x58
 698 689 743 691 758 693 c 0
 775 694 787 695 795 695 c 0
 800 695 802 692 802 684 c 2
 802 667 l 2
 802 656 802 656 785 655 c 0
 718 653 709 642 709 556 c 2
 709 268 l 2
 709 168 692 115 646 67 c 0
 591 10 504 -21 397 -21 c 0
 288 -21 200 10 156 64 c 0
 125 103 112 149 112 222 c 2
 112 556 l 2
 112 641 103 653 39 655 c 0
 22 656 22 656 22 667 c 2
 22 684 l 2
 22 693 23 695 28 695 c 0xb8
 31 695 34 695 38 694 c 0
 58 692 143 689 177 689 c 0x58
 217 689 251 690 296 693 c 0
 316 694 326 695 332 695 c 0
 339 695 340 693 340 684 c 2
 340 667 l 2
 340 656 340 656 323 655 c 0
 254 654 245 643 245 556 c 2xb8
363 913 m 2
 493 795 l 2
 499 790 502 785 502 782 c 0
 502 779 500 776 496 772 c 2
 484 758 l 2
 480 754 476 751 473 751 c 0
 471 751 466 753 460 756 c 2
 302 834 l 2
 269 850 255 867 255 892 c 0
 255 920 277 942 306 942 c 0
 324 942 339 934 363 913 c 2
EndSplineSet
KernsSLIF: 65 -55 0 0
EndChar
StartChar: Ucircumflex
Encoding: 282 219 176
Width: 811
Flags: W
HStem: -21 73<362 450.5> 669 20<160 197 670.5 688.5> 675 20<25.5 29.5 329 335.5 562.5 569 791 797.5>
VStem: 112 133<222 230 230 556> 650 59<268 556>
Fore
245 556 m 2xb8
 245 230 l 2
 245 102 296 52 428 52 c 0
 523 52 588 79 623 134 c 0
 644 169 650 196 650 268 c 2
 650 556 l 2
 650 641 641 653 575 655 c 0
 558 656 558 656 558 667 c 2
 558 684 l 2
 558 693 560 695 565 695 c 0xb8
 573 695 584 694 599 693 c 0
 616 691 662 689 679 689 c 0x58
 698 689 743 691 758 693 c 0
 775 694 787 695 795 695 c 0
 800 695 802 692 802 684 c 2
 802 667 l 2
 802 656 802 656 785 655 c 0
 718 653 709 642 709 556 c 2
 709 268 l 2
 709 168 692 115 646 67 c 0
 591 10 504 -21 397 -21 c 0
 288 -21 200 10 156 64 c 0
 125 103 112 149 112 222 c 2
 112 556 l 2
 112 641 103 653 39 655 c 0
 22 656 22 656 22 667 c 2
 22 684 l 2
 22 693 23 695 28 695 c 0xb8
 31 695 34 695 38 694 c 0
 58 692 143 689 177 689 c 0x58
 217 689 251 690 296 693 c 0
 316 694 326 695 332 695 c 0
 339 695 340 693 340 684 c 2
 340 667 l 2
 340 656 340 656 323 655 c 0
 254 654 245 643 245 556 c 2xb8
411 841 m 1
 310 759 l 2
 304 754 299 751 296 751 c 0
 292 751 287 754 281 758 c 2
 271 767 l 1
 266 770 263 775 263 778 c 0
 263 781 265 785 268 789 c 2
 341 893 l 2
 367 930 384 942 411 942 c 0
 439 942 456 930 482 893 c 2
 555 789 l 2
 558 785 560 781 560 778 c 0
 560 775 557 771 552 767 c 2
 541 758 l 2
 535 754 530 751 527 751 c 0
 524 751 519 754 512 759 c 2
 411 841 l 1
EndSplineSet
KernsSLIF: 65 -55 0 0
EndChar
StartChar: Yacute
Encoding: 283 221 177
Width: 701
Flags: W
HStem: -6 20 0 20 669 20<177.5 197.5 565.5 595.5> 675 20<15.5 25 304 312 484.5 490.5 685.5 691>
VStem: 290 133<133 287 287 292>
Fore
405 389 m 1x98
 519 564 l 2
 541 598 553 623 553 635 c 0
 553 647 533 653 494 653 c 0
 480 653 478 655 478 668 c 2
 478 681 l 2
 478 692 480 695 489 695 c 0x98
 492 695 496 695 500 694 c 0
 528 690 550 689 581 689 c 0x28
 610 689 650 691 672 694 c 0
 678 695 684 695 687 695 c 0
 695 695 697 692 697 681 c 2
 697 668 l 2
 697 656 697 656 678 654 c 0
 644 650 613 618 549 521 c 1
 445 357 l 2
 429 332 426 326 424 321 c 0
 423 317 423 315 423 292 c 2
 423 133 l 2
 423 46 431 36 500 34 c 0
 517 33 517 33 517 22 c 2
 517 5 l 2
 517 -4 516 -6 510 -6 c 0x98
 502 -6 490 -5 475 -4 c 0
 452 -2 389 0 355 0 c 0x48
 319 0 261 -2 238 -4 c 0
 224 -5 213 -6 205 -6 c 0
 200 -6 198 -3 198 5 c 2
 198 22 l 2
 198 33 199 33 215 34 c 0
 281 36 290 48 290 133 c 2
 290 287 l 2
 290 322 290 322 271 350 c 2
 134 558 l 2
 82 637 59 656 15 656 c 0
 7 656 5 658 5 668 c 2
 5 681 l 2
 5 691 9 695 22 695 c 0x98
 28 695 34 695 41 694 c 0
 76 692 168 689 187 689 c 0x28
 208 689 228 690 249 691 c 0
 291 694 302 695 306 695 c 0
 318 695 320 692 320 681 c 2
 320 668 l 2
 320 656 318 654 306 654 c 0
 257 654 243 650 243 636 c 0
 243 627 249 616 272 582 c 2
 405 389 l 1x98
454 834 m 2
 296 756 l 2
 290 753 285 751 283 751 c 0
 280 751 276 754 272 758 c 2
 259 772 l 2
 256 775 254 779 254 782 c 0
 254 786 257 789 263 795 c 2
 393 913 l 1
 418 934 432 942 450 942 c 0
 478 942 501 920 501 892 c 0
 501 868 487 850 454 834 c 2
EndSplineSet
EndChar
StartChar: Zcaron
Encoding: 284 381 178
Width: 664
Flags: W
HStem: -6 20 0 42<312.5 346.5> 638 44<321.5 346>
Fore
74 531 m 2xa0
 44 547 l 1
 53 574 56 585 63 610 c 0
 68 625 68 625 75 654 c 0
 79 669 83 683 86 698 c 0
 89 706 91 715 93 724 c 1
 112 729 l 2
 117 730 122 731 125 731 c 0
 132 731 132 731 152 708 c 0
 163 694 174 689 192 687 c 0
 221 685 308 682 335 682 c 0
 357 682 560 686 598 688 c 2
 609 688 l 2
 625 688 632 684 632 677 c 0
 632 670 626 659 613 639 c 0
 604 627 596 614 588 601 c 2
 525 503 l 1
 433 365 l 1
 279 145 l 2
 232 78 215 52 215 47 c 0
 215 43 215 43 233 42 c 2
 393 42 l 2x60
 495 42 542 66 578 138 c 0
 587 154 590 158 596 158 c 0
 597 158 600 158 603 157 c 2
 620 153 l 2
 630 151 634 148 634 143 c 0
 634 137 628 117 617 87 c 0
 604 52 601 43 597 17 c 0
 594 -2 591 -6 580 -6 c 0x80
 569 -6 544 -5 520 -4 c 0
 475 -2 367 0 326 0 c 0x60
 299 0 111 -4 85 -5 c 0
 69 -6 54 -6 45 -6 c 0
 32 -6 25 -1 25 7 c 0
 25 18 26 19 75 86 c 1
 416 586 l 2
 436 616 443 627 443 632 c 0
 443 637 439 638 427 638 c 2
 265 638 l 2
 168 638 141 624 100 552 c 0
 90 533 86 528 83 528 c 0
 80 528 78 529 74 531 c 2xa0
337 852 m 1
 439 934 l 2
 445 939 450 942 453 942 c 0
 456 942 461 939 467 935 c 2
 478 926 l 2
 483 922 486 918 486 915 c 0
 486 912 484 908 481 903 c 2
 408 799 l 2
 382 763 365 751 337 751 c 0
 310 751 293 763 267 799 c 2
 194 903 l 2
 191 907 189 912 189 915 c 0
 189 918 192 922 197 926 c 2
 208 935 l 2
 214 939 219 942 222 942 c 0
 225 942 230 939 236 934 c 2
 337 852 l 1
EndSplineSet
EndChar
StartChar: Thorn
Encoding: 285 222 179
Width: 627
Flags: W
HStem: -6 20 0 20 517 47<308.5 365.5> 669 20<193 208> 675 20<39 48.5 337 343.5>
VStem: 123 134<167 174 174 390> 459 134<320 402.5>
Fore
351 680 m 2x8e
 351 673 l 2
 351 658 351 658 316 654 c 0
 272 649 260 630 259 562 c 1
 277 563 293 564 300 564 c 0
 473 564 593 476 593 349 c 0
 593 291 565 237 515 199 c 0
 473 166 416 150 345 150 c 0
 312 150 307 152 307 163 c 2
 307 185 l 2
 307 196 309 198 321 198 c 0
 417 197 459 243 459 349 c 0
 459 456 409 517 322 517 c 0
 295 517 275 510 266 497 c 0
 257 484 257 483 257 390 c 2
 257 174 l 2
 257 81 258 74 269 58 c 0
 280 43 299 36 328 35 c 0
 349 35 351 34 351 18 c 2
 351 9 l 2
 351 -3 348 -6 338 -6 c 0xa6
 336 -6 336 -6 303 -4 c 0
 283 -3 209 0 190 0 c 0x46
 169 0 137 -1 40 -6 c 2
 37 -6 l 2
 30 -6 29 -4 29 7 c 2
 29 22 l 2
 29 32 37 34 70 35 c 0
 101 36 120 55 122 86 c 0
 123 94 123 94 123 167 c 2
 123 532 l 2
 123 621 123 621 112 635 c 0
 101 648 82 654 49 655 c 0
 36 655 29 659 29 666 c 2
 29 682 l 2
 29 691 33 695 45 695 c 0x8e
 52 695 52 695 141 691 c 0
 167 690 188 689 198 689 c 0x16
 218 689 262 691 301 693 c 0
 322 694 335 695 339 695 c 0
 348 695 351 691 351 680 c 2x8e
EndSplineSet
EndChar
StartChar: Ydieresis
Encoding: 286 376 180
Width: 701
Flags: W
HStem: -6 20 0 20 669 20<177.5 197.5 565.5 595.5> 675 20<15.5 25 304 312 484.5 490.5 685.5 691> 756 148<224 264 442 482>
VStem: 170 148<810 850.5> 290 133<133 287 287 292> 388 148<810.5 850.5>
Fore
405 389 m 1x92
 519 564 l 2
 541 598 553 623 553 635 c 0
 553 647 533 653 494 653 c 0
 480 653 478 655 478 668 c 2
 478 681 l 2
 478 692 480 695 489 695 c 0x1d
 492 695 496 695 500 694 c 0
 528 690 550 689 581 689 c 0x25
 610 689 650 691 672 694 c 0
 678 695 684 695 687 695 c 0
 695 695 697 692 697 681 c 2
 697 668 l 2
 697 656 697 656 678 654 c 0
 644 650 613 618 549 521 c 1
 445 357 l 2
 429 332 426 326 424 321 c 0
 423 317 423 315 423 292 c 2
 423 133 l 2
 423 46 431 36 500 34 c 0
 517 33 517 33 517 22 c 2
 517 5 l 2
 517 -4 516 -6 510 -6 c 0x92
 502 -6 490 -5 475 -4 c 0
 452 -2 389 0 355 0 c 0x42
 319 0 261 -2 238 -4 c 0
 224 -5 213 -6 205 -6 c 0
 200 -6 198 -3 198 5 c 2
 198 22 l 2
 198 33 199 33 215 34 c 0
 281 36 290 48 290 133 c 2
 290 287 l 2
 290 322 290 322 271 350 c 2
 134 558 l 2
 82 637 59 656 15 656 c 0
 7 656 5 658 5 668 c 2
 5 681 l 2
 5 691 9 695 22 695 c 0x92
 28 695 34 695 41 694 c 0
 76 692 168 689 187 689 c 0x22
 208 689 228 690 249 691 c 0
 291 694 302 695 306 695 c 0
 318 695 320 692 320 681 c 2
 320 668 l 2
 320 656 318 654 306 654 c 0
 257 654 243 650 243 636 c 0
 243 627 249 616 272 582 c 2
 405 389 l 1x92
244 904 m 0
 285 904 318 871 318 830 c 0
 318 789 285 756 243 756 c 0
 203 756 170 789 170 831 c 0
 170 871 204 904 244 904 c 0
462 904 m 0
 503 904 536 871 536 830 c 0
 536 789 503 756 461 756 c 0
 421 756 388 790 388 831 c 0
 388 871 422 904 462 904 c 0
EndSplineSet
EndChar
StartChar: adieresis
Encoding: 287 228 181
Width: 461
Flags: W
HStem: -16 68 555 145<109.5 149 312 351>
VStem: 31 111 41 78 57 145<608.5 647> 259 145<608.5 647.5> 275 111<110.5 138 138 209 209 209 241 282 282 309>
Fore
129 304 m 1xd2
 52 268 l 1
 46 279 41 298 41 311 c 0xd2
 41 339 70 371 132 410 c 1
 169 435 188 445 217 455 c 1
 286 455 320 447 346 426 c 0
 375 403 386 371 386 309 c 2
 386 138 l 2
 386 83 390 68 405 68 c 0
 418 68 426 76 437 95 c 1
 456 87 l 1
 435 18 401 -16 350 -16 c 0
 303 -16 279 12 277 69 c 1
 208 4 173 -16 125 -16 c 0
 97 -16 70 -2 57 20 c 0
 44 42 31 86 31 106 c 0xe2
 31 130 53 149 113 178 c 0
 152 196 225 225 275 241 c 1
 275 282 l 2
 275 352 254 376 192 376 c 0
 145 376 119 363 119 339 c 0
 119 331 119 330 129 304 c 1xd2
275 105 m 1
 275 209 l 1
 160 162 142 151 142 129 c 0xe2
 142 115 147 93 152 78 c 0
 158 62 173 52 190 52 c 0
 219 52 243 67 275 105 c 1
129 700 m 0xcc
 169 700 202 667 202 627 c 0
 202 587 169 555 129 555 c 0
 89 555 57 588 57 629 c 0
 57 667 90 700 129 700 c 0xcc
332 700 m 0
 371 700 404 667 404 628 c 0
 404 587 371 555 331 555 c 0
 291 555 259 588 259 629 c 0
 259 667 292 700 332 700 c 0
EndSplineSet
KernsSLIF: 121 -16 0 0 119 -18 0 0 118 -16 0 0
EndChar
StartChar: aacute
Encoding: 288 225 182
Width: 461
Flags: W
HStem: -16 68
VStem: 31 111 41 78 275 111<110.5 138 138 209 209 209 241 282 282 309>
Fore
129 304 m 1xb0
 52 268 l 1
 46 279 41 298 41 311 c 0xb0
 41 339 70 371 132 410 c 1
 169 435 188 445 217 455 c 1
 286 455 320 447 346 426 c 0
 375 403 386 371 386 309 c 2
 386 138 l 2
 386 83 390 68 405 68 c 0
 418 68 426 76 437 95 c 1
 456 87 l 1
 435 18 401 -16 350 -16 c 0
 303 -16 279 12 277 69 c 1
 208 4 173 -16 125 -16 c 0
 97 -16 70 -2 57 20 c 0
 44 42 31 86 31 106 c 0xd0
 31 130 53 149 113 178 c 0
 152 196 225 225 275 241 c 1
 275 282 l 2
 275 352 254 376 192 376 c 0
 145 376 119 363 119 339 c 0
 119 331 119 330 129 304 c 1xb0
275 105 m 1
 275 209 l 1
 160 162 142 151 142 129 c 0xd0
 142 115 147 93 152 78 c 0
 158 62 173 52 190 52 c 0
 219 52 243 67 275 105 c 1
185 548 m 2
 248 716 l 1
 266 762 280 777 305 777 c 0
 333 777 358 753 358 726 c 0
 358 710 348 691 329 665 c 1
 218 523 l 2
 216 521 213 519 210 519 c 0
 207 519 204 520 202 521 c 2
 191 529 l 2
 187 532 184 536 184 541 c 0
 184 543 184 546 185 548 c 2
EndSplineSet
KernsSLIF: 121 -15 0 0 119 -17 0 0 118 -15 0 0
EndChar
StartChar: agrave
Encoding: 289 224 183
Width: 461
Flags: W
HStem: -16 68
VStem: 31 111 41 78 275 111<110.5 138 138 209 209 209 241 282 282 309>
Fore
129 304 m 1xb0
 52 268 l 1
 46 279 41 298 41 311 c 0xb0
 41 339 70 371 132 410 c 1
 169 435 188 445 217 455 c 1
 286 455 320 447 346 426 c 0
 375 403 386 371 386 309 c 2
 386 138 l 2
 386 83 390 68 405 68 c 0
 418 68 426 76 437 95 c 1
 456 87 l 1
 435 18 401 -16 350 -16 c 0
 303 -16 279 12 277 69 c 1
 208 4 173 -16 125 -16 c 0
 97 -16 70 -2 57 20 c 0
 44 42 31 86 31 106 c 0xd0
 31 130 53 149 113 178 c 0
 152 196 225 225 275 241 c 1
 275 282 l 2
 275 352 254 376 192 376 c 0
 145 376 119 363 119 339 c 0
 119 331 119 330 129 304 c 1xb0
275 105 m 1
 275 209 l 1
 160 162 142 151 142 129 c 0xd0
 142 115 147 93 152 78 c 0
 158 62 173 52 190 52 c 0
 219 52 243 67 275 105 c 1
252 523 m 2
 141 665 l 2
 120 692 111 710 111 726 c 0
 111 753 136 777 165 777 c 0
 190 777 204 762 221 716 c 2
 284 548 l 2
 285 546 286 543 286 541 c 0
 286 537 283 532 278 529 c 2
 268 521 l 1
 265 520 263 519 260 519 c 0
 257 519 254 521 252 523 c 2
EndSplineSet
KernsSLIF: 121 -15 0 0 119 -17 0 0 118 -15 0 0
EndChar
StartChar: acircumflex
Encoding: 290 226 184
Width: 461
Flags: W
HStem: -16 68
VStem: 31 111 41 78 275 111<110.5 138 138 209 209 209 241 282 282 309>
Fore
129 304 m 1xb0
 52 268 l 1
 46 279 41 298 41 311 c 0xb0
 41 339 70 371 132 410 c 1
 169 435 188 445 217 455 c 1
 286 455 320 447 346 426 c 0
 375 403 386 371 386 309 c 2
 386 138 l 2
 386 83 390 68 405 68 c 0
 418 68 426 76 437 95 c 1
 456 87 l 1
 435 18 401 -16 350 -16 c 0
 303 -16 279 12 277 69 c 1
 208 4 173 -16 125 -16 c 0
 97 -16 70 -2 57 20 c 0
 44 42 31 86 31 106 c 0xd0
 31 130 53 149 113 178 c 0
 152 196 225 225 275 241 c 1
 275 282 l 2
 275 352 254 376 192 376 c 0
 145 376 119 363 119 339 c 0
 119 331 119 330 129 304 c 1xb0
275 105 m 1
 275 209 l 1
 160 162 142 151 142 129 c 0xd0
 142 115 147 93 152 78 c 0
 158 62 173 52 190 52 c 0
 219 52 243 67 275 105 c 1
233 661 m 1
 133 525 l 1
 130 522 126 519 123 519 c 0
 120 519 117 520 115 522 c 2
 105 530 l 2
 102 533 100 536 100 538 c 0
 100 540 101 544 103 549 c 2
 156 691 l 2
 178 749 178 750 191 763 c 0
 200 771 216 777 232 777 c 0
 260 777 277 766 290 740 c 0
 292 736 299 719 309 691 c 1
 362 549 l 1
 364 545 365 541 365 538 c 0
 365 536 363 533 360 530 c 2
 351 522 l 2
 348 520 345 519 342 519 c 0
 339 519 335 521 333 525 c 1
 233 661 l 1
EndSplineSet
EndChar
StartChar: atilde
Encoding: 291 227 185
Width: 461
Flags: W
HStem: -16 68 535 91<306 312.5> 604 91<163 173> 672 20<363.5 367.5>
VStem: 31 111 41 78 275 111<110.5 138 138 209 209 209 241 282 282 309>
Fore
129 304 m 1xa6
 52 268 l 1
 46 279 41 298 41 311 c 0xa6
 41 339 70 371 132 410 c 1
 169 435 188 445 217 455 c 1
 286 455 320 447 346 426 c 0
 375 403 386 371 386 309 c 2
 386 138 l 2
 386 83 390 68 405 68 c 0
 418 68 426 76 437 95 c 1
 456 87 l 1
 435 18 401 -16 350 -16 c 0
 303 -16 279 12 277 69 c 1
 208 4 173 -16 125 -16 c 0
 97 -16 70 -2 57 20 c 0
 44 42 31 86 31 106 c 0xaa
 31 130 53 149 113 178 c 0
 152 196 225 225 275 241 c 1
 275 282 l 2
 275 352 254 376 192 376 c 0
 145 376 119 363 119 339 c 0
 119 331 119 330 129 304 c 1xa6
275 105 m 1
 275 209 l 1
 160 162 142 151 142 129 c 0xaa
 142 115 147 93 152 78 c 0
 158 62 173 52 190 52 c 0
 219 52 243 67 275 105 c 1
95 539 m 2
 87 546 l 2
 82 549 80 554 80 558 c 0
 80 569 91 607 101 629 c 0
 119 673 146 695 180 695 c 0x2a
 206 695 211 692 268 648 c 0
 288 632 300 626 312 626 c 0
 330 626 345 644 355 678 c 0
 358 688 361 692 366 692 c 0
 369 692 371 691 374 690 c 2
 387 682 l 2
 391 679 394 675 394 671 c 0
 394 659 381 614 372 596 c 0
 354 557 327 535 298 535 c 0x5a
 275 535 254 545 223 572 c 0
 194 597 181 604 165 604 c 0
 147 604 133 589 118 553 c 0
 113 541 109 536 103 536 c 0
 101 536 98 537 95 539 c 2
EndSplineSet
EndChar
StartChar: aring
Encoding: 292 229 186
Width: 461
Flags: W
HStem: -16 68 518 51<215 251.5> 701 51<216 252>
VStem: 31 111 41 78 117 51<617 654> 275 111<110.5 138 138 209 209 209 241 282 282 309> 300 51<616.5 653>
Fore
129 304 m 1xea
 52 268 l 1
 46 279 41 298 41 311 c 0xea
 41 339 70 371 132 410 c 1
 169 435 188 445 217 455 c 1
 286 455 320 447 346 426 c 0
 375 403 386 371 386 309 c 2
 386 138 l 2
 386 83 390 68 405 68 c 0
 418 68 426 76 437 95 c 1
 456 87 l 1
 435 18 401 -16 350 -16 c 0
 303 -16 279 12 277 69 c 1
 208 4 173 -16 125 -16 c 0
 97 -16 70 -2 57 20 c 0
 44 42 31 86 31 106 c 0xf2
 31 130 53 149 113 178 c 0
 152 196 225 225 275 241 c 1
 275 282 l 2
 275 352 254 376 192 376 c 0
 145 376 119 363 119 339 c 0
 119 331 119 330 129 304 c 1xea
275 105 m 1
 275 209 l 1
 160 162 142 151 142 129 c 0xf2
 142 115 147 93 152 78 c 0
 158 62 173 52 190 52 c 0
 219 52 243 67 275 105 c 1
234 752 m 0xe5
 299 752 351 700 351 635 c 0
 351 570 299 518 233 518 c 0
 169 518 117 571 117 637 c 0
 117 699 170 752 234 752 c 0xe5
234 701 m 0
 198 701 168 672 168 636 c 0
 168 598 197 569 233 569 c 0
 270 569 300 598 300 635 c 0
 300 671 270 701 234 701 c 0
EndSplineSet
KernsSLIF: 121 -15 0 0 119 -17 0 0 118 -15 0 0
EndChar
StartChar: ccedilla
Encoding: 293 231 187
Width: 424
Flags: MW
HStem: -216 42<179.5 198.5> 410 45<202.5 240.5>
VStem: 31 100<207.5 271> 231 80<-143 -127>
Fore
259 -15 m 1
 232 -45 l 1
 287 -55 311 -76 311 -114 c 0
 311 -172 253 -216 174 -216 c 0
 120 -216 91 -203 91 -179 c 0
 91 -163 105 -150 121 -150 c 0
 132 -150 138 -152 152 -162 c 0
 165 -171 173 -174 186 -174 c 0
 211 -174 231 -158 231 -138 c 0
 231 -116 207 -99 180 -101 c 0
 169 -102 169 -102 167 -102 c 0
 160 -102 157 -101 154 -96 c 2
 149 -89 l 1
 148 -86 147 -84 147 -82 c 0
 147 -79 152 -73 160 -66 c 2
 219 -16 l 1
 102 -6 31 74 31 197 c 0
 31 345 132 455 268 455 c 0
 345 455 399 422 399 374 c 0
 399 340 378 318 347 318 c 0
 326 318 311 325 298 343 c 0
 294 348 294 348 276 381 c 0
 264 402 251 410 230 410 c 0
 175 410 131 343 131 259 c 0
 131 156 203 72 290 72 c 0
 328 72 341 78 384 117 c 0
 385 118 387 119 388 119 c 0
 394 119 412 105 412 101 c 0
 412 90 375 40 354 21 c 0
 329 0 303 -10 259 -15 c 1
EndSplineSet
EndChar
StartChar: edieresis
Encoding: 294 235 188
Width: 442
Flags: MW
HStem: -16 93<253.5 259> 415 40<210 255.5> 555 145<99.5 139 303 342>
VStem: 47 145<608.5 647> 250 145<608.5 647.5>
Fore
392 269 m 2
 132 265 l 1
 132 223 134 210 144 183 c 0
 166 120 224 77 283 77 c 0
 320 77 348 90 386 124 c 1
 396 119 404 112 411 105 c 1
 360 22 300 -16 218 -16 c 0
 104 -16 26 74 26 206 c 0
 26 350 121 455 253 455 c 0
 357 455 421 393 421 291 c 0
 421 273 416 270 392 269 c 2
137 302 m 1
 235 307 l 2
 299 310 308 314 308 341 c 0
 308 383 276 415 235 415 c 0
 185 415 148 373 137 302 c 1
119 700 m 0
 159 700 192 667 192 627 c 0
 192 587 159 555 119 555 c 0
 79 555 47 588 47 629 c 0
 47 667 80 700 119 700 c 0
323 700 m 0
 362 700 395 667 395 628 c 0
 395 587 362 555 322 555 c 0
 282 555 250 588 250 629 c 0
 250 667 283 700 323 700 c 0
EndSplineSet
EndChar
StartChar: eacute
Encoding: 295 233 189
Width: 442
Flags: MW
HStem: -16 93<253.5 259> 415 40<210 255.5>
Fore
392 269 m 2
 132 265 l 1
 132 223 134 210 144 183 c 0
 166 120 224 77 283 77 c 0
 320 77 348 90 386 124 c 1
 396 119 404 112 411 105 c 1
 360 22 300 -16 218 -16 c 0
 104 -16 26 74 26 206 c 0
 26 350 121 455 253 455 c 0
 357 455 421 393 421 291 c 0
 421 273 416 270 392 269 c 2
137 302 m 1
 235 307 l 2
 299 310 308 314 308 341 c 0
 308 383 276 415 235 415 c 0
 185 415 148 373 137 302 c 1
176 548 m 2
 239 716 l 2
 256 762 270 777 295 777 c 0
 324 777 349 753 349 726 c 0
 349 710 340 692 319 665 c 2
 208 523 l 2
 206 521 203 519 200 519 c 0
 197 519 195 520 192 521 c 2
 181 529 l 2
 177 532 174 537 174 541 c 0
 174 543 175 545 176 548 c 2
EndSplineSet
KernsSLIF: 121 3 0 0 119 3 0 0 118 5 0 0
EndChar
StartChar: egrave
Encoding: 296 232 190
Width: 442
Flags: MW
HStem: -16 93<253.5 259> 415 40<210 255.5>
Fore
392 269 m 2
 132 265 l 1
 132 223 134 210 144 183 c 0
 166 120 224 77 283 77 c 0
 320 77 348 90 386 124 c 1
 396 119 404 112 411 105 c 1
 360 22 300 -16 218 -16 c 0
 104 -16 26 74 26 206 c 0
 26 350 121 455 253 455 c 0
 357 455 421 393 421 291 c 0
 421 273 416 270 392 269 c 2
137 302 m 1
 235 307 l 2
 299 310 308 314 308 341 c 0
 308 383 276 415 235 415 c 0
 185 415 148 373 137 302 c 1
242 523 m 2
 131 665 l 2
 110 693 101 710 101 726 c 0
 101 753 126 777 155 777 c 0
 180 777 194 762 212 716 c 1
 275 548 l 2
 276 546 276 543 276 541 c 0
 276 536 273 532 269 529 c 2
 258 521 l 2
 256 520 253 519 250 519 c 0
 247 519 244 521 242 523 c 2
EndSplineSet
EndChar
StartChar: ecircumflex
Encoding: 297 234 191
Width: 442
Flags: MW
HStem: -16 93<253.5 259> 415 40<210 255.5>
Fore
392 269 m 2
 132 265 l 1
 132 223 134 210 144 183 c 0
 166 120 224 77 283 77 c 0
 320 77 348 90 386 124 c 1
 396 119 404 112 411 105 c 1
 360 22 300 -16 218 -16 c 0
 104 -16 26 74 26 206 c 0
 26 350 121 455 253 455 c 0
 357 455 421 393 421 291 c 0
 421 273 416 270 392 269 c 2
137 302 m 1
 235 307 l 2
 299 310 308 314 308 341 c 0
 308 383 276 415 235 415 c 0
 185 415 148 373 137 302 c 1
223 661 m 1
 123 525 l 2
 121 522 116 519 113 519 c 0
 111 519 108 520 105 522 c 2
 96 530 l 2
 93 532 91 536 91 538 c 0
 91 541 92 545 94 549 c 1
 147 691 l 1
 168 749 169 750 182 763 c 0
 190 771 207 777 222 777 c 0
 251 777 267 766 281 740 c 0
 283 736 289 719 300 691 c 1
 353 549 l 1
 354 545 355 542 355 538 c 0
 355 536 353 532 351 530 c 2
 341 522 l 2
 338 520 335 519 333 519 c 0
 330 519 326 521 323 525 c 2
 223 661 l 1
EndSplineSet
KernsSLIF: 121 3 0 0 119 3 0 0 118 5 0 0
EndChar
StartChar: idieresis
Encoding: 298 239 192
Width: 295
Flags: W
HStem: -8 20 0 20 555 145<26.5 66 229 268>
VStem: -26 145<608.5 647> 94 111<149 272 272 302.5> 176 145<608.5 647.5>
Fore
201 460 m 1xa8
 208 458 l 1
 207 385 206 362 205 304 c 1
 205 149 l 2
 205 46 212 30 261 27 c 0
 270 26 271 25 271 16 c 2
 271 4 l 2
 271 -6 270 -8 263 -8 c 2xa8
 247 -7 l 2
 203 -2 177 0 151 0 c 0x48
 124 0 83 -3 51 -7 c 2
 36 -8 l 2
 29 -8 27 -5 27 4 c 2
 27 16 l 2
 27 25 29 27 38 27 c 0
 86 30 94 46 94 149 c 2
 94 272 l 2
 94 333 94 333 87 345 c 1
 78 357 62 365 45 366 c 0
 41 366 39 369 39 377 c 2
 39 384 l 2
 39 393 39 393 47 396 c 2
 201 460 l 1xa8
46 700 m 0
 86 700 119 667 119 627 c 0
 119 587 86 555 46 555 c 0
 6 555 -26 588 -26 629 c 0xb4
 -26 667 7 700 46 700 c 0
249 700 m 0
 288 700 321 667 321 628 c 0
 321 587 288 555 248 555 c 0
 208 555 176 588 176 629 c 0
 176 667 209 700 249 700 c 0
EndSplineSet
EndChar
StartChar: iacute
Encoding: 299 237 193
Width: 295
Flags: W
HStem: -8 20 0 20
VStem: 93 111<149 272 272 272>
Fore
201 460 m 1xa0
 207 458 l 1
 206 375 205 362 204 304 c 1
 204 149 l 2
 204 46 212 30 260 27 c 0
 269 26 271 25 271 16 c 2
 271 4 l 2
 271 -6 269 -8 261 -8 c 2xa0
 246 -7 l 2
 198 -2 177 0 150 0 c 0x60
 123 0 80 -3 50 -7 c 0
 44 -8 38 -8 35 -8 c 0
 28 -8 27 -6 27 4 c 2
 27 16 l 2
 27 26 27 26 37 27 c 0
 86 30 93 46 93 149 c 2
 93 272 l 1
 94 350 90 358 44 366 c 0
 40 366 38 368 38 377 c 2
 38 384 l 2
 38 393 38 393 46 396 c 2
 201 460 l 1xa0
102 548 m 2
 165 716 l 2
 182 762 196 777 221 777 c 0
 250 777 275 753 275 726 c 0
 275 710 266 692 245 665 c 2
 134 523 l 2
 132 521 129 519 126 519 c 0
 123 519 121 520 119 521 c 2
 107 529 l 2
 103 532 100 537 100 541 c 0
 100 543 101 545 102 548 c 2
EndSplineSet
EndChar
StartChar: igrave
Encoding: 300 236 194
Width: 295
Flags: W
HStem: -8 20 0 20
VStem: 93 111<149 272 272 272>
Fore
201 460 m 1xa0
 207 458 l 1
 206 375 205 362 204 304 c 1
 204 149 l 2
 204 46 212 30 260 27 c 0
 269 26 271 25 271 16 c 2
 271 4 l 2
 271 -6 269 -8 261 -8 c 2xa0
 246 -7 l 2
 198 -2 177 0 150 0 c 0x60
 123 0 80 -3 50 -7 c 0
 44 -8 38 -8 35 -8 c 0
 28 -8 27 -6 27 4 c 2
 27 16 l 2
 27 26 27 26 37 27 c 0
 86 30 93 46 93 149 c 2
 93 272 l 1
 94 350 90 358 44 366 c 0
 40 366 38 368 38 377 c 2
 38 384 l 2
 38 393 38 393 46 396 c 2
 201 460 l 1xa0
168 523 m 2
 58 665 l 2
 37 692 28 710 28 726 c 0
 28 754 53 777 82 777 c 0
 106 777 120 762 138 716 c 1
 201 548 l 2
 202 546 202 543 202 541 c 0
 202 536 199 532 195 529 c 2
 184 521 l 2
 182 520 180 519 176 519 c 0
 173 519 170 521 168 523 c 2
EndSplineSet
EndChar
StartChar: icircumflex
Encoding: 301 238 195
Width: 295
Flags: W
HStem: -8 20 0 20
VStem: 94 111<149 272 272 272>
Fore
201 460 m 1xa0
 208 458 l 1
 207 375 206 362 205 304 c 1
 205 149 l 2
 205 46 212 30 261 27 c 0
 270 26 272 25 272 16 c 2
 272 4 l 2
 272 -6 270 -8 262 -8 c 2xa0
 247 -7 l 2
 199 -2 178 0 151 0 c 0x60
 124 0 82 -3 51 -7 c 0
 45 -8 39 -8 36 -8 c 0
 29 -8 28 -5 28 4 c 2
 28 16 l 2
 28 25 29 26 38 27 c 0
 87 30 94 46 94 149 c 2
 94 272 l 1
 95 351 91 358 45 366 c 0
 41 366 39 369 39 377 c 2
 39 384 l 2
 39 393 39 393 47 396 c 2
 201 460 l 1xa0
149 661 m 1
 49 525 l 2
 47 522 43 519 40 519 c 0
 37 519 34 520 31 522 c 2
 22 530 l 2
 19 533 17 536 17 538 c 0
 17 541 18 545 20 549 c 1
 73 691 l 1
 94 749 95 750 108 763 c 0
 116 771 133 777 148 777 c 0
 177 777 194 766 207 740 c 0
 209 736 215 719 226 691 c 1
 279 549 l 2
 281 544 282 540 282 538 c 0
 282 536 280 533 277 530 c 2
 267 522 l 2
 265 520 262 519 259 519 c 0
 256 519 252 521 249 525 c 2
 149 661 l 1
EndSplineSet
EndChar
StartChar: ntilde
Encoding: 302 241 196
Width: 590
Flags: W
HStem: -8 20 0 20 375 80 535 91<370 376.5> 604 91<227 237> 672 20<427.5 431.5>
VStem: 94 111<149 272 272 272> 397 111<149 252 252 275.5>
Fore
205 333 m 1xa3
 205 149 l 2
 205 49 213 30 257 27 c 0
 266 26 267 25 267 16 c 2
 267 4 l 2
 267 -6 266 -8 259 -8 c 0x8b
 251 -8 251 -8 207 -3 c 0
 188 -1 168 0 147 0 c 0x43
 117 0 111 0 61 -6 c 0
 53 -7 43 -8 37 -8 c 0
 31 -8 30 -7 30 4 c 2
 30 16 l 2
 30 26 30 26 40 27 c 0
 86 30 94 47 94 149 c 2
 94 272 l 1
 95 349 91 358 50 365 c 1
 41 365 39 367 39 377 c 2
 39 384 l 2
 39 393 39 393 47 396 c 2
 201 460 l 1
 210 454 l 1
 209 441 l 1
 206 409 206 409 206 401 c 1
 205 374 l 1
 305 443 332 455 388 455 c 0
 419 455 450 443 470 424 c 0
 501 394 508 368 508 292 c 2
 508 149 l 2
 508 51 516 30 558 27 c 0
 567 26 568 25 568 16 c 2
 568 4 l 2
 568 -5 566 -8 561 -8 c 0xa3
 556 -8 549 -8 542 -7 c 0
 498 -2 472 0 453 0 c 0x43
 433 0 410 -2 362 -7 c 0
 355 -8 348 -8 342 -8 c 0
 337 -8 335 -5 335 4 c 2
 335 16 l 2
 335 25 336 26 345 27 c 0
 389 30 397 49 397 149 c 2
 397 252 l 2
 397 299 395 317 386 336 c 0
 375 361 349 375 316 375 c 0
 279 375 247 363 205 333 c 1xa3
159 539 m 2
 151 546 l 2
 146 549 144 553 144 558 c 0
 144 569 155 606 165 629 c 0
 183 673 210 695 244 695 c 0x0b
 271 695 275 692 332 648 c 0
 352 632 364 626 376 626 c 0
 394 626 410 645 419 678 c 0
 422 688 425 692 430 692 c 0
 433 692 435 691 438 690 c 2
 451 682 l 2
 455 679 458 675 458 671 c 0
 458 659 445 614 436 596 c 0
 418 557 391 535 362 535 c 0x17
 339 535 318 545 287 572 c 0
 258 597 245 604 229 604 c 0
 211 604 196 588 182 553 c 0
 177 541 173 536 167 536 c 0
 165 536 162 537 159 539 c 2
EndSplineSet
EndChar
StartChar: odieresis
Encoding: 303 246 197
Width: 535
Flags: W
HStem: -16 44<252.5 320.5> 410 45<222 274> 555 145<146.5 186 349 388>
VStem: 38 122<195 288.5> 94 145<608.5 647> 296 145<608.5 647.5> 380 122<160 195>
Fore
276 455 m 0xf2
 405 455 502 359 502 231 c 0
 502 89 401 -16 265 -16 c 0
 130 -16 38 81 38 224 c 0
 38 353 143 455 276 455 c 0xf2
252 410 m 0
 192 410 160 360 160 267 c 0
 160 123 213 28 292 28 c 0
 349 28 380 77 380 166 c 0
 380 224 368 289 349 335 c 0
 328 385 296 410 252 410 c 0
166 700 m 0xec
 206 700 239 667 239 627 c 0
 239 587 206 555 166 555 c 0
 126 555 94 588 94 629 c 0
 94 667 127 700 166 700 c 0xec
369 700 m 0
 408 700 441 667 441 628 c 0
 441 587 408 555 368 555 c 0
 328 555 296 588 296 629 c 0
 296 667 329 700 369 700 c 0
EndSplineSet
KernsSLIF: 121 -21 0 0 120 -31 0 0 119 -21 0 0 118 -19 0 0 116 -7 0 0
EndChar
StartChar: oacute
Encoding: 304 243 198
Width: 535
Flags: MW
HStem: -16 44<252.5 320.5> 410 45<222 274>
VStem: 38 122<195 288.5> 380 122<160 195>
Fore
276 455 m 0
 405 455 502 359 502 231 c 0
 502 89 401 -16 265 -16 c 0
 130 -16 38 81 38 224 c 0
 38 353 143 455 276 455 c 0
252 410 m 0
 192 410 160 360 160 267 c 0
 160 123 213 28 292 28 c 0
 349 28 380 77 380 166 c 0
 380 224 368 289 349 335 c 0
 328 385 296 410 252 410 c 0
223 548 m 2
 286 716 l 2
 303 762 317 777 342 777 c 0
 371 777 396 753 396 726 c 0
 396 710 387 692 366 665 c 2
 255 523 l 2
 253 521 250 519 247 519 c 0
 244 519 242 520 239 521 c 2
 228 529 l 2
 224 532 221 537 221 541 c 0
 221 543 222 546 223 548 c 2
EndSplineSet
KernsSLIF: 121 -21 0 0 119 -21 0 0 118 -19 0 0
EndChar
StartChar: ograve
Encoding: 305 242 199
Width: 535
Flags: MW
HStem: -16 44<252.5 320.5> 410 45<222 274>
VStem: 38 122<195 288.5> 380 122<160 195>
Fore
276 455 m 0
 405 455 502 359 502 231 c 0
 502 89 401 -16 265 -16 c 0
 130 -16 38 81 38 224 c 0
 38 353 143 455 276 455 c 0
252 410 m 0
 192 410 160 360 160 267 c 0
 160 123 213 28 292 28 c 0
 349 28 380 77 380 166 c 0
 380 224 368 289 349 335 c 0
 328 385 296 410 252 410 c 0
289 523 m 2
 178 665 l 2
 157 693 148 710 148 726 c 0
 148 753 173 777 202 777 c 0
 227 777 241 761 258 716 c 2
 321 548 l 2
 322 546 323 543 323 541 c 0
 323 537 320 532 316 529 c 2
 305 521 l 2
 302 520 300 519 297 519 c 0
 294 519 291 521 289 523 c 2
EndSplineSet
KernsSLIF: 121 -21 0 0 119 -21 0 0 118 -19 0 0
EndChar
StartChar: ocircumflex
Encoding: 306 244 200
Width: 535
Flags: MW
HStem: -16 44<252.5 320.5> 410 45<222 274>
VStem: 38 122<195 288.5> 380 122<160 195>
Fore
276 455 m 0
 405 455 502 359 502 231 c 0
 502 89 401 -16 265 -16 c 0
 130 -16 38 81 38 224 c 0
 38 353 143 455 276 455 c 0
252 410 m 0
 192 410 160 360 160 267 c 0
 160 123 213 28 292 28 c 0
 349 28 380 77 380 166 c 0
 380 224 368 289 349 335 c 0
 328 385 296 410 252 410 c 0
270 661 m 1
 170 525 l 1
 167 522 163 519 160 519 c 0
 157 519 155 520 152 522 c 2
 142 530 l 2
 140 532 138 536 138 538 c 0
 138 542 139 545 140 549 c 1
 194 691 l 1
 215 749 215 750 228 763 c 0
 237 771 253 777 269 777 c 0
 297 777 314 766 327 740 c 0
 330 736 336 719 346 691 c 1
 399 549 l 1
 401 545 402 541 402 538 c 0
 402 536 400 532 397 530 c 2
 388 522 l 2
 385 520 382 519 379 519 c 0
 376 519 372 521 370 525 c 1
 270 661 l 1
EndSplineSet
KernsSLIF: 116 -7 0 0
EndChar
StartChar: otilde
Encoding: 307 245 201
Width: 535
Flags: W
HStem: -16 44<252.5 320.5> 410 45<222 274> 535 91<344 349.5> 604 91<200 210> 672 20<400.5 404.5>
VStem: 38 122<195 288.5> 380 122<160 195>
Fore
276 455 m 0xd6
 405 455 502 359 502 231 c 0
 502 89 401 -16 265 -16 c 0
 130 -16 38 81 38 224 c 0
 38 353 143 455 276 455 c 0xd6
252 410 m 0
 192 410 160 360 160 267 c 0
 160 123 213 28 292 28 c 0
 349 28 380 77 380 166 c 0
 380 224 368 289 349 335 c 0
 328 385 296 410 252 410 c 0
132 539 m 2
 124 546 l 2
 119 549 117 553 117 558 c 0
 117 569 128 606 138 629 c 0
 156 673 183 695 217 695 c 0x16
 244 695 249 692 305 648 c 0
 325 632 338 626 350 626 c 0
 367 626 383 646 393 678 c 0
 396 688 398 692 403 692 c 0
 406 692 409 691 411 690 c 2
 424 682 l 2
 428 679 431 675 431 671 c 0
 431 659 418 614 409 596 c 0
 391 557 364 535 335 535 c 0x2e
 312 535 292 545 260 572 c 0
 231 597 218 604 202 604 c 0
 184 604 169 588 155 553 c 0
 151 541 146 536 141 536 c 0
 138 536 135 537 132 539 c 2
EndSplineSet
EndChar
StartChar: scaron
Encoding: 308 353 202
Width: 369
Flags: MW
HStem: -16 39<159 198> 415 40<185 217>
VStem: 50 96<354 360> 242 96
Fore
327 424 m 1
 326 334 l 1
 326 323 324 322 310 322 c 0
 291 322 291 322 282 348 c 0
 268 387 234 415 200 415 c 0
 170 415 146 393 146 365 c 0
 146 343 157 330 211 293 c 0
 309 224 338 185 338 123 c 0
 338 87 323 52 295 27 c 1
 264 -3 226 -16 170 -16 c 0
 116 -16 87 -7 43 24 c 1
 41 118 l 1
 41 126 47 128 66 128 c 0
 75 128 77 126 80 117 c 0
 98 59 137 23 181 23 c 0
 217 23 242 46 242 79 c 0
 242 112 223 135 161 176 c 0
 75 234 50 268 50 323 c 0
 50 397 119 455 208 455 c 0
 246 455 280 446 327 424 c 1
191 635 m 1
 291 771 l 2
 293 774 298 777 300 777 c 0
 303 777 306 776 309 773 c 2
 318 766 l 2
 321 763 323 760 323 757 c 0
 323 755 322 751 320 746 c 2
 267 605 l 1
 246 547 245 546 232 532 c 0
 224 524 208 518 193 518 c 0
 163 518 146 529 133 556 c 0
 130 562 130 562 114 605 c 2
 61 746 l 2
 59 752 58 756 58 757 c 0
 58 760 60 763 63 766 c 2
 73 773 l 2
 76 776 79 777 81 777 c 0
 84 777 88 775 91 771 c 2
 191 635 l 1
EndSplineSet
EndChar
StartChar: udieresis
Encoding: 309 252 203
Width: 590
Flags: W
HStem: -17 20 -16 84 435 20<187 187 489 489> 555 145<173.5 213 377 416>
VStem: 86 111<142.5 184 184 340 340 366> 121 145<608.5 647> 324 145<608.5 647.5> 389 111<118 130 130 340 340 368>
Fore
389 -17 m 1xa9
 389 76 l 1
 309 1 276 -16 209 -16 c 0
 122 -16 86 27 86 130 c 2
 86 340 l 2
 86 392 81 400 47 400 c 2
 35 400 l 2
 28 400 26 402 26 411 c 2
 26 423 l 2
 26 432 27 433 36 434 c 2
 187 455 l 1
 197 450 l 1
 197 184 l 2
 197 101 222 68 285 68 c 0x69
 322 68 325 69 363 95 c 0
 386 111 389 114 389 118 c 2
 389 340 l 2
 389 396 385 400 335 400 c 0
 329 400 327 402 327 411 c 2
 327 424 l 2
 327 434 328 434 338 436 c 2
 489 455 l 1
 500 450 l 1
 500 130 l 2
 500 94 501 90 507 82 c 0
 510 78 515 75 518 75 c 0
 523 75 535 79 545 83 c 0
 551 85 553 86 555 86 c 0
 557 86 558 84 558 79 c 2
 558 56 l 2
 558 53 557 52 554 50 c 2
 402 -17 l 1
 389 -17 l 1xa9
193 700 m 0x96
 233 700 266 667 266 627 c 0
 266 587 233 555 193 555 c 0
 153 555 121 588 121 629 c 0
 121 667 154 700 193 700 c 0x96
397 700 m 0
 436 700 469 667 469 628 c 0
 469 587 436 555 396 555 c 0
 356 555 324 588 324 629 c 0
 324 667 357 700 397 700 c 0
EndSplineSet
EndChar
